<svg xmlns:dc="http://purl.org/dc/elements/1.1/" xmlns:cc="http://creativecommons.org/ns#" xmlns:rdf="http://www.w3.org/1999/02/22-rdf-syntax-ns#" xmlns:svg="http://www.w3.org/2000/svg" xmlns="http://www.w3.org/2000/svg" xmlns:xlink="http://www.w3.org/1999/xlink" xmlns:sodipodi="http://sodipodi.sourceforge.net/DTD/sodipodi-0.dtd" xmlns:inkscape="http://www.inkscape.org/namespaces/inkscape" viewBox="0 0 600 300" id="SJjepIn-Q" version="1.1" inkscape:version="0.91 r13725" sodipodi:docname="hvl-1.svg"><style>@-webkit-keyframes ryOgjeaUh-m_ryeKlPhbm_Animation{0%{-webkit-transform:  translate(0px, 0px);transform:  translate(0px, 0px);}21.67%{-webkit-transform:  translate(0px, -2px);transform:  translate(0px, -2px);}50%{-webkit-transform:  translate(0px, 0px);transform:  translate(0px, 0px);}58.33%{-webkit-transform:  translate(0px, -2px);transform:  translate(0px, -2px);}70%{-webkit-transform:  translate(0px, 0px);transform:  translate(0px, 0px);}85%{-webkit-transform:  translate(0px, -3px);transform:  translate(0px, -3px);}95%{-webkit-transform:  translate(0px, -2px);transform:  translate(0px, -2px);}100%{-webkit-transform:  translate(0px, 0px);transform:  translate(0px, 0px);}}@keyframes ryOgjeaUh-m_ryeKlPhbm_Animation{0%{-webkit-transform:  translate(0px, 0px);transform:  translate(0px, 0px);}21.67%{-webkit-transform:  translate(0px, -2px);transform:  translate(0px, -2px);}50%{-webkit-transform:  translate(0px, 0px);transform:  translate(0px, 0px);}58.33%{-webkit-transform:  translate(0px, -2px);transform:  translate(0px, -2px);}70%{-webkit-transform:  translate(0px, 0px);transform:  translate(0px, 0px);}85%{-webkit-transform:  translate(0px, -3px);transform:  translate(0px, -3px);}95%{-webkit-transform:  translate(0px, -2px);transform:  translate(0px, -2px);}100%{-webkit-transform:  translate(0px, 0px);transform:  translate(0px, 0px);}}@-webkit-keyframes HkLlox6I3ZX_ByTcywnb7_Animation{0%{-webkit-transform:  translate(0px, 0px);transform:  translate(0px, 0px);}21.67%{-webkit-transform:  translate(0px, -10px);transform:  translate(0px, -10px);}50%{-webkit-transform:  translate(0px, 0px);transform:  translate(0px, 0px);}58.33%{-webkit-transform:  translate(0px, -10px);transform:  translate(0px, -10px);}70%{-webkit-transform:  translate(0px, 0px);transform:  translate(0px, 0px);}85%{-webkit-transform:  translate(0px, -13px);transform:  translate(0px, -13px);}95%{-webkit-transform:  translate(0px, 0px);transform:  translate(0px, 0px);}100%{-webkit-transform:  translate(0px, 0px);transform:  translate(0px, 0px);}}@keyframes HkLlox6I3ZX_ByTcywnb7_Animation{0%{-webkit-transform:  translate(0px, 0px);transform:  translate(0px, 0px);}21.67%{-webkit-transform:  translate(0px, -10px);transform:  translate(0px, -10px);}50%{-webkit-transform:  translate(0px, 0px);transform:  translate(0px, 0px);}58.33%{-webkit-transform:  translate(0px, -10px);transform:  translate(0px, -10px);}70%{-webkit-transform:  translate(0px, 0px);transform:  translate(0px, 0px);}85%{-webkit-transform:  translate(0px, -13px);transform:  translate(0px, -13px);}95%{-webkit-transform:  translate(0px, 0px);transform:  translate(0px, 0px);}100%{-webkit-transform:  translate(0px, 0px);transform:  translate(0px, 0px);}}@-webkit-keyframes SkSgogTL3bX_Hka17D3bm_Animation{0%{-webkit-transform:  translate(0px, 0px);transform:  translate(0px, 0px);}21.67%{-webkit-transform:  translate(0px, -4px);transform:  translate(0px, -4px);}50%{-webkit-transform:  translate(0px, 0px);transform:  translate(0px, 0px);}58.33%{-webkit-transform:  translate(0px, -1px);transform:  translate(0px, -1px);}70%{-webkit-transform:  translate(0px, -1px);transform:  translate(0px, -1px);}85%{-webkit-transform:  translate(0px, -5px);transform:  translate(0px, -5px);}100%{-webkit-transform:  translate(0px, 0px);transform:  translate(0px, 0px);}}@keyframes SkSgogTL3bX_Hka17D3bm_Animation{0%{-webkit-transform:  translate(0px, 0px);transform:  translate(0px, 0px);}21.67%{-webkit-transform:  translate(0px, -4px);transform:  translate(0px, -4px);}50%{-webkit-transform:  translate(0px, 0px);transform:  translate(0px, 0px);}58.33%{-webkit-transform:  translate(0px, -1px);transform:  translate(0px, -1px);}70%{-webkit-transform:  translate(0px, -1px);transform:  translate(0px, -1px);}85%{-webkit-transform:  translate(0px, -5px);transform:  translate(0px, -5px);}100%{-webkit-transform:  translate(0px, 0px);transform:  translate(0px, 0px);}}@-webkit-keyframes SyVgjg6I3bX_S1CgbD3Z7_Animation{0%{-webkit-transform:  translate(0px, 0px);transform:  translate(0px, 0px);}21.67%{-webkit-transform:  translate(0px, -4px);transform:  translate(0px, -4px);}50%{-webkit-transform:  translate(0px, 0px);transform:  translate(0px, 0px);}58.33%{-webkit-transform:  translate(0px, -1px);transform:  translate(0px, -1px);}70%{-webkit-transform:  translate(0px, -1px);transform:  translate(0px, -1px);}85%{-webkit-transform:  translate(0px, -5px);transform:  translate(0px, -5px);}100%{-webkit-transform:  translate(0px, 0px);transform:  translate(0px, 0px);}}@keyframes SyVgjg6I3bX_S1CgbD3Z7_Animation{0%{-webkit-transform:  translate(0px, 0px);transform:  translate(0px, 0px);}21.67%{-webkit-transform:  translate(0px, -4px);transform:  translate(0px, -4px);}50%{-webkit-transform:  translate(0px, 0px);transform:  translate(0px, 0px);}58.33%{-webkit-transform:  translate(0px, -1px);transform:  translate(0px, -1px);}70%{-webkit-transform:  translate(0px, -1px);transform:  translate(0px, -1px);}85%{-webkit-transform:  translate(0px, -5px);transform:  translate(0px, -5px);}100%{-webkit-transform:  translate(0px, 0px);transform:  translate(0px, 0px);}}@-webkit-keyframes rJbeoxTIhWQ_HyHPbv2-Q_Animation{0%{-webkit-transform:  translate(0px, 0px);transform:  translate(0px, 0px);}21.67%{-webkit-transform:  translate(0px, -4px);transform:  translate(0px, -4px);}38.33%{-webkit-transform:  translate(0px, 0px);transform:  translate(0px, 0px);}58.33%{-webkit-transform:  translate(0px, -1px);transform:  translate(0px, -1px);}70%{-webkit-transform:  translate(0px, -1px);transform:  translate(0px, -1px);}85%{-webkit-transform:  translate(0px, -5px);transform:  translate(0px, -5px);}100%{-webkit-transform:  translate(0px, 0px);transform:  translate(0px, 0px);}}@keyframes rJbeoxTIhWQ_HyHPbv2-Q_Animation{0%{-webkit-transform:  translate(0px, 0px);transform:  translate(0px, 0px);}21.67%{-webkit-transform:  translate(0px, -4px);transform:  translate(0px, -4px);}38.33%{-webkit-transform:  translate(0px, 0px);transform:  translate(0px, 0px);}58.33%{-webkit-transform:  translate(0px, -1px);transform:  translate(0px, -1px);}70%{-webkit-transform:  translate(0px, -1px);transform:  translate(0px, -1px);}85%{-webkit-transform:  translate(0px, -5px);transform:  translate(0px, -5px);}100%{-webkit-transform:  translate(0px, 0px);transform:  translate(0px, 0px);}}@-webkit-keyframes rJkxixa83Z7_B1zbGwhZQ_Animation{0%{-webkit-transform:  translate(0px, 0px);transform:  translate(0px, 0px);}21.67%{-webkit-transform:  translate(0px, -4px);transform:  translate(0px, -4px);}38.33%{-webkit-transform:  translate(0px, 0px);transform:  translate(0px, 0px);}58.33%{-webkit-transform:  translate(0px, -1px);transform:  translate(0px, -1px);}70%{-webkit-transform:  translate(0px, -1px);transform:  translate(0px, -1px);}85%{-webkit-transform:  translate(0px, -5px);transform:  translate(0px, -5px);}100%{-webkit-transform:  translate(0px, 0px);transform:  translate(0px, 0px);}}@keyframes rJkxixa83Z7_B1zbGwhZQ_Animation{0%{-webkit-transform:  translate(0px, 0px);transform:  translate(0px, 0px);}21.67%{-webkit-transform:  translate(0px, -4px);transform:  translate(0px, -4px);}38.33%{-webkit-transform:  translate(0px, 0px);transform:  translate(0px, 0px);}58.33%{-webkit-transform:  translate(0px, -1px);transform:  translate(0px, -1px);}70%{-webkit-transform:  translate(0px, -1px);transform:  translate(0px, -1px);}85%{-webkit-transform:  translate(0px, -5px);transform:  translate(0px, -5px);}100%{-webkit-transform:  translate(0px, 0px);transform:  translate(0px, 0px);}}@-webkit-keyframes rJkxixa83Z7_HJwTWwnbX_Animation{0%{-webkit-transform:  rotate(0deg);transform:  rotate(0deg);}38.33%{-webkit-transform:  rotate(-1deg);transform:  rotate(-1deg);}58.33%{-webkit-transform:  rotate(0deg);transform:  rotate(0deg);}100%{-webkit-transform:  rotate(0deg);transform:  rotate(0deg);}}@keyframes rJkxixa83Z7_HJwTWwnbX_Animation{0%{-webkit-transform:  rotate(0deg);transform:  rotate(0deg);}38.33%{-webkit-transform:  rotate(-1deg);transform:  rotate(-1deg);}58.33%{-webkit-transform:  rotate(0deg);transform:  rotate(0deg);}100%{-webkit-transform:  rotate(0deg);transform:  rotate(0deg);}}@-webkit-keyframes rkjsx6I2-7_HkSOrv3ZQ_Animation{0%{-webkit-transform:  translate(0px, 0px);transform:  translate(0px, 0px);}21.67%{-webkit-transform:  translate(0px, -4px);transform:  translate(0px, -4px);}38.33%{-webkit-transform:  translate(0px, 0px);transform:  translate(0px, 0px);}58.33%{-webkit-transform:  translate(0px, -1px);transform:  translate(0px, -1px);}70%{-webkit-transform:  translate(0px, -1px);transform:  translate(0px, -1px);}85%{-webkit-transform:  translate(0px, -5px);transform:  translate(0px, -5px);}100%{-webkit-transform:  translate(0px, 0px);transform:  translate(0px, 0px);}}@keyframes rkjsx6I2-7_HkSOrv3ZQ_Animation{0%{-webkit-transform:  translate(0px, 0px);transform:  translate(0px, 0px);}21.67%{-webkit-transform:  translate(0px, -4px);transform:  translate(0px, -4px);}38.33%{-webkit-transform:  translate(0px, 0px);transform:  translate(0px, 0px);}58.33%{-webkit-transform:  translate(0px, -1px);transform:  translate(0px, -1px);}70%{-webkit-transform:  translate(0px, -1px);transform:  translate(0px, -1px);}85%{-webkit-transform:  translate(0px, -5px);transform:  translate(0px, -5px);}100%{-webkit-transform:  translate(0px, 0px);transform:  translate(0px, 0px);}}@-webkit-keyframes r1LoepLhZ7_Sy3fKD2WX_Animation{0%{-webkit-transform:  translate(0px, 0px);transform:  translate(0px, 0px);}41.67%{-webkit-transform:  translate(-3px, -1px);transform:  translate(-3px, -1px);}70%{-webkit-transform:  translate(0px, -1px);transform:  translate(0px, -1px);}100%{-webkit-transform:  translate(0px, 0px);transform:  translate(0px, 0px);}}@keyframes r1LoepLhZ7_Sy3fKD2WX_Animation{0%{-webkit-transform:  translate(0px, 0px);transform:  translate(0px, 0px);}41.67%{-webkit-transform:  translate(-3px, -1px);transform:  translate(-3px, -1px);}70%{-webkit-transform:  translate(0px, -1px);transform:  translate(0px, -1px);}100%{-webkit-transform:  translate(0px, 0px);transform:  translate(0px, 0px);}}@-webkit-keyframes r1LoepLhZ7_r1iMYDhZ7_Animation{0%{-webkit-transform:  rotate(0deg);transform:  rotate(0deg);}41.67%{-webkit-transform:  rotate(-6deg);transform:  rotate(-6deg);}70%{-webkit-transform:  rotate(-3deg);transform:  rotate(-3deg);}100%{-webkit-transform:  rotate(0deg);transform:  rotate(0deg);}}@keyframes r1LoepLhZ7_r1iMYDhZ7_Animation{0%{-webkit-transform:  rotate(0deg);transform:  rotate(0deg);}41.67%{-webkit-transform:  rotate(-6deg);transform:  rotate(-6deg);}70%{-webkit-transform:  rotate(-3deg);transform:  rotate(-3deg);}100%{-webkit-transform:  rotate(0deg);transform:  rotate(0deg);}}@-webkit-keyframes rJmsxTUhbX_BkiBEwhbQ_Animation{0%{-webkit-transform:  translate(0px, 0px);transform:  translate(0px, 0px);}50%{-webkit-transform:  translate(5px, 0px);transform:  translate(5px, 0px);}100%{-webkit-transform:  translate(0px, 0px);transform:  translate(0px, 0px);}}@keyframes rJmsxTUhbX_BkiBEwhbQ_Animation{0%{-webkit-transform:  translate(0px, 0px);transform:  translate(0px, 0px);}50%{-webkit-transform:  translate(5px, 0px);transform:  translate(5px, 0px);}100%{-webkit-transform:  translate(0px, 0px);transform:  translate(0px, 0px);}}@-webkit-keyframes rJmsxTUhbX_Bk14VDnW7_Animation{0%{-webkit-transform:  rotate(0deg);transform:  rotate(0deg);}50%{-webkit-transform:  rotate(10deg);transform:  rotate(10deg);}100%{-webkit-transform:  rotate(0deg);transform:  rotate(0deg);}}@keyframes rJmsxTUhbX_Bk14VDnW7_Animation{0%{-webkit-transform:  rotate(0deg);transform:  rotate(0deg);}50%{-webkit-transform:  rotate(10deg);transform:  rotate(10deg);}100%{-webkit-transform:  rotate(0deg);transform:  rotate(0deg);}}#SJjepIn-Q *{-webkit-animation-duration:  2s;animation-duration:  2s;-webkit-animation-iteration-count:  infinite;animation-iteration-count:  infinite;-webkit-animation-timing-function:  cubic-bezier(0, 0, 1, 1);animation-timing-function:  cubic-bezier(0, 0, 1, 1);}#H1ZixaLhZX{-webkit-transform:  translate(0px, -752.36218px);transform:  translate(0px, -752.36218px);}#rJfie6I3Z7{-webkit-transform:  matrix(0.718511, 0, 0, 0.718511, 8.9218234, 368.89972);transform:  matrix(0.718511, 0, 0, 0.718511, 8.9218234, 368.89972);}#rJmsxTUhbX{-webkit-transform:  matrix(-1, 0, 0, 1, 1035.3484, 342.18589);transform:  matrix(-1, 0, 0, 1, 1035.3484, 342.18589);}#SkNolTU2-Q{fill: url(#linearGradient8698);fill-opacity: 1;fill-rule: evenodd;stroke: none;stroke-width: 1px;stroke-linecap: butt;stroke-linejoin: miter;stroke-opacity: 1;}#rkSsgp82b7{fill: url(#linearGradient9698);fill-opacity: 1;fill-rule: evenodd;stroke: none;stroke-width: 1px;stroke-linecap: butt;stroke-linejoin: miter;stroke-opacity: 1;}#r1LoepLhZ7{-webkit-transform:  matrix(0.718511, 0, 0, 0.718511, 8.9218234, 368.89972);transform:  matrix(0.718511, 0, 0, 0.718511, 8.9218234, 368.89972);}#HkPie6LnZm{fill: url(#linearGradient9684);fill-opacity: 1;fill-rule: evenodd;stroke: none;stroke-width: 1px;stroke-linecap: butt;stroke-linejoin: miter;stroke-opacity: 1;}#HydolpUn-Q{fill: url(#linearGradient8690);fill-opacity: 1;fill-rule: evenodd;stroke: none;stroke-width: 1px;stroke-linecap: butt;stroke-linejoin: miter;stroke-opacity: 1;}#HJKieTIhWm{fill: #625c9a;fill-opacity: 1;fill-rule: evenodd;stroke: none;stroke-width: 1px;stroke-linecap: butt;stroke-linejoin: miter;stroke-opacity: 1;}#BJ5ixaUhbm{-webkit-transform:  matrix(-1, 0, 0, 1, 1035.3484, 342.18589);transform:  matrix(-1, 0, 0, 1, 1035.3484, 342.18589);}#rkjsx6I2-7{-webkit-transform:  matrix(0.718511, 0, 0, 0.718511, 8.9218234, 368.89972);transform:  matrix(0.718511, 0, 0, 0.718511, 8.9218234, 368.89972);}#Hkhsxa8hWQ{fill: #ede4e4;fill-opacity: 1;fill-rule: evenodd;stroke: none;stroke-width: 1px;stroke-linecap: butt;stroke-linejoin: miter;stroke-opacity: 1;-webkit-transform:  matrix(-1, 0, 0, 1, 1035.3484, 342.18589);transform:  matrix(-1, 0, 0, 1, 1035.3484, 342.18589);}#HkpilTU3bQ{fill: #fbf1f1;fill-opacity: 1;fill-rule: evenodd;stroke: none;stroke-width: 1px;stroke-linecap: butt;stroke-linejoin: miter;stroke-opacity: 1;-webkit-transform:  matrix(-1, 0, 0, 1, 1035.3484, 342.18589);transform:  matrix(-1, 0, 0, 1, 1035.3484, 342.18589);}#BJ0jgaI2WQ{fill: #ede4e4;fill-opacity: 1;fill-rule: evenodd;stroke: none;stroke-width: 1px;stroke-linecap: butt;stroke-linejoin: miter;stroke-opacity: 1;}#rJkxixa83Z7{fill: url(#linearGradient9668);fill-opacity: 1;fill-rule: evenodd;stroke: none;stroke-width: 1px;stroke-linecap: butt;stroke-linejoin: miter;stroke-opacity: 1;}#rJgxox6L3ZQ{-webkit-transform:  matrix(0.718511, 0, 0, 0.718511, 8.9218234, 368.89972);transform:  matrix(0.718511, 0, 0, 0.718511, 8.9218234, 368.89972);}#rJbeoxTIhWQ{fill: url(#linearGradient9676);fill-opacity: 1;fill-rule: evenodd;stroke: none;stroke-width: 1px;stroke-linecap: butt;stroke-linejoin: miter;stroke-opacity: 1;}#H1fgjlTI2bX{fill: none;fill-rule: evenodd;stroke: url(#linearGradient10239);stroke-width: 0.96200001;stroke-linecap: round;stroke-linejoin: round;stroke-miterlimit: 4;stroke-dasharray: none;stroke-opacity: 1;}#H1mloeaUnWm{-webkit-transform:  matrix(0.718511, 0, 0, 0.718511, 8.9218234, 368.89972);transform:  matrix(0.718511, 0, 0, 0.718511, 8.9218234, 368.89972);}#SyVgjg6I3bX{fill: #fbf1f1;fill-opacity: 1;fill-rule: evenodd;stroke: none;stroke-width: 1px;stroke-linecap: butt;stroke-linejoin: miter;stroke-opacity: 1;}#SkSgogTL3bX{fill: #fbf1f1;fill-opacity: 1;fill-rule: evenodd;stroke: none;stroke-width: 1px;stroke-linecap: butt;stroke-linejoin: miter;stroke-opacity: 1;}#HkLlox6I3ZX{fill: #fbf1f1;fill-opacity: 1;fill-rule: evenodd;stroke: none;stroke-width: 1px;stroke-linecap: butt;stroke-linejoin: miter;stroke-opacity: 1;}#r1Dlse6U2Wm{fill: #e5af82;fill-opacity: 1;fill-rule: evenodd;stroke: none;stroke-width: 1px;stroke-linecap: butt;stroke-linejoin: miter;stroke-opacity: 1;}#ryOgjeaUh-m{-webkit-transform:  matrix(0.718511, 0, 0, 0.718511, 8.9218234, 368.89972);transform:  matrix(0.718511, 0, 0, 0.718511, 8.9218234, 368.89972);}#SyFgsxTLhbX{fill: url(#linearGradient10103-0);fill-opacity: 1;fill-rule: evenodd;stroke: none;stroke-width: 1px;stroke-linecap: butt;stroke-linejoin: miter;stroke-opacity: 1;}#rJ9gjxTUh-Q{fill: url(#linearGradient10103);fill-opacity: 1;fill-rule: evenodd;stroke: none;stroke-width: 1px;stroke-linecap: butt;stroke-linejoin: miter;stroke-opacity: 1;}#HJjgilTLhZX{fill: #fbfbfb;fill-opacity: 1;fill-rule: evenodd;stroke: #ffffff;stroke-width: 1;stroke-linecap: butt;stroke-linejoin: miter;stroke-miterlimit: 4;stroke-dasharray: none;stroke-opacity: 1;}#rJmsxTUhbX_Bk14VDnW7{-webkit-animation-name:  rJmsxTUhbX_Bk14VDnW7_Animation;animation-name:  rJmsxTUhbX_Bk14VDnW7_Animation;-webkit-animation-timing-function:  cubic-bezier(0.42, 0, 0.58, 1);animation-timing-function:  cubic-bezier(0.42, 0, 0.58, 1);-webkit-transform-origin:  50% 50%;transform-origin:  50% 50%;transform-box:  fill-box;}#rJmsxTUhbX_BkiBEwhbQ{-webkit-animation-name:  rJmsxTUhbX_BkiBEwhbQ_Animation;animation-name:  rJmsxTUhbX_BkiBEwhbQ_Animation;-webkit-animation-timing-function:  cubic-bezier(0.42, 0, 0.58, 1);animation-timing-function:  cubic-bezier(0.42, 0, 0.58, 1);-webkit-transform-origin:  50% 50%;transform-origin:  50% 50%;transform-box:  fill-box;}#r1LoepLhZ7_r1iMYDhZ7{-webkit-animation-name:  r1LoepLhZ7_r1iMYDhZ7_Animation;animation-name:  r1LoepLhZ7_r1iMYDhZ7_Animation;-webkit-transform-origin:  50% 50%;transform-origin:  50% 50%;transform-box:  fill-box;}#r1LoepLhZ7_Sy3fKD2WX{-webkit-animation-name:  r1LoepLhZ7_Sy3fKD2WX_Animation;animation-name:  r1LoepLhZ7_Sy3fKD2WX_Animation;-webkit-transform-origin:  50% 50%;transform-origin:  50% 50%;transform-box:  fill-box;}#rkjsx6I2-7_HkSOrv3ZQ{-webkit-animation-name:  rkjsx6I2-7_HkSOrv3ZQ_Animation;animation-name:  rkjsx6I2-7_HkSOrv3ZQ_Animation;-webkit-transform-origin:  50% 50%;transform-origin:  50% 50%;transform-box:  fill-box;}#rJkxixa83Z7_HJwTWwnbX{-webkit-animation-name:  rJkxixa83Z7_HJwTWwnbX_Animation;animation-name:  rJkxixa83Z7_HJwTWwnbX_Animation;-webkit-transform-origin:  50% 50%;transform-origin:  50% 50%;transform-box:  fill-box;}#rJkxixa83Z7_B1zbGwhZQ{-webkit-animation-name:  rJkxixa83Z7_B1zbGwhZQ_Animation;animation-name:  rJkxixa83Z7_B1zbGwhZQ_Animation;-webkit-transform-origin:  50% 50%;transform-origin:  50% 50%;transform-box:  fill-box;}#rJbeoxTIhWQ_HyHPbv2-Q{-webkit-animation-name:  rJbeoxTIhWQ_HyHPbv2-Q_Animation;animation-name:  rJbeoxTIhWQ_HyHPbv2-Q_Animation;-webkit-transform-origin:  50% 50%;transform-origin:  50% 50%;transform-box:  fill-box;}#SyVgjg6I3bX_S1CgbD3Z7{-webkit-animation-name:  SyVgjg6I3bX_S1CgbD3Z7_Animation;animation-name:  SyVgjg6I3bX_S1CgbD3Z7_Animation;-webkit-transform-origin:  50% 50%;transform-origin:  50% 50%;transform-box:  fill-box;}#SkSgogTL3bX_Hka17D3bm{-webkit-animation-name:  SkSgogTL3bX_Hka17D3bm_Animation;animation-name:  SkSgogTL3bX_Hka17D3bm_Animation;-webkit-animation-timing-function:  cubic-bezier(0.42, 0, 0.58, 1);animation-timing-function:  cubic-bezier(0.42, 0, 0.58, 1);-webkit-transform-origin:  50% 50%;transform-origin:  50% 50%;transform-box:  fill-box;}#HkLlox6I3ZX_ByTcywnb7{-webkit-animation-name:  HkLlox6I3ZX_ByTcywnb7_Animation;animation-name:  HkLlox6I3ZX_ByTcywnb7_Animation;-webkit-animation-timing-function:  cubic-bezier(0.42, 0, 0.58, 1);animation-timing-function:  cubic-bezier(0.42, 0, 0.58, 1);-webkit-transform-origin:  50% 50%;transform-origin:  50% 50%;transform-box:  fill-box;}#ryOgjeaUh-m_ryeKlPhbm{-webkit-animation-name:  ryOgjeaUh-m_ryeKlPhbm_Animation;animation-name:  ryOgjeaUh-m_ryeKlPhbm_Animation;-webkit-animation-timing-function:  cubic-bezier(0.42, 0, 0.58, 1);animation-timing-function:  cubic-bezier(0.42, 0, 0.58, 1);-webkit-transform-origin:  50% 50%;transform-origin:  50% 50%;transform-box:  fill-box;}</style>
  <defs id="defs9077">
    <linearGradient gradientTransform="matrix(0.86729415,0,0,0.8570855,106.8653,70.894798)" gradientUnits="userSpaceOnUse" y2="241.03107" x2="317.05646" y1="272.61212" x1="152.67337" id="linearGradient8698" xlink:href="#linearGradient8684" inkscape:collect="always"/>
    <linearGradient id="linearGradient8684" inkscape:collect="always">
      <stop id="stop8686" offset="0" style="stop-color:#f7fbfb;stop-opacity:1"/>
      <stop id="stop8688" offset="1" style="stop-color:#dadede;stop-opacity:1"/>
    </linearGradient>
    <linearGradient gradientUnits="userSpaceOnUse" y2="514.50653" x2="390.33496" y1="400.46564" x1="332.11285" id="linearGradient9698" xlink:href="#linearGradient10077" inkscape:collect="always"/>
    <linearGradient id="linearGradient10077" inkscape:collect="always">
      <stop id="stop10079" offset="0" style="stop-color:#d28eca;stop-opacity:1"/>
      <stop id="stop10081" offset="1" style="stop-color:#9b7cc3;stop-opacity:1"/>
    </linearGradient>
    <linearGradient gradientUnits="userSpaceOnUse" y2="578.91931" x2="345.92807" y1="449.20227" x1="606.36859" id="linearGradient9684" xlink:href="#linearGradient10071" inkscape:collect="always" gradientTransform="matrix(-1,0,0,1,1035.3484,342.18589)"/>
    <linearGradient inkscape:collect="always" id="linearGradient10071">
      <stop style="stop-color:#e3c2bd;stop-opacity:1" offset="0" id="stop10073"/>
      <stop style="stop-color:#d28eca;stop-opacity:1" offset="1" id="stop10075"/>
    </linearGradient>
    <linearGradient gradientUnits="userSpaceOnUse" y2="463.64694" x2="849.24811" y1="463.64694" x1="630.16919" id="linearGradient9676" xlink:href="#linearGradient9670" inkscape:collect="always" gradientTransform="matrix(-1,0,0,1,1035.3484,342.18589)"/>
    <linearGradient id="linearGradient9670" inkscape:collect="always">
      <stop id="stop9672" offset="0" style="stop-color:#ffa7b6;stop-opacity:1;"/>
      <stop id="stop9674" offset="1" style="stop-color:#f96680;stop-opacity:1"/>
    </linearGradient>
    <linearGradient gradientUnits="userSpaceOnUse" y2="388.80344" x2="814.79871" y1="388.80344" x1="452.60999" id="linearGradient9668" xlink:href="#linearGradient10083" inkscape:collect="always" gradientTransform="matrix(-0.718511,0,0,0.718511,752.83104,614.76405)"/>
    <linearGradient id="linearGradient10083" inkscape:collect="always">
      <stop id="stop10085" offset="0" style="stop-color:#d28eca;stop-opacity:1"/>
      <stop id="stop10087" offset="1" style="stop-color:#656abb;stop-opacity:1"/>
    </linearGradient>
    <linearGradient gradientUnits="userSpaceOnUse" y2="510.94101" x2="1013.8034" y1="510.94101" x1="793.7135" id="linearGradient10103-0" xlink:href="#linearGradient10083" inkscape:collect="always" gradientTransform="matrix(-1,0,0,1,1041.3625,341.87865)"/>
    <linearGradient gradientUnits="userSpaceOnUse" y2="510.94101" x2="1013.8034" y1="510.94101" x1="793.7135" id="linearGradient10103" xlink:href="#linearGradient10097" inkscape:collect="always" gradientTransform="matrix(-1,0,0,1,1035.3484,342.18589)"/>
    <linearGradient id="linearGradient10097" inkscape:collect="always">
      <stop id="stop10099" offset="0" style="stop-color:#c0b9c0;stop-opacity:1;"/>
      <stop id="stop10101" offset="1" style="stop-color:#dca3ff;stop-opacity:1"/>
    </linearGradient>
    <linearGradient gradientTransform="matrix(-0.86729415,0,0,0.8570855,928.4831,413.08069)" gradientUnits="userSpaceOnUse" y2="258.07513" x2="435.00925" y1="248.86398" x1="314.66504" id="linearGradient8690" xlink:href="#linearGradient8684" inkscape:collect="always"/>
    <linearGradient gradientUnits="userSpaceOnUse" y2="451.06427" x2="691.39417" y1="415.25598" x1="678.67377" id="linearGradient10239" xlink:href="#linearGradient9670" inkscape:collect="always" gradientTransform="matrix(-1,0,0,1,1035.3484,342.18589)"/>
  </defs>
  <sodipodi:namedview id="HkgoxaI3Wm" pagecolor="#ffffff" bordercolor="#666666" borderopacity="1.0" inkscape:pageopacity="0.0" inkscape:pageshadow="2" inkscape:zoom="0.35" inkscape:cx="-77.238182" inkscape:cy="226.92869" inkscape:document-units="px" inkscape:current-layer="layer1" showgrid="false" inkscape:window-width="1366" inkscape:window-height="705" inkscape:window-x="0" inkscape:window-y="30" inkscape:window-maximized="1" units="px"/>
  <metadata id="metadata9080">
    <rdf:rdf>
      <cc:work rdf:about="">
        <dc:format>image/svg+xml</dc:format>
        <dc:type rdf:resource="http://purl.org/dc/dcmitype/StillImage"/>
        <dc:title/>
      </cc:work>
    </rdf:rdf>
  </metadata>
  <g inkscape:label="Layer 1" inkscape:groupmode="layer" id="H1ZixaLhZX">
    <g id="rJfie6I3Z7">
      <g id="rJmsxTUhbX_BkiBEwhbQ" data-animator-group="true" data-animator-type="0"><g id="rJmsxTUhbX_Bk14VDnW7" data-animator-group="true" data-animator-type="1"><g id="rJmsxTUhbX">
        <path d="m 332.6786,315.30146 c 4.02005,-7.08655 8.55984,-16.71935 -5.32475,-26.21554 -13.8846,-9.49619 -24.52671,-0.49922 -38.3151,-13.67502 -13.7884,-13.17581 -27.26282,-35.66757 -31.10786,-33.80593 -6.96769,3.37355 -8.40826,16.92604 5.88416,45.22392 14.29244,28.29788 27.26403,43.23039 37.44935,46.79159 10.18534,3.56121 23.85391,6.57651 26.92875,6.90896 -4.4307,-15.81358 0.29103,-17.83403 4.48545,-25.22798 z" id="SkNolTU2-Q" inkscape:connector-curvature="0" sodipodi:nodetypes="sssssscs"/>
        <path d="m 378.40656,542.96586 c -5.86892,-1.93328 -22.11268,-10.0182 -33.8505,-62.21664 -11.73781,-52.19844 -13.71689,-59.21891 -17.60672,-73.46447 -12.47143,-45.67364 -17.11765,-55.34002 -22.98656,-64.03976 -28.64918,-31.61178 -6.81132,-9.53256 25.1874,-4.59153 2.42816,0.37495 20.29664,26.09922 25.18739,33.83233 4.89076,7.73309 18.58489,22.23267 22.49749,30.9324 3.9126,8.69975 6.84705,26.09923 6.84705,26.09923 l 2.93445,24.16594 8.80337,43.4987 c 1.95631,9.66638 -2.48857,41.04776 -2.48857,41.04776 z" id="rkSsgp82b7" inkscape:connector-curvature="0" sodipodi:nodetypes="csscsssccscc"/>
      </g></g></g>
    </g>
    <g id="r1LoepLhZ7_Sy3fKD2WX" data-animator-group="true" data-animator-type="0"><g id="r1LoepLhZ7_r1iMYDhZ7" data-animator-group="true" data-animator-type="1"><g id="r1LoepLhZ7">
      <path sodipodi:nodetypes="cscscsccssssccscc" inkscape:connector-curvature="0" id="HkPie6LnZm" d="m 368.64986,800.37074 c 0,0 120.38444,-29.05956 170.77356,7.82315 43.37272,31.74698 74.3395,38.42384 74.3395,38.42384 0,0 -17.85126,-47.84857 -17.85126,-64.2814 l 0,-16.43285 c 0,0 7.82521,-46.39861 5.86891,-54.13171 -1.9563,-7.73311 4.40168,-32.14071 0.48908,-34.07398 14.88045,-113.72504 12.35103,-5.90988 26.89916,-8.45809 4.89076,14.49956 11.73781,31.89905 14.67226,61.86482 2.93446,29.96577 8.06975,33.59067 7.33614,67.66464 -0.3355,15.58304 9.0479,30.20743 11.98235,42.77372 2.93445,12.5663 8.06975,14.25791 1.2227,28.75748 -6.84707,14.49957 -1.95632,27.79084 -16.62857,30.69075 -35.28491,4.1609 -66.17271,0.0817 -105.64035,-0.72498 0,0 -82.1647,-9.66637 -95.85883,-10.63301 -13.69412,-0.96664 -80.67465,-16.53 -80.67465,-16.53 z"/>
      <path sodipodi:nodetypes="cccssccc" inkscape:connector-curvature="0" id="HydolpUn-Q" d="m 629.6943,672.7943 c -2.07497,-2.73407 0.9362,-13.42866 4.39449,-29.14954 7.32926,-42.84358 -21.5894,-98.30466 -24.20801,-60.83293 -0.69166,11.61977 -4.14995,23.23954 -8.2999,30.75822 -4.14994,7.51868 -11.06651,17.77143 -13.14149,21.189 -2.07497,3.41758 -8.29988,17.77142 -8.29988,17.77142 -5.84742,14.35005 24.83971,22.9948 23.25741,32.06245 z"/>
    </g></g></g>
    <path d="m 309.56919,928.36979 c -0.81036,-7.29316 -8.91387,-49.4314 -12.15527,-58.34526 -3.2414,-8.91386 -15.39666,-25.12087 -20.25877,-33.22438 -4.8621,-8.10351 -12.15526,-33.22438 -21.87947,-36.46578 -9.72421,-3.2414 -41.32789,1.6207 -50.24175,7.29315 -8.91385,5.67246 -16.20701,13.77596 -17.82771,26.74158 -1.6207,12.96561 -4.05175,35.65543 -4.05175,42.13823 0,6.48281 3.24139,22.68983 4.8621,27.55193 1.6207,4.86211 12.96561,17.01737 15.39667,20.25877 2.43104,3.24141 10.53455,5.67245 24.31052,9.72421 13.77596,4.05175 55.10385,1.6207 58.34525,1.6207 3.24141,0 23.50018,-7.29315 23.50018,-7.29315 z" id="HJKieTIhWm" inkscape:connector-curvature="0"/>
    <g id="BJ5ixaUhbm"/>
    <g id="rkjsx6I2-7_HkSOrv3ZQ" data-animator-group="true" data-animator-type="0"><g id="rkjsx6I2-7">
      <path d="m 704.88722,355.26316 c 0,6.203 0,25.37594 -12.96993,36.65414 -12.96992,11.27819 10.15038,8.45864 15.22557,7.89473 5.07519,-0.56391 31.01504,-4.51128 37.21804,-6.20301 6.20301,-1.69173 13.53384,2.81955 10.71429,-0.56391 -2.81955,-3.38345 -18.04511,-27.63158 -14.09775,-35.52632 3.94737,-7.89473 3.94737,-9.02255 3.94737,-9.02255 z" id="Hkhsxa8hWQ" inkscape:connector-curvature="0" sodipodi:nodetypes="cssssscc"/>
      <path d="m 676.9085,299.56948 c -2.13036,15.51686 -3.85268,25.12659 2.99208,24.61352 1.86204,-0.13957 1.23196,-4.33976 2.52338,0.32011 1.76173,6.35693 5.41732,20.45512 21.81184,32.00466 21.31788,15.01793 45.59492,-3.16947 51.85449,-10.67421 0,0 7.6703,-11.85134 9.09008,-23.53909 2.54183,-20.92458 1.31949,-27.56613 -2.06821,-43.12392 -2.99077,-13.73491 -18.859,-21.00149 -26.80642,-26.58391 -3.24044,-2.27616 -22.60496,1.32132 -22.60496,1.32132 0,0 -17.81987,17.63463 -22.76982,22.14591 -4.94996,4.51128 -12.32495,11.15146 -14.02246,23.51561 z" id="HkpilTU3bQ" inkscape:connector-curvature="0" sodipodi:nodetypes="sssssssscss"/>
      <path sodipodi:nodetypes="csssccsscsc" inkscape:connector-curvature="0" id="BJ0jgaI2WQ" d="m 322.5002,603.58088 c 0,0 -13.49737,-0.67207 -24.14853,5.73511 -10.63932,6.40006 -18.43167,19.87427 -19.8265,29.04029 -2.79121,18.34225 -0.61627,39.68217 3.52817,45.14707 4.82828,6.36661 10.96085,13.90919 12.8077,16.11458 -7.32266,-3.27351 -14.07412,-9.57473 -15.87168,-11.72986 0,0 -7.67006,-11.85131 -9.08984,-23.53906 -2.54183,-20.92458 -1.3213,-27.56526 2.0664,-43.12305 1.51301,-6.9484 6.32472,-12.23718 11.73633,-16.49414 5.81728,-0.21334 12.9016,-6.28225 21.13508,-6.51633 8.26183,-0.2349 17.66287,5.36539 17.66287,5.36539 z"/>
    </g></g>
    <g id="rJkxixa83Z7_B1zbGwhZQ" data-animator-group="true" data-animator-type="0"><g id="rJkxixa83Z7_HJwTWwnbX" data-animator-group="true" data-animator-type="1"><path d="m 277.07232,795.42251 c 9.4732,7.43094 7.41485,34.8363 27.90156,50.87978 45.89461,35.94082 -0.5488,62.28034 33.31892,74.60753 20.57118,5.7623 17.265,33.19021 25.08662,43.61755 7.78974,12.02493 25.79711,9.73101 33.19795,18.62985 2.4872,2.99065 4.36068,9.9119 7.90084,14.15558 3.54015,4.2437 15.56841,2.11526 19.81098,-3.54765 4.24257,-5.66291 3.23117,-7.50928 3.23117,-7.50928 0,0 -0.29763,13.87493 -3.83445,15.99953 -3.53683,2.1246 -12.12364,8.4988 -17.78471,7.7941 -18.91827,-2.7598 -25.18598,-17.72955 -45.48371,-10.62607 -11.32103,0.71347 -21.64553,2.89707 -33.67599,0.073 -12.03046,-2.82406 -23.09458,-10.72329 -23.80917,-24.16708 -0.71462,-13.4438 -7.80116,-26.07495 -9.92576,-29.61178 -2.12461,-3.53683 7.69897,-4.30185 -0.0963,-26.94045 -7.79528,-22.63874 -0.24215,-11.4024 -10.86299,-24.84102 -10.62083,-13.43862 -9.34163,-55.42913 -27.42201,-74.81991 -11.07832,-11.88122 -22.39926,-24.17478 -35.72658,-15.02787 -32.92437,19.56351 -4.71427,48.5723 -22.09479,60.21731 -17.8994,11.99265 15.60456,11.87116 0.56073,48.6846 -1.21553,18.63807 5.97636,16.51081 1.11425,28.66606 -4.8621,12.15527 -9.79748,10.92746 -16.35594,8.27086 -8.00223,-3.24139 -4.92418,-14.40299 -4.29985,-16.33024 0.60988,-1.88263 -0.044,4.12437 1.71349,7.45174 7.92652,15.00622 16.33179,-5.78077 11.34461,-11.44706 -2.53363,-4.0386 -9.55981,-8.9335 -13.14087,-14.7906 -6.84285,-11.19199 8.56199,-22.0553 2.45994,-31.43222 -9.80891,-15.07322 -8.45948,-16.66087 -6.46931,-27.46244 1.94239,-10.54223 -2.97702,-23.92176 -0.85981,-34.53669 4.15043,-21.12226 20.18528,-39.33696 37.91596,-42.25839 30.29087,-2.17607 42.12166,-2.22906 66.28524,16.30129 z" id="rJkxixa83Z7" inkscape:connector-curvature="0" sodipodi:nodetypes="csccssscsccsssssscscsssscsssccc"/></g></g>
    <g id="rJgxox6L3ZQ">
      <g id="rJbeoxTIhWQ_HyHPbv2-Q" data-animator-group="true" data-animator-type="0"><path d="m 405.17923,778.3701 c -19.73685,7.33082 -38.62782,2.53759 -45.39474,13.81579 -6.76692,11.2782 1.69173,12.40601 1.69173,18.04511 0,5.6391 19.86875,44.1482 15.37423,44.53667 -41.44635,9.19962 -55.08362,5.84372 -93.14244,15.74501 -7.89474,2.25564 -11.74361,-14.6444 -15.62869,-21.78926 -9.56643,-17.59313 -14.05525,-33.33346 -13.09016,-42.58349 1.73181,-16.5987 -18.4556,23.99308 -22.96688,28.50436 -4.51127,4.51128 -12.47442,41.69612 -19.24134,40.5683 -6.76692,-1.12782 -26.68066,-50.31993 -26.68066,-50.31993 0,0 14.20624,-5.09179 16.46187,-16.36998 17.3249,-25.53356 24.75727,-43.1466 32.70678,-53.10426 12.40601,-15.78948 12.07954,-18.46048 27.28849,-28.4975 4.79978,-3.16758 23.07294,2.38903 53.52407,2.38903 30.45112,0 35.57647,-5.86784 49.76918,-3.18996 7.4718,1.40978 15.22141,7.70124 21.5654,14.89109 9.34974,10.59636 17.76316,37.35902 17.76316,37.35902 z" id="rJbeoxTIhWQ" inkscape:connector-curvature="0" sodipodi:nodetypes="cssccsssscccssssc"/></g>
      <path sodipodi:nodetypes="csc" inkscape:connector-curvature="0" id="H1fgjlTI2bX" d="m 351.26493,762.35265 c 0,0 -4.3678,13.13589 -2.34384,21.92254 2.02399,8.78666 2.65891,8.72679 2.65891,8.72679"/>
    </g>
    <g id="H1mloeaUnWm">
      <g id="SyVgjg6I3bX_S1CgbD3Z7" data-animator-group="true" data-animator-type="0"><path sodipodi:nodetypes="csscccccsscc" inkscape:connector-curvature="0" id="SyVgjg6I3bX" d="m 399.31485,777.19391 c 0,0 10.48071,62.03007 16.11981,78.94736 5.63909,16.9173 -13.53384,40.58977 -22.5564,38.33413 -9.02255,-2.25564 -72.51078,10.16212 -77.02205,10.16212 -14.1941,0.22127 -50.7835,5.37241 -75.56391,6.76691 l -24.81203,-15.78947 c 0,0 15.78947,-12.40602 30.45112,-14.66166 116.82161,-42.70576 139.23049,-0.20756 114.80745,-63.33135 -2.25563,-4.51128 -10.99944,-23.72863 -8.422,-28.5576 3.01453,-5.64788 1.88523,-7.35917 8.65215,-7.35917 l 7.89473,0 c 20.21804,-0.88888 24.1673,-9.66009 30.45113,-4.51127 z"/></g>
      <g id="SkSgogTL3bX_Hka17D3bm" data-animator-group="true" data-animator-type="0"><path sodipodi:nodetypes="ccssccc" inkscape:connector-curvature="0" id="SkSgogTL3bX" d="m 221.82696,777.17402 27.4869,31.4391 c -6.05167,8.78536 -13.79346,22.40624 -16.43712,24.91211 -4.75938,4.51128 -13.15961,41.69614 -20.29878,40.56834 -7.13917,-1.1278 -28.14946,-50.32029 -28.14946,-50.32029 0,0 14.9889,-5.09095 17.36859,-16.36914 6.66589,-9.31197 15.60756,-23.01219 20.02987,-30.23012 z"/></g>
    </g>
    <g id="HkLlox6I3ZX_ByTcywnb7" data-animator-group="true" data-animator-type="0"><path d="m 199.88168,1007.0099 c 0,0 -2.29201,-8.59502 -22.92017,-8.02202 -20.62817,0.57301 -21.20117,16.04412 -23.49319,18.33612 -2.29202,2.292 28.07722,4.0111 34.38027,3.438 6.30306,-0.573 12.03309,-13.7521 12.03309,-13.7521 z" id="HkLlox6I3ZX" inkscape:connector-curvature="0"/></g>
    <path d="m 214.43396,938.13515 c 358.93139,215.52585 179.4657,107.76295 0,0 z" id="r1Dlse6U2Wm" inkscape:connector-curvature="0" sodipodi:nodetypes="cc"/>
    <g id="ryOgjeaUh-m_ryeKlPhbm" data-animator-group="true" data-animator-type="0"><g id="ryOgjeaUh-m">
      <path sodipodi:nodetypes="ccccc" inkscape:connector-curvature="0" id="SyFgsxTLhbX" d="M 247.64899,910.66692 77.32529,909.97822 27.5591,794.38155 207.16606,794.97243 Z"/>
      <path sodipodi:nodetypes="ccccc" inkscape:connector-curvature="0" id="rJ9gjxTUh-Q" d="M 241.6349,910.97416 71.3112,910.28546 21.545,794.68879 l 179.60697,0.59088 z"/>
      <path sodipodi:nodetypes="ccccc" inkscape:connector-curvature="0" id="HJjgilTLhZX" d="m 147.56507,866.56236 -15.57573,-4.83538 -8.89737,7.02894 0.15432,-27.12979 z"/>
    </g></g>
  </g>
<script>(function(){var a=document.querySelector('#SJjepIn-Q'),b=a.querySelectorAll('style'),c=function(d){b.forEach(function(f){var g=f.textContent;g&amp;&amp;(f.textContent=g.replace(/transform-box:[^;\r\n]*/gi,'transform-box: '+d))})};c('initial'),window.requestAnimationFrame(function(){return c('fill-box')})})();</script></svg>