<?xml version="1.0" standalone="no"?><!-- Generator: Gravit.io --><svg xmlns="http://www.w3.org/2000/svg" xmlns:xlink="http://www.w3.org/1999/xlink" style="isolation:isolate" viewBox="0 0 650 510" width="650" height="510"><defs><clipPath id="_clipPath_cqYXXBXdswSOQNhIjsU2z5vMpJh9HxMq"><rect width="650" height="510"/></clipPath></defs><g clip-path="url(#_clipPath_cqYXXBXdswSOQNhIjsU2z5vMpJh9HxMq)"><g><g><linearGradient id="_lgradient_0" x1="0" y1="0.5" x2="1.0000000000000002" y2="0.4999999999999998" gradientTransform="matrix(609.146,0,0,483.977,20.427,5.534)" gradientUnits="userSpaceOnUse"><stop offset="0%" stop-opacity="1" style="stop-color:rgb(92,111,246)"/><stop offset="100%" stop-opacity="1" style="stop-color:rgb(128,52,199)"/></linearGradient><path d=" M 22.509 156.334 C 6.759 302.584 83.259 329.584 155.259 349.834 C 227.259 370.084 297.009 340.834 333.009 428.584 C 369.009 516.334 497.259 505.084 569.259 421.834 C 641.259 338.584 670.034 62.15 533.259 19.084 C 396.484 -23.982 342.009 50.584 252.009 37.084 C 162.009 23.584 38.259 10.084 22.509 156.334 Z " fill="url(#_lgradient_0)"/><g><g style="opacity:0.53;"><path d=" M 510.509 358.584 C 510.509 355.273 513.197 352.584 516.509 352.584 C 519.82 352.584 522.509 355.273 522.509 358.584 C 522.509 361.896 519.82 364.584 516.509 364.584 C 513.197 364.584 510.509 361.896 510.509 358.584 Z " fill="rgb(235,235,235)" fill-opacity="0.44"/><path d=" M 510.509 378.584 C 510.509 375.273 513.197 372.584 516.509 372.584 C 519.82 372.584 522.509 375.273 522.509 378.584 C 522.509 381.896 519.82 384.584 516.509 384.584 C 513.197 384.584 510.509 381.896 510.509 378.584 Z " fill="rgb(235,235,235)" fill-opacity="0.44"/><path d=" M 510.509 398.584 C 510.509 395.273 513.197 392.584 516.509 392.584 C 519.82 392.584 522.509 395.273 522.509 398.584 C 522.509 401.896 519.82 404.584 516.509 404.584 C 513.197 404.584 510.509 401.896 510.509 398.584 Z " fill="rgb(235,235,235)" fill-opacity="0.44"/><path d=" M 510.509 418.584 C 510.509 415.273 513.197 412.584 516.509 412.584 C 519.82 412.584 522.509 415.273 522.509 418.584 C 522.509 421.896 519.82 424.584 516.509 424.584 C 513.197 424.584 510.509 421.896 510.509 418.584 Z " fill="rgb(235,235,235)" fill-opacity="0.44"/><path d=" M 510.509 438.584 C 510.509 435.273 513.197 432.584 516.509 432.584 C 519.82 432.584 522.509 435.273 522.509 438.584 C 522.509 441.896 519.82 444.584 516.509 444.584 C 513.197 444.584 510.509 441.896 510.509 438.584 Z " fill="rgb(235,235,235)" fill-opacity="0.44"/><path d=" M 530.509 358.584 C 530.509 355.273 533.197 352.584 536.509 352.584 C 539.82 352.584 542.509 355.273 542.509 358.584 C 542.509 361.896 539.82 364.584 536.509 364.584 C 533.197 364.584 530.509 361.896 530.509 358.584 Z " fill="rgb(235,235,235)" fill-opacity="0.44"/><path d=" M 530.509 378.584 C 530.509 375.273 533.197 372.584 536.509 372.584 C 539.82 372.584 542.509 375.273 542.509 378.584 C 542.509 381.896 539.82 384.584 536.509 384.584 C 533.197 384.584 530.509 381.896 530.509 378.584 Z " fill="rgb(235,235,235)" fill-opacity="0.44"/><path d=" M 530.509 398.584 C 530.509 395.273 533.197 392.584 536.509 392.584 C 539.82 392.584 542.509 395.273 542.509 398.584 C 542.509 401.896 539.82 404.584 536.509 404.584 C 533.197 404.584 530.509 401.896 530.509 398.584 Z " fill="rgb(235,235,235)" fill-opacity="0.44"/><path d=" M 530.509 418.584 C 530.509 415.273 533.197 412.584 536.509 412.584 C 539.82 412.584 542.509 415.273 542.509 418.584 C 542.509 421.896 539.82 424.584 536.509 424.584 C 533.197 424.584 530.509 421.896 530.509 418.584 Z " fill="rgb(235,235,235)" fill-opacity="0.44"/><path d=" M 530.509 438.584 C 530.509 435.273 533.197 432.584 536.509 432.584 C 539.82 432.584 542.509 435.273 542.509 438.584 C 542.509 441.896 539.82 444.584 536.509 444.584 C 533.197 444.584 530.509 441.896 530.509 438.584 Z " fill="rgb(235,235,235)" fill-opacity="0.44"/><path d=" M 550.509 358.584 C 550.509 355.273 553.197 352.584 556.509 352.584 C 559.82 352.584 562.509 355.273 562.509 358.584 C 562.509 361.896 559.82 364.584 556.509 364.584 C 553.197 364.584 550.509 361.896 550.509 358.584 Z " fill="rgb(235,235,235)" fill-opacity="0.44"/><path d=" M 550.509 378.584 C 550.509 375.273 553.197 372.584 556.509 372.584 C 559.82 372.584 562.509 375.273 562.509 378.584 C 562.509 381.896 559.82 384.584 556.509 384.584 C 553.197 384.584 550.509 381.896 550.509 378.584 Z " fill="rgb(235,235,235)" fill-opacity="0.44"/><path d=" M 550.509 398.584 C 550.509 395.273 553.197 392.584 556.509 392.584 C 559.82 392.584 562.509 395.273 562.509 398.584 C 562.509 401.896 559.82 404.584 556.509 404.584 C 553.197 404.584 550.509 401.896 550.509 398.584 Z " fill="rgb(235,235,235)" fill-opacity="0.44"/><path d=" M 550.509 418.584 C 550.509 415.273 553.197 412.584 556.509 412.584 C 559.82 412.584 562.509 415.273 562.509 418.584 C 562.509 421.896 559.82 424.584 556.509 424.584 C 553.197 424.584 550.509 421.896 550.509 418.584 Z " fill="rgb(235,235,235)" fill-opacity="0.44"/><path d=" M 550.509 438.584 C 550.509 435.273 553.197 432.584 556.509 432.584 C 559.82 432.584 562.509 435.273 562.509 438.584 C 562.509 441.896 559.82 444.584 556.509 444.584 C 553.197 444.584 550.509 441.896 550.509 438.584 Z " fill="rgb(235,235,235)" fill-opacity="0.44"/><path d=" M 570.509 358.584 C 570.509 355.273 573.197 352.584 576.509 352.584 C 579.82 352.584 582.509 355.273 582.509 358.584 C 582.509 361.896 579.82 364.584 576.509 364.584 C 573.197 364.584 570.509 361.896 570.509 358.584 Z " fill="rgb(235,235,235)" fill-opacity="0.44"/><path d=" M 570.509 378.584 C 570.509 375.273 573.197 372.584 576.509 372.584 C 579.82 372.584 582.509 375.273 582.509 378.584 C 582.509 381.896 579.82 384.584 576.509 384.584 C 573.197 384.584 570.509 381.896 570.509 378.584 Z " fill="rgb(235,235,235)" fill-opacity="0.44"/><path d=" M 570.509 398.584 C 570.509 395.273 573.197 392.584 576.509 392.584 C 579.82 392.584 582.509 395.273 582.509 398.584 C 582.509 401.896 579.82 404.584 576.509 404.584 C 573.197 404.584 570.509 401.896 570.509 398.584 Z " fill="rgb(235,235,235)" fill-opacity="0.44"/><path d=" M 570.509 418.584 C 570.509 415.273 573.197 412.584 576.509 412.584 C 579.82 412.584 582.509 415.273 582.509 418.584 C 582.509 421.896 579.82 424.584 576.509 424.584 C 573.197 424.584 570.509 421.896 570.509 418.584 Z " fill="rgb(235,235,235)" fill-opacity="0.44"/><path d=" M 570.509 438.584 C 570.509 435.273 573.197 432.584 576.509 432.584 C 579.82 432.584 582.509 435.273 582.509 438.584 C 582.509 441.896 579.82 444.584 576.509 444.584 C 573.197 444.584 570.509 441.896 570.509 438.584 Z " fill="rgb(235,235,235)" fill-opacity="0.44"/><path d=" M 590.509 358.584 C 590.509 355.273 593.197 352.584 596.509 352.584 C 599.82 352.584 602.509 355.273 602.509 358.584 C 602.509 361.896 599.82 364.584 596.509 364.584 C 593.197 364.584 590.509 361.896 590.509 358.584 Z " fill="rgb(235,235,235)" fill-opacity="0.44"/><path d=" M 590.509 378.584 C 590.509 375.273 593.197 372.584 596.509 372.584 C 599.82 372.584 602.509 375.273 602.509 378.584 C 602.509 381.896 599.82 384.584 596.509 384.584 C 593.197 384.584 590.509 381.896 590.509 378.584 Z " fill="rgb(235,235,235)" fill-opacity="0.44"/><path d=" M 590.509 398.584 C 590.509 395.273 593.197 392.584 596.509 392.584 C 599.82 392.584 602.509 395.273 602.509 398.584 C 602.509 401.896 599.82 404.584 596.509 404.584 C 593.197 404.584 590.509 401.896 590.509 398.584 Z " fill="rgb(235,235,235)" fill-opacity="0.44"/><path d=" M 590.509 418.584 C 590.509 415.273 593.197 412.584 596.509 412.584 C 599.82 412.584 602.509 415.273 602.509 418.584 C 602.509 421.896 599.82 424.584 596.509 424.584 C 593.197 424.584 590.509 421.896 590.509 418.584 Z " fill="rgb(235,235,235)" fill-opacity="0.44"/><path d=" M 590.509 438.584 C 590.509 435.273 593.197 432.584 596.509 432.584 C 599.82 432.584 602.509 435.273 602.509 438.584 C 602.509 441.896 599.82 444.584 596.509 444.584 C 593.197 444.584 590.509 441.896 590.509 438.584 Z " fill="rgb(235,235,235)" fill-opacity="0.44"/><path d=" M 610.509 358.584 C 610.509 355.273 613.197 352.584 616.509 352.584 C 619.82 352.584 622.509 355.273 622.509 358.584 C 622.509 361.896 619.82 364.584 616.509 364.584 C 613.197 364.584 610.509 361.896 610.509 358.584 Z " fill="rgb(235,235,235)" fill-opacity="0.44"/><path d=" M 610.509 378.584 C 610.509 375.273 613.197 372.584 616.509 372.584 C 619.82 372.584 622.509 375.273 622.509 378.584 C 622.509 381.896 619.82 384.584 616.509 384.584 C 613.197 384.584 610.509 381.896 610.509 378.584 Z " fill="rgb(235,235,235)" fill-opacity="0.44"/><path d=" M 610.509 398.584 C 610.509 395.273 613.197 392.584 616.509 392.584 C 619.82 392.584 622.509 395.273 622.509 398.584 C 622.509 401.896 619.82 404.584 616.509 404.584 C 613.197 404.584 610.509 401.896 610.509 398.584 Z " fill="rgb(235,235,235)" fill-opacity="0.44"/><path d=" M 610.509 418.584 C 610.509 415.273 613.197 412.584 616.509 412.584 C 619.82 412.584 622.509 415.273 622.509 418.584 C 622.509 421.896 619.82 424.584 616.509 424.584 C 613.197 424.584 610.509 421.896 610.509 418.584 Z " fill="rgb(235,235,235)" fill-opacity="0.44"/><path d=" M 610.509 438.584 C 610.509 435.273 613.197 432.584 616.509 432.584 C 619.82 432.584 622.509 435.273 622.509 438.584 C 622.509 441.896 619.82 444.584 616.509 444.584 C 613.197 444.584 610.509 441.896 610.509 438.584 Z " fill="rgb(235,235,235)" fill-opacity="0.44"/></g></g><g style="opacity:0.52;"><path d=" M 142.653 266.671 L 152.903 256.521 L 154.053 257.671 L 154.053 257.671 Q 154.603 258.221 154.578 258.596 L 154.578 258.596 L 154.578 258.596 Q 154.553 258.971 154.003 259.521 L 154.003 259.521 L 145.903 267.571 L 154.003 275.621 L 154.003 275.621 Q 154.553 276.171 154.578 276.546 L 154.578 276.546 L 154.578 276.546 Q 154.603 276.921 154.053 277.471 L 154.053 277.471 L 152.903 278.621 L 142.653 268.471 L 142.653 268.471 Q 141.703 267.571 142.653 266.671 L 142.653 266.671 Z " fill="rgb(255,255,255)"/><path d=" M 516.702 80.668 L 526.952 70.518 L 528.102 71.668 L 528.102 71.668 Q 528.652 72.218 528.627 72.593 L 528.627 72.593 L 528.627 72.593 Q 528.602 72.968 528.052 73.518 L 528.052 73.518 L 519.952 81.568 L 528.052 89.618 L 528.052 89.618 Q 528.602 90.168 528.627 90.543 L 528.627 90.543 L 528.627 90.543 Q 528.652 90.918 528.102 91.468 L 528.102 91.468 L 526.952 92.618 L 516.702 82.468 L 516.702 82.468 Q 515.752 81.568 516.702 80.668 L 516.702 80.668 Z " fill="rgb(255,255,255)"/></g><g><path d=" M 125.858 145.33 L 139.442 158.914 L 152.989 145.367 L 166.339 158.717 L 179.666 145.367 L 192.992 158.717 L 206.342 145.367 L 219.693 158.717" fill="none" vector-effect="non-scaling-stroke" stroke-width="5" stroke="rgb(255,255,255)" stroke-opacity="0.65" stroke-linejoin="round" stroke-linecap="round" stroke-miterlimit="3"/></g><g><path d=" M 462.82 422.565 L 475.612 424.577 L 482.618 425.678 Q 484.627 430.649 487.225 431.66 C 494.158 434.359 494.043 417.184 490.815 417.612 Q 482.704 418.686 465.115 413.438 L 462.82 422.565 Z " fill="rgb(251,125,196)"/><path d=" M 483.238 459.814 L 492.679 444.396 L 497.828 418.837 Q 489.937 412.655 485.983 416.993 C 485.693 419.601 485.185 426.247 482.002 429.847 C 479.937 432.184 482.157 436.581 481.667 439.169 C 480.436 445.672 475.775 448.568 478.018 454.295 Q 480.26 460.022 483.238 459.814 Z " fill="rgb(247,247,247)"/><path d=" M 495.589 444.025 L 501.708 418.842 L 496.188 418.406 L 491.609 443.697 L 483.053 459.743 L 487.388 461.197 L 495.589 444.025 Z " fill="rgb(234,234,234)"/><path d=" M 480.435 432.135 Q 475.667 433.254 474.594 435.316 C 473.52 437.378 477.394 436.583 478.407 435.924 Q 479.419 435.265 480.435 432.135 Z " fill="none" vector-effect="non-scaling-stroke" stroke-width="1" stroke="rgb(36,165,219)" stroke-linejoin="miter" stroke-linecap="square" stroke-miterlimit="3"/><path d=" M 481.112 431.91 Q 492.788 436.045 494.72 432.335 C 495.686 430.48 488.816 430.057 487.905 430.65 Q 486.083 431.835 481.112 431.91 Z " fill="none" vector-effect="non-scaling-stroke" stroke-width="1" stroke="rgb(36,165,219)" stroke-linejoin="miter" stroke-linecap="square" stroke-miterlimit="3"/><path d=" M 491.391 435.558 Q 486.312 439.232 484.006 436.631 Q 481.701 434.031 481.025 432.036" fill="none" vector-effect="non-scaling-stroke" stroke-width="1" stroke="rgb(36,165,219)" stroke-linejoin="miter" stroke-linecap="square" stroke-miterlimit="3"/><path d=" M 478.019 441.989 Q 477.391 439.081 478.661 437.227 Q 479.931 435.373 481.098 432.426" fill="none" vector-effect="non-scaling-stroke" stroke-width="1" stroke="rgb(36,165,219)" stroke-linejoin="miter" stroke-linecap="square" stroke-miterlimit="3"/><path d=" M 482.468 446.881 Q 479.309 445.625 477.811 445.841" fill="none" vector-effect="non-scaling-stroke" stroke-width="1" stroke="rgb(36,165,219)" stroke-linejoin="round" stroke-linecap="round" stroke-miterlimit="3"/><path d=" M 483.495 443.042 Q 480.335 441.786 478.837 442.003" fill="none" vector-effect="non-scaling-stroke" stroke-width="1" stroke="rgb(36,165,219)" stroke-linejoin="round" stroke-linecap="round" stroke-miterlimit="3"/><path d=" M 484.521 439.204 Q 481.361 437.948 479.864 438.165" fill="none" vector-effect="non-scaling-stroke" stroke-width="1" stroke="rgb(36,165,219)" stroke-linejoin="round" stroke-linecap="round" stroke-miterlimit="3"/><path d=" M 405.027 185.246 Q 407.525 189.741 400.033 199.73 Q 392.541 209.719 407.025 216.711 L 420.51 219.708 Q 412.519 199.23 416.015 189.241 Q 419.511 179.252 405.027 185.246 Z " fill="rgb(251,200,229)"/><path d=" M 218.271 106.831 L 174.618 60.559 L 210.414 76.274 L 218.271 106.831 Z " fill="rgb(251,251,251)"/><path d=" M 174.57 60.601 L 232.132 50.955 L 211.539 64.869 L 174.57 60.601 Z " fill="rgb(251,251,251)"/><path d=" M 174.004 59.899 L 210.409 77.27 L 211.674 64.548 L 174.004 59.899 Z " fill="rgb(195,195,195)"/><path d=" M 421.882 486.12 Q 377.811 503.692 342.623 499.152 C 307.434 494.611 154.193 519.584 171.219 488.936 C 188.246 458.288 210.949 456.017 239.327 462.828 C 267.705 469.639 308.569 483.26 333.542 466.233 Q 358.514 449.207 421.882 486.12 Z " fill="rgb(170,170,170)" fill-opacity="0.69"/><path d=" M 408.602 451.08 L 408.414 471.12 Q 403.791 473.834 403.17 476.552 C 401.513 483.805 418.486 481.181 417.592 478.05 Q 415.344 470.184 417.966 452.016 L 408.602 451.08 Z " fill="rgb(251,125,196)"/><path d=" M 376.352 483.763 L 417.669 484.989 Q 422.151 475.811 417.333 472.58 C 414.805 472.764 408.402 473.469 404.421 470.889 C 401.838 469.215 398.052 472.286 395.508 472.263 C 389.114 472.206 382.909 471.763 377.864 475.102 Q 372.82 478.441 376.352 483.763 Z " fill="rgb(247,247,247)"/><path d=" M 418.348 488.944 L 417.79 483.238 L 375.971 483.221 L 374.983 488.689 L 418.348 488.944 Z " fill="rgb(234,234,234)"/><path d=" M 443.372 316.12 Q 442.454 330.906 456.543 335.088 Q 470.632 339.27 466.176 339.866 Q 470.853 332.243 458.649 326.563 Q 446.445 320.882 443.372 316.12 Z " fill="rgb(251,200,229)"/><path d=" M 428.313 306.329 L 445.34 330.166 L 453.002 325.91 L 428.313 259.505 L 428.313 306.329 Z " fill="rgb(236,235,235)"/><path d=" M 357.517 179.596 Q 340.593 162.634 314.396 123.825 Q 332.999 173.444 347.965 197.857 C 350.815 202.507 354.497 207.986 359.009 214.293 Q 365.777 223.755 375.037 235.702 L 394.369 209.323 Q 369.852 191.959 357.517 179.596 Z " fill="rgb(255,255,255)"/><path d=" M 396.658 153.607 Q 388.908 160.15 390.596 162.463 Q 391.303 163.431 393.702 163.732" fill="rgb(191,122,161)"/><path d=" M 334.339 173.134 L 346.981 197.154 L 376.419 238.68 L 377.508 225.01 L 352.429 185.025 L 314.659 124.807 L 334.339 173.134 Z " fill="rgb(238,238,238)"/><path d=" M 300.642 113.353 Q 299.724 128.139 313.813 132.321 Q 327.902 136.503 323.446 137.099 Q 328.123 129.476 315.919 123.796 Q 303.715 118.116 300.642 113.353 Z " fill="rgb(251,200,229)"/><path d=" M 436.024 172.727 C 431.89 183.729 421.283 190.539 410.721 188.319 C 398.906 185.835 391.591 172.986 394.396 159.643 C 397.201 146.301 409.07 137.486 420.885 139.969 L 436.024 172.727 Z " fill="rgb(251,200,229)"/><path d=" M 383.442 395.765 C 381.749 390.247 379.185 364.02 375.748 317.085 Q 375.071 307.838 374.349 297.52 L 432.513 309.235 L 417.904 458.696 L 407.79 454.763 L 406.947 328.901 L 401.047 327.777 L 400.173 338.638 L 396.452 384.868 L 396.178 388.273 L 468.957 413.995 L 467.459 425.483 Q 385.134 401.284 383.442 395.765 Z " fill="rgb(36,165,219)"/><path d=" M 402.333 469.097 Q 402.191 464.883 399.883 465.163 C 397.574 465.442 398.182 467.215 399.298 467.678 Q 400.414 468.141 402.333 469.097 Z " fill="none" vector-effect="non-scaling-stroke" stroke-width="1" stroke="rgb(36,165,219)" stroke-linejoin="miter" stroke-linecap="square" stroke-miterlimit="3"/><path d=" M 402.901 469.529 Q 401.405 477.897 405.558 477.394 C 409.711 476.892 409.673 473.452 407.665 472.618 Q 405.657 471.785 402.901 469.529 Z " fill="none" vector-effect="non-scaling-stroke" stroke-width="1" stroke="rgb(36,165,219)" stroke-linejoin="miter" stroke-linecap="square" stroke-miterlimit="3"/><path d=" M 400.782 479.361 Q 399.799 477.956 400.641 474.585 Q 401.484 471.214 402.749 469.528" fill="none" vector-effect="non-scaling-stroke" stroke-width="1" stroke="rgb(36,165,219)" stroke-linejoin="miter" stroke-linecap="square" stroke-miterlimit="3"/><path d=" M 393.337 464.19 Q 394.882 470.511 397.13 470.511 Q 399.377 470.511 402.468 469.809" fill="none" vector-effect="non-scaling-stroke" stroke-width="1" stroke="rgb(36,165,219)" stroke-linejoin="miter" stroke-linecap="square" stroke-miterlimit="3"/><g><path d=" M 279.796 472.07 Q 247.586 481 230.928 478.85 C 214.27 476.701 142.235 488.191 150.295 473.682 C 158.355 459.174 193.43 463.779 206.864 467.003 C 220.298 470.227 259.459 472.102 271.281 464.042 Q 283.103 455.981 279.796 472.07 Z " fill="rgb(147,147,147)" fill-opacity="0.69"/><path d=" M 256.843 417.765 L 273.132 449.603 L 274.613 468.854 L 280.166 466.263 L 279.796 447.382 L 263.507 411.842 L 256.843 417.765 Z " fill="rgb(215,175,199)"/><path d=" M 260.545 350.756 Q 266.098 331.876 269.06 335.578 Q 272.021 339.28 276.464 351.867 L 260.545 350.756 Z " fill="rgb(215,175,199)"/><path d=" M 205.383 428.131 L 208.345 469.965 L 201.311 470.705 L 197.979 421.097 L 205.383 428.131 Z " fill="rgb(215,175,199)"/><path d=" M 196.128 387.408 Q 200.462 377.557 209.085 392.22 Q 212.047 370.748 197.238 371.488 C 184.816 372.11 172.767 385.407 176.506 400.365 Q 180.246 415.323 190.287 422.948 L 193.166 445.901 L 188.723 471.816 L 196.498 472.186 L 211.677 428.501 L 256.521 433.179 L 257.748 476.259 L 262.026 476.259 L 269.594 429.201 L 274.037 392.755 Q 278.168 375.462 282.758 367.046 C 285.98 361.137 292.753 353.718 293.864 351.497 Q 296.205 346.814 275.724 349.646 Q 267.579 344.833 256.843 348.535 C 246.106 352.237 242.002 349.907 237.592 351.867 C 233.181 353.827 233.528 358.476 233.149 362.603 C 232.342 371.389 243.127 379.904 245.366 382.595 C 247.605 385.285 243.515 398.144 233.519 398.144 C 223.524 398.144 192.055 396.663 196.128 387.408 Z " fill="rgb(255,209,237)"/><path d=" M 241.201 350.942 L 249.438 350.571 Q 245.181 355.014 249.624 359.086 C 254.066 363.159 259.064 360.382 265.543 359.827 C 272.021 359.271 271.096 366.861 274.983 368.712 Q 278.87 370.563 280.907 371.118 Q 275.538 380.744 274.798 386.482 Q 274.058 392.22 269.245 432.944 Q 259.571 432.232 254.621 430.537 C 249.672 428.843 230.064 400.365 237.592 397.218 C 245.119 394.071 246.292 385.371 245.921 383.891 C 245.551 382.41 238.425 375.191 234.815 369.452 Q 231.205 363.714 235 351.96 L 241.201 350.942 Z " fill="rgb(255,255,255)" fill-opacity="0.59"/><circle vector-effect="non-scaling-stroke" cx="0" cy="0" r="1" transform="matrix(4.304,0,0,4.304,235.023,352.122)" fill="rgb(229,48,188)"/><path d=" M 186.009 375.561 Q 176.383 388.148 182.553 396.539 Q 188.723 404.931 188.723 404.931 Q 195.634 411.595 193.66 418.012 Q 191.685 424.429 190.204 423.688 Q 183.402 416.469 181.088 412.489 C 179.443 409.66 176.553 403.234 175.859 397.264 C 175.037 390.198 177.525 385.294 179.838 381.978 Q 182.152 378.661 186.009 375.561 Z " fill="rgb(215,175,199)"/></g><path d=" M 386.33 476.389 Q 385.934 473.012 385.033 471.797" fill="none" vector-effect="non-scaling-stroke" stroke-width="1" stroke="rgb(36,165,219)" stroke-linejoin="round" stroke-linecap="round" stroke-miterlimit="3"/><path d=" M 390.825 475.547 Q 390.429 472.169 389.528 470.955" fill="none" vector-effect="non-scaling-stroke" stroke-width="1" stroke="rgb(36,165,219)" stroke-linejoin="round" stroke-linecap="round" stroke-miterlimit="3"/><path d=" M 395.071 475.631 Q 394.42 472.294 393.429 471.151" fill="none" vector-effect="non-scaling-stroke" stroke-width="1" stroke="rgb(36,165,219)" stroke-linejoin="round" stroke-linecap="round" stroke-miterlimit="3"/><path d=" M 374.561 297.123 Q 377.058 276.146 376.059 232.194 Q 385.049 202.976 383.083 200.385 Q 400.253 199.893 410.367 212.817 C 418.045 215.216 421.086 216.019 423.533 219.635 C 429.721 228.775 429.336 252.603 430.999 270.652 Q 432.627 288.323 432.997 321.097 L 374.561 297.123 Z " fill="rgb(255,255,255)"/></g></g><path d=" M 405.033 143.65 Q 421.473 152.787 427.533 189.15 Q 433.594 225.514 497.033 265.15 Q 464.958 218.552 467.033 193.65 C 468.533 175.65 457.033 139.65 437.533 134.65 Q 408.692 127.255 405.033 143.65 Z " fill="rgb(24,7,55)"/></g></g></svg>