<?xml version="1.0" standalone="no"?><!-- Generator: Gravit.io --><svg xmlns="http://www.w3.org/2000/svg" xmlns:xlink="http://www.w3.org/1999/xlink" style="isolation:isolate" viewBox="0 0 607.671 490.142" width="607.671" height="490.142"><defs><clipPath id="_clipPath_xmCI1Utc1yAcnVFwCkJDbDZ3NJAPm2OQ"><rect width="607.671" height="490.142"/></clipPath></defs><g clip-path="url(#_clipPath_xmCI1Utc1yAcnVFwCkJDbDZ3NJAPm2OQ)"><g><linearGradient id="_lgradient_0" x1="6.605765562328614e-7" y1="0.5000014034174143" x2="1.0000008411963255" y2="0.5000014034174143" gradientTransform="matrix(607.671,0,0,475.188,0,0)" gradientUnits="userSpaceOnUse"><stop offset="0%" stop-opacity="1" style="stop-color:rgb(92,111,246)"/><stop offset="100%" stop-opacity="1" style="stop-color:rgb(128,52,199)"/></linearGradient><path d=" M 2.081 142.01 C -13.669 288.26 62.831 315.26 134.831 335.51 C 206.831 355.76 276.581 326.51 312.581 414.26 C 348.581 502.01 476.831 490.76 548.831 407.51 C 620.831 324.26 645.581 25.01 512.831 4.76 C 380.081 -15.49 321.581 36.26 231.581 22.76 C 141.581 9.26 17.831 -4.24 2.081 142.01 Z " fill="url(#_lgradient_0)"/><g style="opacity:0.53;"><g opacity="0.53"><circle vector-effect="non-scaling-stroke" cx="0" cy="0" r="1" transform="matrix(6,0,0,6,496.081,344.26)" fill="rgb(235,235,235)" fill-opacity="0.44"/></g><g opacity="0.53"><circle vector-effect="non-scaling-stroke" cx="0" cy="0" r="1" transform="matrix(6,0,0,6,496.081,364.26)" fill="rgb(235,235,235)" fill-opacity="0.44"/></g><g opacity="0.53"><circle vector-effect="non-scaling-stroke" cx="0" cy="0" r="1" transform="matrix(6,0,0,6,496.081,384.26)" fill="rgb(235,235,235)" fill-opacity="0.44"/></g><g opacity="0.53"><circle vector-effect="non-scaling-stroke" cx="0" cy="0" r="1" transform="matrix(6,0,0,6,496.081,404.26)" fill="rgb(235,235,235)" fill-opacity="0.44"/></g><g opacity="0.53"><circle vector-effect="non-scaling-stroke" cx="0" cy="0" r="1" transform="matrix(6,0,0,6,496.081,424.26)" fill="rgb(235,235,235)" fill-opacity="0.44"/></g><g opacity="0.53"><circle vector-effect="non-scaling-stroke" cx="0" cy="0" r="1" transform="matrix(6,0,0,6,516.081,344.26)" fill="rgb(235,235,235)" fill-opacity="0.44"/></g><g opacity="0.53"><circle vector-effect="non-scaling-stroke" cx="0" cy="0" r="1" transform="matrix(6,0,0,6,516.081,364.26)" fill="rgb(235,235,235)" fill-opacity="0.44"/></g><g opacity="0.53"><circle vector-effect="non-scaling-stroke" cx="0" cy="0" r="1" transform="matrix(6,0,0,6,516.081,384.26)" fill="rgb(235,235,235)" fill-opacity="0.44"/></g><g opacity="0.53"><circle vector-effect="non-scaling-stroke" cx="0" cy="0" r="1" transform="matrix(6,0,0,6,516.081,404.26)" fill="rgb(235,235,235)" fill-opacity="0.44"/></g><g opacity="0.53"><circle vector-effect="non-scaling-stroke" cx="0" cy="0" r="1" transform="matrix(6,0,0,6,516.081,424.26)" fill="rgb(235,235,235)" fill-opacity="0.44"/></g><g opacity="0.53"><circle vector-effect="non-scaling-stroke" cx="0" cy="0" r="1" transform="matrix(6,0,0,6,536.081,344.26)" fill="rgb(235,235,235)" fill-opacity="0.44"/></g><g opacity="0.53"><circle vector-effect="non-scaling-stroke" cx="0" cy="0" r="1" transform="matrix(6,0,0,6,536.081,364.26)" fill="rgb(235,235,235)" fill-opacity="0.44"/></g><g opacity="0.53"><circle vector-effect="non-scaling-stroke" cx="0" cy="0" r="1" transform="matrix(6,0,0,6,536.081,384.26)" fill="rgb(235,235,235)" fill-opacity="0.44"/></g><g opacity="0.53"><circle vector-effect="non-scaling-stroke" cx="0" cy="0" r="1" transform="matrix(6,0,0,6,536.081,404.26)" fill="rgb(235,235,235)" fill-opacity="0.44"/></g><g opacity="0.53"><circle vector-effect="non-scaling-stroke" cx="0" cy="0" r="1" transform="matrix(6,0,0,6,536.081,424.26)" fill="rgb(235,235,235)" fill-opacity="0.44"/></g><g opacity="0.53"><circle vector-effect="non-scaling-stroke" cx="0" cy="0" r="1" transform="matrix(6,0,0,6,556.081,344.26)" fill="rgb(235,235,235)" fill-opacity="0.44"/></g><g opacity="0.53"><circle vector-effect="non-scaling-stroke" cx="0" cy="0" r="1" transform="matrix(6,0,0,6,556.081,364.26)" fill="rgb(235,235,235)" fill-opacity="0.44"/></g><g opacity="0.53"><circle vector-effect="non-scaling-stroke" cx="0" cy="0" r="1" transform="matrix(6,0,0,6,556.081,384.26)" fill="rgb(235,235,235)" fill-opacity="0.44"/></g><g opacity="0.53"><circle vector-effect="non-scaling-stroke" cx="0" cy="0" r="1" transform="matrix(6,0,0,6,556.081,404.26)" fill="rgb(235,235,235)" fill-opacity="0.44"/></g><g opacity="0.53"><circle vector-effect="non-scaling-stroke" cx="0" cy="0" r="1" transform="matrix(6,0,0,6,556.081,424.26)" fill="rgb(235,235,235)" fill-opacity="0.44"/></g><g opacity="0.53"><circle vector-effect="non-scaling-stroke" cx="0" cy="0" r="1" transform="matrix(6,0,0,6,576.081,344.26)" fill="rgb(235,235,235)" fill-opacity="0.44"/></g><g opacity="0.53"><circle vector-effect="non-scaling-stroke" cx="0" cy="0" r="1" transform="matrix(6,0,0,6,576.081,364.26)" fill="rgb(235,235,235)" fill-opacity="0.44"/></g><g opacity="0.53"><circle vector-effect="non-scaling-stroke" cx="0" cy="0" r="1" transform="matrix(6,0,0,6,576.081,384.26)" fill="rgb(235,235,235)" fill-opacity="0.44"/></g><g opacity="0.53"><circle vector-effect="non-scaling-stroke" cx="0" cy="0" r="1" transform="matrix(6,0,0,6,576.081,404.26)" fill="rgb(235,235,235)" fill-opacity="0.44"/></g><g opacity="0.53"><circle vector-effect="non-scaling-stroke" cx="0" cy="0" r="1" transform="matrix(6,0,0,6,576.081,424.26)" fill="rgb(235,235,235)" fill-opacity="0.44"/></g><g opacity="0.53"><circle vector-effect="non-scaling-stroke" cx="0" cy="0" r="1" transform="matrix(6,0,0,6,596.081,344.26)" fill="rgb(235,235,235)" fill-opacity="0.44"/></g><g opacity="0.53"><circle vector-effect="non-scaling-stroke" cx="0" cy="0" r="1" transform="matrix(6,0,0,6,596.081,364.26)" fill="rgb(235,235,235)" fill-opacity="0.44"/></g><g opacity="0.53"><circle vector-effect="non-scaling-stroke" cx="0" cy="0" r="1" transform="matrix(6,0,0,6,596.081,384.26)" fill="rgb(235,235,235)" fill-opacity="0.44"/></g><g opacity="0.53"><circle vector-effect="non-scaling-stroke" cx="0" cy="0" r="1" transform="matrix(6,0,0,6,596.081,404.26)" fill="rgb(235,235,235)" fill-opacity="0.44"/></g><g opacity="0.53"><circle vector-effect="non-scaling-stroke" cx="0" cy="0" r="1" transform="matrix(6,0,0,6,596.081,424.26)" fill="rgb(235,235,235)" fill-opacity="0.44"/></g></g><g style="opacity:0.52;"><g opacity="0.52"><path d=" M 122.226 252.347 L 132.476 242.197 L 133.626 243.347 L 133.626 243.347 Q 134.176 243.897 134.151 244.272 L 134.151 244.272 L 134.151 244.272 Q 134.126 244.647 133.576 245.197 L 133.576 245.197 L 125.476 253.247 L 133.576 261.297 L 133.576 261.297 Q 134.126 261.847 134.151 262.222 L 134.151 262.222 L 134.151 262.222 Q 134.176 262.597 133.626 263.147 L 133.626 263.147 L 132.476 264.297 L 122.226 254.147 L 122.226 254.147 Q 121.276 253.247 122.226 252.347 L 122.226 252.347 L 122.226 252.347 Z " fill="rgb(255,255,255)"/></g><g opacity="0.52"><path d=" M 496.275 66.344 L 506.525 56.194 L 507.675 57.344 L 507.675 57.344 Q 508.225 57.894 508.2 58.269 L 508.2 58.269 L 508.2 58.269 Q 508.175 58.644 507.625 59.194 L 507.625 59.194 L 499.525 67.244 L 507.625 75.294 L 507.625 75.294 Q 508.175 75.844 508.2 76.219 L 508.2 76.219 L 508.2 76.219 Q 508.225 76.594 507.675 77.144 L 507.675 77.144 L 506.525 78.294 L 496.275 68.144 L 496.275 68.144 Q 495.325 67.244 496.275 66.344 L 496.275 66.344 L 496.275 66.344 Z " fill="rgb(255,255,255)"/></g></g><g><path d=" M 105.43 131.006 L 119.014 144.589 L 132.561 131.042 L 145.912 144.393 L 159.238 131.042 L 172.564 144.393 L 185.915 131.042 L 199.265 144.393" fill="none" vector-effect="non-scaling-stroke" stroke-width="5" stroke="rgb(255,255,255)" stroke-opacity="65" stroke-linejoin="round" stroke-linecap="round" stroke-miterlimit="3"/></g><g><path d=" M 442.393 408.241 L 455.185 410.253 L 462.191 411.354 Q 464.2 416.324 466.798 417.336 C 473.731 420.035 473.616 402.86 470.387 403.288 Q 462.277 404.362 444.687 399.114 L 442.393 408.241 Z " fill="rgb(251,125,196)"/><path d=" M 462.81 445.49 L 472.252 430.072 L 477.401 404.513 Q 469.51 398.33 465.556 402.669 C 465.266 405.277 464.757 411.923 461.575 415.523 C 459.51 417.86 461.729 422.258 461.24 424.845 C 460.009 431.348 455.348 434.243 457.59 439.97 Q 459.833 445.697 462.81 445.49 Z " fill="rgb(247,247,247)"/><path d=" M 475.161 429.701 L 481.281 404.518 L 475.76 404.081 L 471.182 429.373 L 462.625 445.419 L 466.961 446.873 L 475.161 429.701 Z " fill="rgb(234,234,234)"/><path d=" M 460.007 417.811 Q 455.24 418.929 454.166 420.992 C 453.092 423.054 456.966 422.259 457.979 421.6 Q 458.992 420.941 460.007 417.811 Z " fill="none" vector-effect="non-scaling-stroke" stroke-width="1" stroke="rgb(36,165,219)" stroke-opacity="100" stroke-linejoin="miter" stroke-linecap="square" stroke-miterlimit="3"/><path d=" M 460.684 417.586 Q 472.361 421.721 474.293 418.011 C 475.259 416.156 468.389 415.733 467.478 416.326 Q 465.655 417.511 460.684 417.586 Z " fill="none" vector-effect="non-scaling-stroke" stroke-width="1" stroke="rgb(36,165,219)" stroke-opacity="100" stroke-linejoin="miter" stroke-linecap="square" stroke-miterlimit="3"/><path d=" M 470.964 421.233 Q 465.884 424.908 463.579 422.307 Q 461.274 419.707 460.597 417.711" fill="none" vector-effect="non-scaling-stroke" stroke-width="1" stroke="rgb(36,165,219)" stroke-opacity="100" stroke-linejoin="miter" stroke-linecap="square" stroke-miterlimit="3"/><path d=" M 457.591 427.665 Q 456.963 424.758 458.233 422.903 Q 459.503 421.048 460.67 418.102" fill="none" vector-effect="non-scaling-stroke" stroke-width="1" stroke="rgb(36,165,219)" stroke-opacity="100" stroke-linejoin="miter" stroke-linecap="square" stroke-miterlimit="3"/><path d=" M 462.041 432.557 Q 458.881 431.3 457.384 431.517" fill="none" vector-effect="non-scaling-stroke" stroke-width="1" stroke="rgb(36,165,219)" stroke-opacity="100" stroke-linejoin="round" stroke-linecap="round" stroke-miterlimit="3"/><path d=" M 463.067 428.718 Q 459.907 427.462 458.41 427.679" fill="none" vector-effect="non-scaling-stroke" stroke-width="1" stroke="rgb(36,165,219)" stroke-opacity="100" stroke-linejoin="round" stroke-linecap="round" stroke-miterlimit="3"/><path d=" M 464.094 424.88 Q 460.934 423.624 459.436 423.84" fill="none" vector-effect="non-scaling-stroke" stroke-width="1" stroke="rgb(36,165,219)" stroke-opacity="100" stroke-linejoin="round" stroke-linecap="round" stroke-miterlimit="3"/><path d=" M 384.6 170.921 Q 387.097 175.417 379.605 185.406 Q 372.113 195.395 386.598 202.387 L 400.083 205.384 Q 392.092 184.906 395.588 174.917 Q 399.084 164.928 384.6 170.921 Z " fill="rgb(251,200,229)"/><path d=" M 197.844 92.507 L 154.19 46.235 L 189.986 61.95 L 197.844 92.507 Z " fill="rgb(251,251,251)"/><path d=" M 154.143 46.277 L 211.705 36.631 L 191.111 50.544 L 154.143 46.277 Z " fill="rgb(251,251,251)"/><path d=" M 153.577 45.574 L 189.982 62.946 L 191.246 50.224 L 153.577 45.574 Z " fill="rgb(195,195,195)"/><path d=" M 424.356 471.206 Q 357.384 489.368 322.195 484.828 C 287.006 480.287 133.765 505.26 150.792 474.612 C 167.819 443.963 190.521 441.693 218.899 448.504 C 247.277 455.315 288.141 468.936 313.114 451.909 Q 338.087 434.883 424.356 471.206 Z " fill="rgb(217,217,217)" fill-opacity="0.69"/><path d=" M 388.174 436.755 L 387.987 456.796 Q 383.363 459.51 382.742 462.227 C 381.085 469.481 398.059 466.857 397.164 463.726 Q 394.917 455.859 397.539 437.692 L 388.174 436.755 Z " fill="rgb(251,125,196)"/><path d=" M 355.924 469.439 L 397.242 470.665 Q 401.723 461.487 396.905 458.256 C 394.377 458.44 387.975 459.145 383.994 456.565 C 381.41 454.891 377.625 457.962 375.08 457.939 C 368.686 457.883 362.481 457.439 357.437 460.778 Q 352.392 464.117 355.924 469.439 Z " fill="rgb(247,247,247)"/><path d=" M 397.921 474.62 L 397.362 468.914 L 355.544 468.897 L 354.555 474.365 L 397.921 474.62 Z " fill="rgb(234,234,234)"/><path d=" M 422.944 301.796 Q 422.027 316.582 436.115 320.764 Q 450.204 324.946 445.749 325.542 Q 450.425 317.919 438.222 312.239 Q 426.018 306.558 422.944 301.796 Z " fill="rgb(251,200,229)"/><path d=" M 407.885 292.005 L 424.912 315.842 L 432.574 311.586 L 407.885 245.181 L 407.885 292.005 Z " fill="rgb(236,235,235)"/><path d=" M 337.089 165.271 Q 320.166 148.31 293.969 109.5 Q 312.572 159.12 327.537 183.533 C 330.388 188.183 334.069 193.662 338.582 199.969 Q 345.35 209.431 354.61 221.378 L 373.942 194.999 Q 349.425 177.635 337.089 165.271 Z " fill="rgb(255,255,255)"/><path d=" M 313.912 158.81 L 326.554 182.83 L 355.992 224.356 L 357.081 210.686 L 332.001 170.7 L 294.232 110.483 L 313.912 158.81 Z " fill="rgb(238,238,238)"/><path d=" M 280.214 99.029 Q 279.297 113.815 293.385 117.997 Q 307.474 122.179 303.019 122.775 Q 307.695 115.152 295.492 109.472 Q 283.288 103.792 280.214 99.029 Z " fill="rgb(251,200,229)"/><path d=" M 415.596 158.403 C 411.462 169.405 400.856 176.215 390.293 173.994 C 378.478 171.511 371.163 158.662 373.968 145.319 C 376.773 131.977 388.643 123.162 400.458 125.645 L 415.596 158.403 Z " fill="rgb(251,200,229)"/><path d=" M 379.043 129.779 C 381.483 131.252 384.117 128.941 388.408 128.655 C 395.431 128.187 389.567 135.63 391.405 138.956 C 393.042 141.918 397.086 144.816 397.586 146.261 C 398.085 147.706 405.803 144.688 404.89 147.197 C 404.347 148.692 405.042 152.764 403.579 155.251 C 401.54 158.718 391.658 160.64 388.806 168.35 C 388.816 179.904 435.566 175.048 434.69 148.322 C 433.771 120.281 427.824 113.417 406.08 111.128 C 384.336 108.84 376.245 128.089 379.043 129.779 Z " fill="rgb(49,44,96)"/><path d=" M 363.014 381.441 C 361.322 375.922 358.757 349.696 355.321 302.76 Q 354.644 293.514 353.922 283.196 L 412.085 294.911 L 397.476 444.372 L 387.362 440.439 L 386.52 314.577 L 380.62 313.453 L 379.746 324.313 L 376.024 370.544 L 375.75 373.949 L 448.53 399.671 L 447.031 411.158 Q 364.706 386.959 363.014 381.441 Z " fill="rgb(36,165,219)"/><path d=" M 381.906 454.773 Q 381.763 450.559 379.455 450.839 C 377.147 451.118 377.755 452.891 378.871 453.354 Q 379.987 453.817 381.906 454.773 Z " fill="none" vector-effect="non-scaling-stroke" stroke-width="1" stroke="rgb(36,165,219)" stroke-opacity="100" stroke-linejoin="miter" stroke-linecap="square" stroke-miterlimit="3"/><path d=" M 382.474 455.205 Q 380.978 463.573 385.13 463.07 C 389.283 462.568 389.245 459.128 387.238 458.294 Q 385.23 457.461 382.474 455.205 Z " fill="none" vector-effect="non-scaling-stroke" stroke-width="1" stroke="rgb(36,165,219)" stroke-opacity="100" stroke-linejoin="miter" stroke-linecap="square" stroke-miterlimit="3"/><path d=" M 380.354 465.037 Q 379.371 463.633 380.214 460.261 Q 381.057 456.89 382.321 455.204" fill="none" vector-effect="non-scaling-stroke" stroke-width="1" stroke="rgb(36,165,219)" stroke-opacity="100" stroke-linejoin="miter" stroke-linecap="square" stroke-miterlimit="3"/><path d=" M 372.909 449.866 Q 374.455 456.187 376.702 456.187 Q 378.95 456.187 382.04 455.485" fill="none" vector-effect="non-scaling-stroke" stroke-width="1" stroke="rgb(36,165,219)" stroke-opacity="100" stroke-linejoin="miter" stroke-linecap="square" stroke-miterlimit="3"/><path d=" M 256.74 472.727 Q 207.853 486.279 182.571 483.017 C 157.289 479.755 47.959 497.194 60.192 475.174 C 72.425 453.154 125.66 460.144 146.049 465.037 C 166.437 469.93 225.874 472.775 243.816 460.542 Q 261.759 448.309 256.74 472.727 Z " fill="rgb(195,195,195)" fill-opacity="0.69"/><path d=" M 221.903 390.306 L 246.626 438.628 L 248.873 467.846 L 257.302 463.913 L 256.74 435.258 L 232.017 381.316 L 221.903 390.306 Z " fill="rgb(215,175,199)"/><path d=" M 227.522 288.605 Q 235.95 259.949 240.445 265.568 Q 244.94 271.187 251.683 290.291 L 227.522 288.605 Z " fill="rgb(215,175,199)"/><path d=" M 143.801 406.039 L 148.296 469.532 L 137.62 470.656 L 132.563 395.363 L 143.801 406.039 Z " fill="rgb(215,175,199)"/><path d=" M 129.754 344.232 Q 136.332 329.282 149.42 351.536 Q 153.915 318.947 131.439 320.071 C 112.586 321.013 94.298 341.195 99.974 363.898 Q 105.65 386.6 120.889 398.173 L 125.259 433.009 L 118.516 472.341 L 130.316 472.903 L 153.353 406.601 L 221.415 413.701 L 223.276 479.084 L 229.769 479.084 L 241.257 407.662 L 247.999 352.348 Q 254.269 326.101 261.235 313.328 C 266.126 304.36 276.406 293.1 278.091 289.729 Q 281.645 282.621 250.559 286.919 Q 238.198 279.615 221.903 285.234 C 205.608 290.853 199.379 287.316 192.685 290.291 C 185.991 293.266 186.518 300.321 185.942 306.585 C 184.717 319.919 201.086 332.844 204.485 336.927 C 207.883 341.01 201.675 360.526 186.504 360.526 C 171.333 360.526 123.573 358.279 129.754 344.232 Z " fill="rgb(255,209,237)"/><path d=" M 198.163 288.886 L 210.665 288.324 Q 204.204 295.067 210.946 301.247 C 217.689 307.428 225.274 303.214 235.107 302.371 C 244.94 301.528 243.536 313.047 249.435 315.856 Q 255.335 318.666 258.425 319.509 Q 250.278 334.118 249.154 342.827 Q 248.031 351.536 240.726 413.344 Q 226.044 412.263 218.532 409.691 C 211.02 407.12 181.26 363.898 192.685 359.122 C 204.11 354.346 205.889 341.141 205.327 338.894 C 204.765 336.646 193.949 325.689 188.471 316.98 Q 182.992 308.271 188.752 290.431 L 198.163 288.886 Z " fill="rgb(255,255,255)" fill-opacity="0.59"/><circle vector-effect="non-scaling-stroke" cx="0" cy="0" r="1" transform="matrix(6.532,0,0,6.532,188.787,290.677)" fill="rgb(229,48,188)"/><path d=" M 114.396 326.251 Q 99.787 345.355 109.151 358.091 Q 118.516 370.828 118.516 370.828 Q 129.005 380.941 126.008 390.681 Q 123.011 400.42 120.764 399.296 Q 110.439 388.34 106.927 382.299 C 104.431 378.005 100.044 368.252 98.991 359.192 C 97.744 348.467 101.519 341.024 105.031 335.991 Q 108.543 330.957 114.396 326.251 Z " fill="rgb(215,175,199)"/><path d=" M 272.495 78.84 Q 215.739 84.516 225.955 56.138 C 236.171 27.76 270.225 24.355 263.414 43.652 C 256.604 62.949 223.685 75.435 208.929 70.895" fill="none" vector-effect="non-scaling-stroke" stroke-width="3" stroke="rgb(255,255,255)" stroke-opacity="100" stroke-linejoin="round" stroke-linecap="round" stroke-miterlimit="3"/><path d=" M 365.903 462.065 Q 365.507 458.688 364.605 457.473" fill="none" vector-effect="non-scaling-stroke" stroke-width="1" stroke="rgb(36,165,219)" stroke-opacity="100" stroke-linejoin="round" stroke-linecap="round" stroke-miterlimit="3"/><path d=" M 370.398 461.222 Q 370.002 457.845 369.1 456.63" fill="none" vector-effect="non-scaling-stroke" stroke-width="1" stroke="rgb(36,165,219)" stroke-opacity="100" stroke-linejoin="round" stroke-linecap="round" stroke-miterlimit="3"/><path d=" M 374.644 461.307 Q 373.993 457.969 373.001 456.827" fill="none" vector-effect="non-scaling-stroke" stroke-width="1" stroke="rgb(36,165,219)" stroke-opacity="100" stroke-linejoin="round" stroke-linecap="round" stroke-miterlimit="3"/><path d=" M 376.231 139.283 L 368.092 147.157 L 373.274 149.407" fill="rgb(191,122,161)"/><path d=" M 354.133 282.799 Q 356.63 261.822 355.632 217.87 Q 364.622 188.652 362.655 186.061 Q 377.545 186.623 387.659 199.546 C 395.337 201.946 399.308 197.593 403.111 202.918 C 413.653 217.678 408.914 237.444 410.571 256.328 Q 412.123 274.005 412.569 306.773 L 354.133 282.799 Z " fill="rgb(255,255,255)"/><path d=" M 429.332 135.491 L 422.964 126.501 Q 445.814 96.534 465.293 116.013 C 484.771 135.491 464.021 153.022 479.246 164.148 C 486.551 169.486 475.966 189.284 484.022 186.904 C 496.384 183.252 497.764 208.853 504.999 199.172 Q 509.317 193.394 508.745 179.693 Q 522.053 215.468 498.35 217.808 C 474.648 220.148 478.286 204.512 466.604 196.456 C 444.878 181.472 440.57 178.195 445.814 164.709 C 451.058 151.224 452.557 128.374 442.068 129.123 Q 437.074 129.48 429.332 135.491 Z " fill="rgb(49,44,96)"/></g></g></g></svg>