<?xml version="1.0" encoding="iso-8859-1"?>
<!-- Generator: Adobe Illustrator 16.0.0, SVG Export Plug-In . SVG Version: 6.00 Build 0)  -->
<!DOCTYPE svg PUBLIC "-//W3C//DTD SVG 1.1//EN" "http://www.w3.org/Graphics/SVG/1.1/DTD/svg11.dtd">
<svg xmlns="http://www.w3.org/2000/svg" xmlns:xlink="http://www.w3.org/1999/xlink" version="1.1" id="Capa_1" x="0px" y="0px" width="512px" height="512px" viewBox="0 0 47.98 47.98" style="enable-background:new 0 0 47.98 47.98;" xml:space="preserve">
<g>
	<g id="Light_Bulb">
		<path d="M19.634,38.193c-0.274,0-0.548-0.111-0.745-0.332c-2.274-2.543-2.459-7.973-2.466-8.202c0-2.046-1.284-4.167-2.771-6.624    C11.345,19.224,8.73,14.904,9.944,9.28C11.8,0.669,21.143,0,23.962,0c0.553,0,1,0.448,1,1s-0.448,1-1,1    c-3.128,0-10.564,0.75-12.063,7.702c-1.046,4.847,1.247,8.635,3.464,12.297c1.574,2.601,3.061,5.056,3.061,7.631    c0.041,1.335,0.474,5.24,1.956,6.897c0.368,0.412,0.333,1.045-0.078,1.412C20.11,38.109,19.871,38.193,19.634,38.193z" fill="#933EC5"/>
		<path d="M28.347,38.193c-0.237,0-0.477-0.084-0.666-0.254c-0.412-0.367-0.447-1-0.079-1.412c1.486-1.662,1.916-5.563,1.955-6.926    c0-2.547,1.485-5.002,3.061-7.603c2.219-3.663,4.512-7.451,3.465-12.297C34.581,2.75,27.146,2,24.017,2c-0.553,0-1-0.448-1-1    s0.447-1,1-1c2.82,0,12.163,0.669,14.019,9.28c1.213,5.624-1.401,9.944-3.709,13.755c-1.486,2.457-2.771,4.578-2.771,6.595    c-0.007,0.259-0.191,5.688-2.465,8.231C28.895,38.082,28.62,38.193,28.347,38.193z" fill="#933EC5"/>
		<path d="M24.085,37.544c-0.414,0-0.75-0.336-0.75-0.75c0-0.508,0.027-1.286,0.062-2.254c0.098-2.741,0.28-7.839-0.135-12.244    c-2.034,0.456-3.418-0.343-4.172-1.01c-2.089-1.847-2.566-5.306-1.6-7.165c0.591-1.135,1.648-1.612,2.896-1.314    c1.638,0.394,2.729,1.911,3.438,4.183c0.964-3.493,2.609-5.036,4.085-5.263c1.133-0.176,2.149,0.427,2.587,1.532    c0.681,1.714-0.021,4.744-4.236,7.643c-0.541,0.372-1.054,0.664-1.537,0.889c0.38,3.702,0.34,8.191,0.175,12.804    c-0.034,0.945-0.062,1.705-0.062,2.201C24.836,37.208,24.499,37.544,24.085,37.544z M19.687,14.219    c-0.381,0-0.655,0.191-0.864,0.594c-0.68,1.305-0.23,4.029,1.262,5.349c0.816,0.723,1.836,0.93,3.009,0.629    c-0.455-3.402-1.354-6.117-3.056-6.526C19.911,14.235,19.794,14.219,19.687,14.219z M28.297,13.196    c-0.051,0-0.104,0.004-0.158,0.013c-0.938,0.144-2.737,1.795-3.396,6.88c0.22-0.126,0.441-0.268,0.668-0.424    c3.246-2.232,4.189-4.6,3.692-5.854C29.008,13.571,28.781,13.196,28.297,13.196z" fill="#933EC5"/>
		<path d="M28.794,41.593h-9.621c-1.067,0-1.937-0.928-1.937-2.067v-0.693c0-1.141,0.869-2.068,1.937-2.068h9.621    c1.067,0,1.938,0.928,1.938,2.068v0.693C30.731,40.665,29.862,41.593,28.794,41.593z M19.173,38.264    c-0.236,0-0.437,0.26-0.437,0.567v0.692c0,0.309,0.2,0.568,0.437,0.568h9.621c0.236,0,0.438-0.26,0.438-0.568v-0.692    c0-0.308-0.2-0.567-0.438-0.567H19.173z" fill="#933EC5"/>
		<path d="M28.794,44.925h-9.621c-1.067,0-1.937-0.928-1.937-2.067v-0.693c0-1.141,0.869-2.069,1.937-2.069h9.621    c1.067,0,1.938,0.929,1.938,2.069v0.693C30.731,43.997,29.862,44.925,28.794,44.925z M19.173,41.594    c-0.236,0-0.437,0.262-0.437,0.569v0.692c0,0.309,0.2,0.568,0.437,0.568h9.621c0.236,0,0.438-0.26,0.438-0.568v-0.692    c0-0.31-0.2-0.569-0.438-0.569H19.173z" fill="#933EC5"/>
		<path d="M23.983,47.98c-2.299,0-4.169-1.615-4.169-3.601c0-0.414,0.336-0.75,0.75-0.75c0.414,0,0.75,0.336,0.75,0.75    c0,1.158,1.197,2.101,2.669,2.101c1.472,0,2.669-0.942,2.669-2.101c0-0.414,0.336-0.75,0.75-0.75s0.75,0.336,0.75,0.75    C28.152,46.366,26.282,47.98,23.983,47.98z" fill="#933EC5"/>
	</g>
	<g>
	</g>
	<g>
	</g>
	<g>
	</g>
	<g>
	</g>
	<g>
	</g>
	<g>
	</g>
	<g>
	</g>
	<g>
	</g>
	<g>
	</g>
	<g>
	</g>
	<g>
	</g>
	<g>
	</g>
	<g>
	</g>
	<g>
	</g>
	<g>
	</g>
</g>
<g>
</g>
<g>
</g>
<g>
</g>
<g>
</g>
<g>
</g>
<g>
</g>
<g>
</g>
<g>
</g>
<g>
</g>
<g>
</g>
<g>
</g>
<g>
</g>
<g>
</g>
<g>
</g>
<g>
</g>
</svg>
