<?xml version="1.0" standalone="no"?><!-- Generator: Gravit.io --><svg xmlns="http://www.w3.org/2000/svg" xmlns:xlink="http://www.w3.org/1999/xlink" style="isolation:isolate" viewBox="0 0 110 20" width="110" height="20"><defs><clipPath id="_clipPath_hpqURE9NJHDeoNhUuLhHbwjhb8yOccDP"><rect width="110" height="20"/></clipPath></defs><g clip-path="url(#_clipPath_hpqURE9NJHDeoNhUuLhHbwjhb8yOccDP)"><path d=" M 1.15 9.28 L 9.35 1.16 L 10.27 2.08 L 10.27 2.08 Q 10.71 2.52 10.69 2.82 L 10.69 2.82 L 10.69 2.82 Q 10.67 3.12 10.23 3.56 L 10.23 3.56 L 3.75 10 L 10.23 16.44 L 10.23 16.44 Q 10.67 16.88 10.69 17.18 L 10.69 17.18 L 10.69 17.18 Q 10.71 17.48 10.27 17.92 L 10.27 17.92 L 9.35 18.84 L 1.15 10.72 L 1.15 10.72 Q 0.39 10 1.15 9.28 L 1.15 9.28 Z " fill="rgb(60,255,190)"/><path d=" M 22.649 2.56 L 25.556 2.56 L 25.556 10.711 L 25.556 11.205 L 25.556 11.205 Q 25.556 12.041 25.451 12.811 L 25.451 12.811 L 25.451 12.811 Q 25.347 13.58 24.834 14.302 L 24.834 14.302 L 24.834 14.302 Q 24.188 15.233 23.247 15.699 L 23.247 15.699 L 23.247 15.699 Q 22.307 16.164 21.224 16.164 L 21.224 16.164 L 21.224 16.164 Q 20.483 16.164 19.827 15.917 L 19.827 15.917 L 19.827 15.917 Q 19.172 15.67 18.63 15.243 L 18.63 15.243 L 18.63 15.243 Q 18.089 14.815 17.69 14.236 L 17.69 14.236 L 17.69 14.236 Q 17.291 13.656 17.082 12.991 L 17.082 12.991 L 19.571 12.155 L 19.571 12.155 Q 19.723 12.706 20.15 13.067 L 20.15 13.067 L 20.15 13.067 Q 20.578 13.428 21.148 13.428 L 21.148 13.428 L 21.148 13.428 Q 21.813 13.428 22.183 12.982 L 22.183 12.982 L 22.183 12.982 Q 22.554 12.535 22.649 11.965 L 22.649 11.965 L 22.649 11.965 Q 22.649 11.889 22.658 11.433 L 22.658 11.433 L 22.658 11.433 Q 22.668 10.977 22.668 10.303 L 22.668 10.303 L 22.668 10.303 Q 22.668 9.628 22.668 8.783 L 22.668 8.783 L 22.668 8.783 Q 22.668 7.937 22.668 7.082 L 22.668 7.082 L 22.668 7.082 Q 22.668 5.068 22.649 2.56 L 22.649 2.56 Z  M 34.232 12.121 L 34.232 6.607 L 36.854 6.607 L 36.854 16.031 L 34.612 16.031 L 34.232 15.309 L 34.232 15.309 Q 33.776 15.632 33.196 15.832 L 33.196 15.832 L 33.196 15.832 Q 32.617 16.031 31.952 16.031 L 31.952 16.031 L 31.952 16.031 Q 31.439 16.031 30.783 15.879 L 30.783 15.879 L 30.783 15.879 Q 30.128 15.727 29.558 15.309 L 29.558 15.309 L 29.558 15.309 Q 28.988 14.891 28.598 14.15 L 28.598 14.15 L 28.598 14.15 Q 28.209 13.409 28.209 12.231 L 28.209 12.231 L 28.209 6.607 L 30.831 6.607 L 30.831 12.121 L 30.831 12.121 Q 30.831 12.557 30.974 12.86 L 30.974 12.86 L 30.974 12.86 Q 31.118 13.163 31.356 13.344 L 31.356 13.344 L 31.356 13.344 Q 31.595 13.524 31.901 13.609 L 31.901 13.609 L 31.901 13.609 Q 32.207 13.694 32.531 13.694 L 32.531 13.694 L 32.531 13.694 Q 32.78 13.694 33.076 13.609 L 33.076 13.609 L 33.076 13.609 Q 33.372 13.524 33.63 13.334 L 33.63 13.334 L 33.63 13.334 Q 33.888 13.145 34.06 12.841 L 34.06 12.841 L 34.06 12.841 Q 34.232 12.538 34.232 12.121 L 34.232 12.121 Z  M 45.036 6.341 L 45.036 6.341 L 45.036 6.341 Q 46.043 6.341 46.898 6.731 L 46.898 6.731 L 46.898 6.731 Q 47.753 7.12 48.37 7.795 L 48.37 7.795 L 48.37 7.795 Q 48.988 8.469 49.339 9.372 L 49.339 9.372 L 49.339 9.372 Q 49.691 10.274 49.691 11.3 L 49.691 11.3 L 49.691 11.3 Q 49.691 12.326 49.339 13.229 L 49.339 13.229 L 49.339 13.229 Q 48.988 14.131 48.37 14.806 L 48.37 14.806 L 48.37 14.806 Q 47.753 15.48 46.898 15.87 L 46.898 15.87 L 46.898 15.87 Q 46.043 16.259 45.036 16.259 L 45.036 16.259 L 45.036 16.259 Q 44.219 16.259 43.44 15.965 L 43.44 15.965 L 43.44 15.965 Q 42.661 15.67 42.224 15.214 L 42.224 15.214 L 42.224 19.793 L 39.602 19.793 L 39.602 6.607 L 41.844 6.607 L 42.224 7.253 L 42.224 7.253 Q 42.775 6.759 43.459 6.55 L 43.459 6.55 L 43.459 6.55 Q 44.143 6.341 45.036 6.341 Z  M 44.694 13.922 L 44.694 13.922 L 44.694 13.922 Q 45.207 13.922 45.653 13.713 L 45.653 13.713 L 45.653 13.713 Q 46.1 13.504 46.432 13.153 L 46.432 13.153 L 46.432 13.153 Q 46.765 12.801 46.964 12.326 L 46.964 12.326 L 46.964 12.326 Q 47.164 11.851 47.164 11.3 L 47.164 11.3 L 47.164 11.3 Q 47.164 10.768 46.964 10.284 L 46.964 10.284 L 46.964 10.284 Q 46.765 9.799 46.432 9.448 L 46.432 9.448 L 46.432 9.448 Q 46.1 9.096 45.653 8.887 L 45.653 8.887 L 45.653 8.887 Q 45.207 8.678 44.694 8.678 L 44.694 8.678 L 44.694 8.678 Q 44.181 8.678 43.734 8.821 L 43.734 8.821 L 43.734 8.821 Q 43.288 8.963 42.955 9.277 L 42.955 9.277 L 42.955 9.277 Q 42.623 9.59 42.433 10.094 L 42.433 10.094 L 42.433 10.094 Q 42.243 10.597 42.243 11.3 L 42.243 11.3 L 42.243 11.3 Q 42.243 11.965 42.433 12.45 L 42.433 12.45 L 42.433 12.45 Q 42.623 12.934 42.955 13.267 L 42.955 13.267 L 42.955 13.267 Q 43.288 13.599 43.734 13.761 L 43.734 13.761 L 43.734 13.761 Q 44.181 13.922 44.694 13.922 Z  M 54.662 6.607 L 54.662 16.031 L 52.04 16.031 L 52.04 6.607 L 54.662 6.607 Z  M 53.351 5.315 L 53.351 5.315 L 53.351 5.315 Q 52.743 5.315 52.325 4.897 L 52.325 4.897 L 52.325 4.897 Q 51.907 4.479 51.907 3.871 L 51.907 3.871 L 51.907 3.871 Q 51.907 3.263 52.325 2.836 L 52.325 2.836 L 52.325 2.836 Q 52.743 2.408 53.351 2.408 L 53.351 2.408 L 53.351 2.408 Q 53.959 2.408 54.377 2.836 L 54.377 2.836 L 54.377 2.836 Q 54.795 3.263 54.795 3.871 L 54.795 3.871 L 54.795 3.871 Q 54.795 4.479 54.377 4.897 L 54.377 4.897 L 54.377 4.897 Q 53.959 5.315 53.351 5.315 Z  M 64.003 13.409 L 64.003 13.409 L 64.003 13.409 Q 64.915 13.409 65.789 12.991 L 65.789 12.991 L 65.789 12.991 Q 66.663 12.573 67.556 11.585 L 67.556 11.585 L 69.418 13.352 L 69.418 13.352 Q 68.297 14.796 66.862 15.537 L 66.862 15.537 L 66.862 15.537 Q 65.428 16.278 63.908 16.278 L 63.908 16.278 L 63.908 16.278 Q 62.54 16.278 61.343 15.718 L 61.343 15.718 L 61.343 15.718 Q 60.146 15.157 59.262 14.207 L 59.262 14.207 L 59.262 14.207 Q 58.379 13.257 57.875 11.994 L 57.875 11.994 L 57.875 11.994 Q 57.372 10.73 57.372 9.305 L 57.372 9.305 L 57.372 9.305 Q 57.372 7.88 57.894 6.626 L 57.894 6.626 L 57.894 6.626 Q 58.417 5.372 59.31 4.422 L 59.31 4.422 L 59.31 4.422 Q 60.203 3.472 61.419 2.921 L 61.419 2.921 L 61.419 2.921 Q 62.635 2.37 64.003 2.37 L 64.003 2.37 L 64.003 2.37 Q 65.276 2.37 66.425 2.845 L 66.425 2.845 L 66.425 2.845 Q 67.575 3.32 68.677 4.422 L 68.677 4.422 L 67.005 6.455 L 67.005 6.455 Q 66.207 5.714 65.494 5.458 L 65.494 5.458 L 65.494 5.458 Q 64.782 5.201 64.003 5.201 L 64.003 5.201 L 64.003 5.201 Q 63.224 5.201 62.53 5.524 L 62.53 5.524 L 62.53 5.524 Q 61.837 5.847 61.324 6.398 L 61.324 6.398 L 61.324 6.398 Q 60.811 6.949 60.516 7.7 L 60.516 7.7 L 60.516 7.7 Q 60.222 8.45 60.222 9.305 L 60.222 9.305 L 60.222 9.305 Q 60.222 10.16 60.516 10.901 L 60.516 10.901 L 60.516 10.901 Q 60.811 11.642 61.324 12.203 L 61.324 12.203 L 61.324 12.203 Q 61.837 12.763 62.53 13.086 L 62.53 13.086 L 62.53 13.086 Q 63.224 13.409 64.003 13.409 Z  M 76.46 6.341 L 76.46 6.341 L 76.46 6.341 Q 77.467 6.341 78.36 6.731 L 78.36 6.731 L 78.36 6.731 Q 79.253 7.12 79.918 7.795 L 79.918 7.795 L 79.918 7.795 Q 80.583 8.469 80.972 9.372 L 80.972 9.372 L 80.972 9.372 Q 81.362 10.274 81.362 11.3 L 81.362 11.3 L 81.362 11.3 Q 81.362 12.326 80.972 13.229 L 80.972 13.229 L 80.972 13.229 Q 80.583 14.131 79.918 14.806 L 79.918 14.806 L 79.918 14.806 Q 79.253 15.48 78.36 15.87 L 78.36 15.87 L 78.36 15.87 Q 77.467 16.259 76.46 16.259 L 76.46 16.259 L 76.46 16.259 Q 75.434 16.259 74.541 15.87 L 74.541 15.87 L 74.541 15.87 Q 73.648 15.48 72.983 14.806 L 72.983 14.806 L 72.983 14.806 Q 72.318 14.131 71.928 13.229 L 71.928 13.229 L 71.928 13.229 Q 71.539 12.326 71.539 11.3 L 71.539 11.3 L 71.539 11.3 Q 71.539 10.274 71.928 9.372 L 71.928 9.372 L 71.928 9.372 Q 72.318 8.469 72.983 7.795 L 72.983 7.795 L 72.983 7.795 Q 73.648 7.12 74.541 6.731 L 74.541 6.731 L 74.541 6.731 Q 75.434 6.341 76.46 6.341 Z  M 76.46 13.96 L 76.46 13.96 L 76.46 13.96 Q 76.935 13.96 77.343 13.77 L 77.343 13.77 L 77.343 13.77 Q 77.752 13.58 78.065 13.248 L 78.065 13.248 L 78.065 13.248 Q 78.379 12.915 78.559 12.45 L 78.559 12.45 L 78.559 12.45 Q 78.74 11.984 78.74 11.414 L 78.74 11.414 L 78.74 11.414 Q 78.74 10.844 78.559 10.35 L 78.559 10.35 L 78.559 10.35 Q 78.379 9.856 78.065 9.486 L 78.065 9.486 L 78.065 9.486 Q 77.752 9.115 77.343 8.897 L 77.343 8.897 L 77.343 8.897 Q 76.935 8.678 76.46 8.678 L 76.46 8.678 L 76.46 8.678 Q 75.985 8.678 75.567 8.897 L 75.567 8.897 L 75.567 8.897 Q 75.149 9.115 74.835 9.486 L 74.835 9.486 L 74.835 9.486 Q 74.522 9.856 74.341 10.35 L 74.341 10.35 L 74.341 10.35 Q 74.161 10.844 74.161 11.414 L 74.161 11.414 L 74.161 11.414 Q 74.161 11.984 74.341 12.45 L 74.341 12.45 L 74.341 12.45 Q 74.522 12.915 74.835 13.248 L 74.835 13.248 L 74.835 13.248 Q 75.149 13.58 75.567 13.77 L 75.567 13.77 L 75.567 13.77 Q 75.985 13.96 76.46 13.96 Z  M 90.608 2.161 L 93.23 2.161 L 93.23 16.031 L 90.988 16.031 L 90.608 15.214 L 90.608 15.214 Q 90.171 15.67 89.401 15.965 L 89.401 15.965 L 89.401 15.965 Q 88.632 16.259 87.796 16.259 L 87.796 16.259 L 87.796 16.259 Q 86.789 16.259 85.934 15.87 L 85.934 15.87 L 85.934 15.87 Q 85.079 15.48 84.461 14.806 L 84.461 14.806 L 84.461 14.806 Q 83.844 14.131 83.492 13.229 L 83.492 13.229 L 83.492 13.229 Q 83.141 12.326 83.141 11.3 L 83.141 11.3 L 83.141 11.3 Q 83.141 10.274 83.492 9.372 L 83.492 9.372 L 83.492 9.372 Q 83.844 8.469 84.461 7.795 L 84.461 7.795 L 84.461 7.795 Q 85.079 7.12 85.934 6.731 L 85.934 6.731 L 85.934 6.731 Q 86.789 6.341 87.796 6.341 L 87.796 6.341 L 87.796 6.341 Q 88.689 6.341 89.382 6.55 L 89.382 6.55 L 89.382 6.55 Q 90.076 6.759 90.608 7.253 L 90.608 7.253 L 90.608 2.161 Z  M 90.608 11.338 L 90.608 11.338 L 90.608 11.338 Q 90.608 10.597 90.418 10.094 L 90.418 10.094 L 90.418 10.094 Q 90.228 9.59 89.886 9.277 L 89.886 9.277 L 89.886 9.277 Q 89.544 8.963 89.097 8.821 L 89.097 8.821 L 89.097 8.821 Q 88.651 8.678 88.138 8.678 L 88.138 8.678 L 88.138 8.678 Q 87.625 8.678 87.178 8.887 L 87.178 8.887 L 87.178 8.887 Q 86.732 9.096 86.399 9.448 L 86.399 9.448 L 86.399 9.448 Q 86.067 9.799 85.877 10.284 L 85.877 10.284 L 85.877 10.284 Q 85.687 10.768 85.687 11.3 L 85.687 11.3 L 85.687 11.3 Q 85.687 11.851 85.877 12.326 L 85.877 12.326 L 85.877 12.326 Q 86.067 12.801 86.399 13.153 L 86.399 13.153 L 86.399 13.153 Q 86.732 13.504 87.178 13.713 L 87.178 13.713 L 87.178 13.713 Q 87.625 13.922 88.138 13.922 L 88.138 13.922 L 88.138 13.922 Q 89.164 13.922 89.876 13.286 L 89.876 13.286 L 89.876 13.286 Q 90.589 12.649 90.608 11.338 Z  M 100.595 6.341 L 100.595 6.341 L 100.595 6.341 Q 101.659 6.341 102.533 6.769 L 102.533 6.769 L 102.533 6.769 Q 103.407 7.196 104.034 7.89 L 104.034 7.89 L 104.034 7.89 Q 104.661 8.583 105.003 9.486 L 105.003 9.486 L 105.003 9.486 Q 105.345 10.388 105.345 11.338 L 105.345 11.338 L 105.345 11.338 Q 105.345 11.908 105.193 12.554 L 105.193 12.554 L 98.467 12.554 L 98.467 12.554 Q 98.847 13.2 99.55 13.647 L 99.55 13.647 L 99.55 13.647 Q 100.253 14.093 101.07 14.093 L 101.07 14.093 L 101.07 14.093 Q 101.887 14.093 102.504 13.96 L 102.504 13.96 L 102.504 13.96 Q 103.122 13.827 103.673 13.618 L 103.673 13.618 L 104.547 15.233 L 104.547 15.233 Q 103.844 15.727 102.941 15.993 L 102.941 15.993 L 102.941 15.993 Q 102.039 16.259 101.013 16.259 L 101.013 16.259 L 101.013 16.259 Q 99.892 16.259 98.923 15.87 L 98.923 15.87 L 98.923 15.87 Q 97.954 15.48 97.232 14.815 L 97.232 14.815 L 97.232 14.815 Q 96.51 14.15 96.092 13.238 L 96.092 13.238 L 96.092 13.238 Q 95.674 12.326 95.674 11.3 L 95.674 11.3 L 95.674 11.3 Q 95.674 10.293 96.054 9.391 L 96.054 9.391 L 96.054 9.391 Q 96.434 8.488 97.108 7.814 L 97.108 7.814 L 97.108 7.814 Q 97.783 7.139 98.676 6.74 L 98.676 6.74 L 98.676 6.74 Q 99.569 6.341 100.595 6.341 Z  M 98.372 10.521 L 102.742 10.521 L 102.742 10.521 Q 102.514 9.704 101.925 9.191 L 101.925 9.191 L 101.925 9.191 Q 101.336 8.678 100.595 8.678 L 100.595 8.678 L 100.595 8.678 Q 99.835 8.678 99.217 9.191 L 99.217 9.191 L 99.217 9.191 Q 98.6 9.704 98.372 10.521 L 98.372 10.521 Z " fill-rule="evenodd" fill="rgb(27,14,51)"/></g></svg>