<?xml version="1.0" standalone="no"?><!-- Generator: Gravit.io --><svg xmlns="http://www.w3.org/2000/svg" xmlns:xlink="http://www.w3.org/1999/xlink" style="isolation:isolate" viewBox="0 0 360 360" width="360" height="360"><defs><clipPath id="_clipPath_C1CzaonEDe3Q7WyuQMQ0YSJB4jDvpufB"><rect width="360" height="360"/></clipPath></defs><g clip-path="url(#_clipPath_C1CzaonEDe3Q7WyuQMQ0YSJB4jDvpufB)"><g><linearGradient id="_lgradient_0" x1="0" y1="0.5" x2="1" y2="0.5"><stop offset="0%" stop-opacity="1" style="stop-color:rgb(120,230,228)"/><stop offset="100%" stop-opacity="1" style="stop-color:rgb(170,0,255)"/></linearGradient><path d=" M 49.641 180 C 49.641 108.929 107.342 51.229 178.412 51.229 C 249.483 51.229 307.183 108.929 307.183 180 C 307.183 251.071 249.483 308.771 178.412 308.771 C 107.342 308.771 49.641 251.071 49.641 180 Z " fill="none" vector-effect="non-scaling-stroke" stroke-width="10" stroke-dasharray="1,20,0,0" stroke="url(#_lgradient_0)" stroke-linejoin="round" stroke-linecap="round" stroke-miterlimit="3"/><linearGradient id="_lgradient_1" x1="0" y1="0.5" x2="1" y2="0.5"><stop offset="0%" stop-opacity="1" style="stop-color:rgb(120,230,228)"/><stop offset="100%" stop-opacity="1" style="stop-color:rgb(170,0,255)"/></linearGradient><path d=" M 24.503 180 C 24.503 95.055 93.468 26.091 178.412 26.091 C 263.357 26.091 332.322 95.055 332.322 180 C 332.322 264.945 263.357 333.909 178.412 333.909 C 93.468 333.909 24.503 264.945 24.503 180 Z " fill="none" vector-effect="non-scaling-stroke" stroke-width="6" stroke-dasharray="0,0,0,0" stroke="url(#_lgradient_1)" stroke-linejoin="round" stroke-linecap="round" stroke-miterlimit="3"/><linearGradient id="_lgradient_2" x1="0" y1="0.5" x2="1" y2="0.5"><stop offset="0%" stop-opacity="1" style="stop-color:rgb(120,230,228)"/><stop offset="100%" stop-opacity="1" style="stop-color:rgb(170,0,255)"/></linearGradient><path d=" M 6.246 180 C 6.246 84.103 84.103 6.246 180 6.246 C 275.897 6.246 353.754 84.103 353.754 180 C 353.754 275.897 275.897 353.754 180 353.754 C 84.103 353.754 6.246 275.897 6.246 180 Z " fill="none" vector-effect="non-scaling-stroke" stroke-width="10" stroke-dasharray="20,40,0,0" stroke="url(#_lgradient_2)" stroke-linejoin="round" stroke-linecap="round" stroke-miterlimit="3"/></g></g></svg>