<?xml version="1.0" encoding="UTF-8" standalone="no"?>
<!DOCTYPE svg PUBLIC "-//W3C//DTD SVG 1.1//EN" "http://www.w3.org/Graphics/SVG/1.1/DTD/svg11.dtd">
<svg version="1.1" xmlns="http://www.w3.org/2000/svg" xmlns:xlink="http://www.w3.org/1999/xlink" preserveAspectRatio="xMidYMid meet" viewBox="0.4618098751411246 -0.06551245405762529 146.4216991041347 69.25162582639405" width="142.42" height="65.25"><defs><path d="M37.54 1.91L38.06 2.85L38.34 3.31L38.63 3.75L38.94 4.2L39.25 4.63L39.58 5.06L39.92 5.47L40.26 5.87L40.62 6.28L40.98 6.66L41.36 7.04L41.74 7.41L42.14 7.77L42.54 8.12L42.96 8.46L43.38 8.79L43.81 9.1L44.25 9.41L44.69 9.7L45.15 9.99L45.61 10.26L46.09 10.52L46.57 10.77L47.06 11.01L47.54 11.23L48.04 11.44L48.55 11.63L49.06 11.82L49.59 11.99L50.11 12.15L50.63 12.3L51.17 12.43L51.71 12.54L52.26 12.65L52.81 12.73L53.37 12.81L53.93 12.86L53.93 16.69L55.81 16.69L56.5 16.71L57.18 16.75L57.87 16.83L58.54 16.92L59.2 17.04L59.85 17.19L60.5 17.36L61.14 17.56L61.76 17.78L62.37 18.03L62.97 18.29L63.56 18.58L64.13 18.89L64.69 19.22L65.23 19.58L65.77 19.96L66.28 20.34L66.78 20.76L67.27 21.19L67.73 21.63L68.18 22.1L68.61 22.59L69.02 23.08L69.41 23.6L69.79 24.13L70.14 24.68L70.47 25.24L70.79 25.81L71.08 26.4L71.34 27L71.59 27.61L71.81 28.23L72.01 28.87L72.18 29.51L72.33 30.16L72.45 30.82L72.54 31.5L72.62 32.18L72.65 32.87L72.67 33.56L72.65 34.25L72.62 34.95L72.54 35.63L72.45 36.3L72.33 36.96L72.18 37.62L72.01 38.26L71.81 38.89L71.59 39.52L71.34 40.13L71.08 40.73L70.79 41.31L70.47 41.89L70.14 42.44L69.79 43L69.41 43.52L69.02 44.04L68.61 44.54L68.18 45.02L67.73 45.49L67.26 45.94L66.78 46.37L66.28 46.78L65.77 47.17L65.23 47.55L64.69 47.91L64.13 48.23L63.56 48.54L62.97 48.83L62.37 49.1L61.76 49.35L61.13 49.57L60.5 49.77L59.85 49.94L59.2 50.09L58.54 50.21L57.87 50.3L57.18 50.37L56.5 50.42L55.81 50.43L53.93 50.43L53.93 54.26L53.37 54.31L52.81 54.39L52.26 54.48L51.71 54.59L51.17 54.7L50.63 54.83L50.1 54.97L49.58 55.13L48.55 55.49L48.04 55.68L47.54 55.9L47.05 56.12L46.56 56.36L46.08 56.6L45.61 56.86L45.15 57.13L44.69 57.42L44.24 57.72L43.8 58.02L43.37 58.34L42.95 58.67L42.54 59.01L42.14 59.36L41.74 59.71L41.36 60.09L40.98 60.46L40.61 60.85L40.25 61.25L39.58 62.07L39.25 62.49L38.63 63.38L38.34 63.82L38.06 64.28L37.8 64.74L37.54 65.22L37.29 65.7L37.07 66.19L36.83 65.7L36.59 65.22L36.33 64.74L36.06 64.28L35.78 63.82L35.49 63.38L34.87 62.49L34.55 62.07L34.21 61.66L33.86 61.25L33.51 60.85L33.14 60.46L32.77 60.09L32.38 59.71L31.99 59.36L31.59 59.01L31.17 58.67L30.74 58.34L30.31 58.02L29.88 57.72L29.43 57.42L28.97 57.13L28.51 56.86L28.03 56.6L27.56 56.36L27.07 56.12L26.58 55.9L26.09 55.68L25.58 55.49L24.55 55.13L24.02 54.97L23.49 54.83L22.96 54.7L22.41 54.59L21.87 54.48L21.32 54.39L20.75 54.31L20.2 54.26L20.2 50.43L18.32 50.43L17.62 50.42L16.94 50.37L16.26 50.3L15.58 50.21L14.93 50.09L14.27 49.94L13.62 49.77L13 49.57L12.37 49.35L11.76 49.1L11.16 48.83L10.57 48.54L10 48.23L9.44 47.91L8.89 47.55L8.36 47.17L7.84 46.78L7.35 46.37L6.87 45.94L6.4 45.49L5.95 45.02L5.52 44.54L5.11 44.04L4.71 43.52L4.34 43L3.98 42.45L3.65 41.89L3.34 41.32L3.05 40.73L2.78 40.13L2.54 39.52L2.31 38.89L2.12 38.26L1.95 37.62L1.8 36.96L1.68 36.3L1.58 35.63L1.52 34.95L1.47 34.26L1.46 33.56L1.47 32.87L1.52 32.18L1.58 31.5L1.68 30.82L1.8 30.17L1.95 29.51L2.12 28.87L2.31 28.23L2.54 27.61L2.78 27L3.05 26.4L3.35 25.81L3.65 25.24L3.98 24.68L4.34 24.13L4.71 23.6L5.11 23.08L5.52 22.59L5.95 22.1L6.4 21.63L6.87 21.19L7.35 20.76L7.85 20.35L8.37 19.96L8.89 19.58L9.44 19.22L10 18.89L10.57 18.58L11.16 18.29L11.76 18.03L12.37 17.78L13 17.56L13.62 17.36L14.27 17.19L14.93 17.04L15.59 16.92L16.26 16.83L16.94 16.75L17.62 16.71L18.32 16.69L20.2 16.69L20.2 12.86L20.75 12.81L21.32 12.73L21.87 12.65L22.41 12.54L22.96 12.43L23.49 12.3L24.02 12.15L24.55 11.99L25.06 11.82L25.58 11.63L26.09 11.44L26.58 11.23L27.08 11.01L27.57 10.77L28.04 10.52L28.51 10.26L28.97 9.99L29.43 9.7L29.88 9.41L30.32 9.1L30.75 8.79L31.17 8.46L31.59 8.12L31.99 7.77L32.38 7.41L32.77 7.04L33.15 6.66L33.52 6.28L33.87 5.87L34.22 5.47L34.55 5.06L34.87 4.63L35.18 4.2L35.49 3.75L35.78 3.31L36.06 2.85L36.59 1.91L36.83 1.42L37.07 0.93L37.29 1.42L37.54 1.91ZM36.27 8.81L35.73 9.39L35.45 9.67L35.16 9.95L34.57 10.49L34.28 10.75L33.97 11.01L33.66 11.27L33.35 11.51L32.71 12L32.38 12.23L31.73 12.68L31.39 12.9L31.04 13.12L30.71 13.32L30.36 13.53L30 13.71L29.65 13.91L29.29 14.1L28.92 14.28L28.57 14.45L28.19 14.61L27.83 14.77L27.45 14.93L27.07 15.08L26.69 15.22L26.31 15.35L25.92 15.49L25.53 15.62L24.75 15.84L24.34 15.94L23.95 16.05L23.95 20.44L18.33 20.44L17.77 20.46L17.23 20.49L16.69 20.55L16.14 20.63L15.62 20.72L15.1 20.85L14.59 20.99L14.08 21.15L13.59 21.33L13.1 21.53L12.63 21.74L12.16 21.98L11.7 22.23L11.26 22.5L10.83 22.79L10.41 23.1L10.01 23.42L9.61 23.76L9.24 24.11L8.87 24.47L8.52 24.85L8.18 25.24L7.86 25.65L7.56 26.06L7.27 26.5L7 26.95L6.75 27.39L6.51 27.86L6.29 28.33L6.09 28.82L5.91 29.32L5.74 29.82L5.6 30.34L5.48 30.85L5.39 31.39L5.3 31.92L5.25 32.46L5.22 33.01L5.21 33.56L5.22 34.11L5.25 34.67L5.3 35.21L5.39 35.74L5.48 36.27L5.6 36.79L5.74 37.31L5.91 37.81L6.09 38.3L6.29 38.79L6.5 39.27L6.75 39.74L7 40.18L7.27 40.63L7.56 41.06L7.86 41.48L8.18 41.88L8.52 42.27L8.87 42.66L9.23 43.02L9.61 43.37L10.01 43.71L10.41 44.03L10.83 44.34L11.26 44.62L11.7 44.89L12.16 45.14L12.62 45.39L13.1 45.6L13.59 45.8L14.08 45.98L14.59 46.14L15.09 46.28L15.62 46.4L16.14 46.5L16.69 46.58L17.22 46.63L17.77 46.67L18.33 46.68L23.95 46.68L23.95 51.08L24.34 51.18L24.75 51.29L25.14 51.39L25.53 51.51L25.92 51.63L26.31 51.77L26.69 51.91L27.07 52.05L27.45 52.2L27.83 52.35L28.19 52.52L28.57 52.67L28.92 52.85L29.29 53.03L30 53.41L30.36 53.6L30.71 53.81L31.04 54.01L31.39 54.22L31.73 54.45L32.05 54.66L32.71 55.13L33.03 55.36L33.35 55.61L33.97 56.11L34.28 56.38L34.57 56.64L35.16 57.18L35.45 57.46L35.73 57.74L36 58.02L36.27 58.32L36.54 58.62L36.8 58.92L37.07 59.22L37.32 58.92L37.58 58.62L37.85 58.32L38.13 58.02L38.4 57.74L38.68 57.46L38.97 57.18L39.26 56.91L39.56 56.64L39.85 56.38L40.16 56.11L40.78 55.61L41.1 55.36L41.41 55.13L42.07 54.66L42.4 54.45L42.74 54.22L43.08 54.01L43.42 53.81L43.77 53.6L44.12 53.41L44.83 53.03L45.57 52.67L45.93 52.52L46.31 52.35L46.67 52.2L47.06 52.05L47.43 51.91L47.81 51.77L48.21 51.63L48.59 51.51L48.99 51.39L49.38 51.29L49.78 51.18L50.19 51.08L50.19 46.68L55.8 46.68L56.35 46.67L56.9 46.63L57.44 46.58L57.98 46.5L58.51 46.4L59.03 46.28L59.54 46.13L60.04 45.98L60.54 45.8L61.03 45.6L61.49 45.38L61.96 45.14L62.42 44.89L62.86 44.62L63.29 44.33L63.72 44.03L64.12 43.71L64.51 43.37L64.89 43.02L65.25 42.66L65.61 42.27L65.95 41.88L66.26 41.48L66.56 41.06L66.85 40.63L67.13 40.18L67.38 39.73L67.62 39.27L67.84 38.79L68.03 38.3L68.21 37.8L68.38 37.31L68.52 36.79L68.64 36.27L68.74 35.74L68.82 35.21L68.88 34.67L68.91 34.11L68.92 33.56L68.91 33.01L68.88 32.46L68.82 31.92L68.74 31.38L68.64 30.85L68.52 30.34L68.38 29.82L68.22 29.32L68.03 28.82L67.84 28.33L67.62 27.86L67.38 27.39L67.13 26.95L66.85 26.5L66.57 26.06L66.26 25.65L65.95 25.24L65.61 24.85L65.26 24.47L64.9 24.11L64.51 23.76L64.12 23.42L63.72 23.1L63.29 22.79L62.86 22.5L62.42 22.23L61.96 21.98L61.5 21.74L61.03 21.53L60.54 21.33L60.04 21.15L59.54 20.99L59.03 20.85L58.51 20.72L57.98 20.63L57.45 20.55L56.9 20.49L56.35 20.46L55.8 20.44L50.19 20.44L50.19 16.05L49.38 15.84L48.59 15.62L48.21 15.49L47.81 15.35L47.43 15.22L47.06 15.08L46.67 14.93L46.31 14.77L45.93 14.61L45.2 14.28L44.83 14.1L44.48 13.91L44.12 13.71L43.77 13.53L43.42 13.32L43.08 13.12L42.74 12.9L42.4 12.68L41.74 12.23L41.41 12L40.78 11.51L40.47 11.27L40.16 11.01L39.85 10.75L39.56 10.49L39.26 10.22L38.97 9.95L38.68 9.67L38.4 9.39L37.85 8.81L37.58 8.51L37.32 8.21L37.07 7.91L36.54 8.51L36.27 8.81Z" id="a2AnQJQW82"></path><path d="M108.75 1.91L109.27 2.85L109.55 3.31L109.84 3.75L110.15 4.2L110.46 4.63L110.79 5.06L111.13 5.47L111.47 5.87L111.83 6.28L112.19 6.66L112.57 7.04L112.95 7.41L113.35 7.77L113.75 8.12L114.17 8.46L114.59 8.79L115.02 9.1L115.46 9.41L115.91 9.7L116.36 9.99L116.82 10.26L117.3 10.52L117.78 10.77L118.27 11.01L118.75 11.23L119.25 11.44L119.77 11.63L120.27 11.82L120.8 11.99L121.32 12.15L121.85 12.3L122.38 12.43L122.92 12.54L123.47 12.65L124.02 12.73L124.58 12.81L125.14 12.86L125.14 16.69L127.02 16.69L127.71 16.71L128.4 16.75L129.08 16.83L129.75 16.92L130.41 17.04L131.07 17.19L131.71 17.36L132.35 17.56L132.97 17.78L133.58 18.03L134.18 18.29L134.77 18.58L135.34 18.89L135.9 19.22L136.44 19.58L136.98 19.96L137.49 20.34L137.99 20.76L138.48 21.19L138.94 21.63L139.39 22.1L139.82 22.59L140.23 23.08L140.62 23.6L141 24.13L141.35 24.68L141.68 25.24L142 25.81L142.29 26.4L142.55 27L142.8 27.61L143.02 28.23L143.22 28.87L143.39 29.51L143.54 30.16L143.66 30.82L143.75 31.5L143.83 32.18L143.86 32.87L143.88 33.56L143.86 34.25L143.83 34.95L143.75 35.63L143.66 36.3L143.54 36.96L143.39 37.62L143.22 38.26L143.02 38.89L142.8 39.52L142.55 40.13L142.29 40.73L142 41.31L141.68 41.89L141.35 42.44L141 43L140.62 43.52L140.23 44.04L139.82 44.54L139.39 45.02L138.94 45.49L138.47 45.94L137.99 46.37L137.49 46.78L136.98 47.17L136.44 47.55L135.9 47.91L135.34 48.23L134.77 48.54L134.18 48.83L133.58 49.1L132.97 49.35L132.34 49.57L131.71 49.77L131.07 49.94L130.41 50.09L129.75 50.21L129.08 50.3L128.4 50.37L127.71 50.42L127.02 50.43L125.14 50.43L125.14 54.26L124.58 54.31L124.02 54.39L123.47 54.48L122.92 54.59L122.38 54.7L121.85 54.83L121.31 54.97L120.79 55.13L119.76 55.49L119.25 55.68L118.75 55.9L118.26 56.12L117.77 56.36L117.29 56.6L116.82 56.86L116.36 57.13L115.91 57.42L115.46 57.72L115.02 58.02L114.58 58.34L114.16 58.67L113.75 59.01L113.35 59.36L112.95 59.71L112.57 60.09L112.19 60.46L111.82 60.85L111.46 61.25L110.79 62.07L110.46 62.49L109.84 63.38L109.55 63.82L109.27 64.28L109.01 64.74L108.75 65.22L108.5 65.7L108.28 66.19L108.04 65.7L107.8 65.22L107.54 64.74L107.28 64.28L106.99 63.82L106.7 63.38L106.09 62.49L105.76 62.07L105.42 61.66L105.07 61.25L104.72 60.85L104.35 60.46L103.98 60.09L103.59 59.71L103.2 59.36L102.8 59.01L102.38 58.67L101.95 58.34L101.52 58.02L101.09 57.72L100.64 57.42L100.18 57.13L99.72 56.86L99.25 56.6L98.77 56.36L98.28 56.12L97.79 55.9L97.3 55.68L96.79 55.49L95.76 55.13L95.24 54.97L94.7 54.83L94.17 54.7L93.62 54.59L93.08 54.48L92.53 54.39L91.97 54.31L91.41 54.26L91.41 50.43L89.53 50.43L88.84 50.42L88.15 50.37L87.47 50.3L86.79 50.21L86.14 50.09L85.48 49.94L84.83 49.77L84.21 49.57L83.58 49.35L82.97 49.1L82.37 48.83L81.78 48.54L81.21 48.23L80.65 47.91L80.1 47.55L79.57 47.17L79.05 46.78L78.56 46.37L78.08 45.94L77.61 45.49L77.16 45.02L76.73 44.54L76.32 44.04L75.92 43.52L75.55 43L75.19 42.45L74.87 41.89L74.55 41.32L74.27 40.73L73.99 40.13L73.75 39.52L73.53 38.89L73.33 38.26L73.16 37.62L73.01 36.96L72.89 36.3L72.79 35.63L72.73 34.95L72.68 34.26L72.67 33.56L72.68 32.87L72.73 32.18L72.79 31.5L72.89 30.82L73.01 30.17L73.16 29.51L73.33 28.87L73.53 28.23L73.75 27.61L73.99 27L74.27 26.4L74.56 25.81L74.87 25.24L75.19 24.68L75.55 24.13L75.92 23.6L76.32 23.08L76.73 22.59L77.16 22.1L77.61 21.63L78.08 21.19L78.56 20.76L79.06 20.35L79.58 19.96L80.1 19.58L80.65 19.22L81.21 18.89L81.78 18.58L82.37 18.29L82.97 18.03L83.58 17.78L84.21 17.56L84.83 17.36L85.48 17.19L86.14 17.04L86.8 16.92L87.47 16.83L88.15 16.75L88.84 16.71L89.53 16.69L91.41 16.69L91.41 12.86L91.97 12.81L92.53 12.73L93.08 12.65L93.62 12.54L94.17 12.43L94.7 12.3L95.24 12.15L95.76 11.99L96.28 11.82L96.79 11.63L97.3 11.44L97.79 11.23L98.29 11.01L98.78 10.77L99.25 10.52L99.72 10.26L100.18 9.99L100.64 9.7L101.09 9.41L101.53 9.1L101.96 8.79L102.38 8.46L102.8 8.12L103.2 7.77L103.59 7.41L103.98 7.04L104.36 6.66L104.73 6.28L105.08 5.87L105.43 5.47L105.76 5.06L106.09 4.63L106.39 4.2L106.7 3.75L106.99 3.31L107.28 2.85L107.8 1.91L108.04 1.42L108.28 0.93L108.5 1.42L108.75 1.91ZM107.48 8.81L106.94 9.39L106.66 9.67L106.37 9.95L105.79 10.49L105.49 10.75L105.18 11.01L104.87 11.27L104.56 11.51L103.92 12L103.59 12.23L102.94 12.68L102.6 12.9L102.25 13.12L101.92 13.32L101.57 13.53L101.21 13.71L100.86 13.91L100.5 14.1L100.14 14.28L99.78 14.45L99.4 14.61L99.04 14.77L98.66 14.93L98.28 15.08L97.91 15.22L97.52 15.35L97.13 15.49L96.74 15.62L95.96 15.84L95.55 15.94L95.16 16.05L95.16 20.44L89.54 20.44L88.99 20.46L88.44 20.49L87.9 20.55L87.36 20.63L86.83 20.72L86.32 20.85L85.8 20.99L85.29 21.15L84.8 21.33L84.31 21.53L83.84 21.74L83.37 21.98L82.91 22.23L82.47 22.5L82.04 22.79L81.62 23.1L81.22 23.42L80.82 23.76L80.45 24.11L80.08 24.47L79.73 24.85L79.39 25.24L79.07 25.65L78.77 26.06L78.48 26.5L78.21 26.95L77.96 27.39L77.72 27.86L77.5 28.33L77.3 28.82L77.12 29.32L76.95 29.82L76.81 30.34L76.69 30.85L76.6 31.39L76.51 31.92L76.46 32.46L76.43 33.01L76.42 33.56L76.43 34.11L76.46 34.67L76.51 35.21L76.6 35.74L76.69 36.27L76.81 36.79L76.95 37.31L77.12 37.81L77.3 38.3L77.5 38.79L77.71 39.27L77.96 39.74L78.21 40.18L78.48 40.63L78.77 41.06L79.07 41.48L79.39 41.88L79.73 42.27L80.08 42.66L80.44 43.02L80.82 43.37L81.22 43.71L81.62 44.03L82.04 44.34L82.47 44.62L82.91 44.89L83.37 45.14L83.83 45.39L84.31 45.6L84.8 45.8L85.29 45.98L85.8 46.14L86.31 46.28L86.83 46.4L87.36 46.5L87.9 46.58L88.43 46.63L88.99 46.67L89.54 46.68L95.16 46.68L95.16 51.08L95.55 51.18L95.96 51.29L96.35 51.39L96.74 51.51L97.13 51.63L97.52 51.77L97.91 51.91L98.28 52.05L98.66 52.2L99.04 52.35L99.4 52.52L99.78 52.67L100.14 52.85L100.5 53.03L101.21 53.41L101.57 53.6L101.92 53.81L102.25 54.01L102.6 54.22L102.94 54.45L103.27 54.66L103.92 55.13L104.24 55.36L104.56 55.61L105.18 56.11L105.49 56.38L105.79 56.64L106.37 57.18L106.66 57.46L106.94 57.74L107.21 58.02L107.48 58.32L107.75 58.62L108.02 58.92L108.28 59.22L108.53 58.92L108.79 58.62L109.07 58.32L109.34 58.02L109.61 57.74L109.89 57.46L110.18 57.18L110.47 56.91L110.77 56.64L111.06 56.38L111.37 56.11L111.99 55.61L112.31 55.36L112.63 55.13L113.28 54.66L113.61 54.45L113.95 54.22L114.29 54.01L114.63 53.81L114.98 53.6L115.33 53.41L116.05 53.03L116.78 52.67L117.14 52.52L117.52 52.35L117.88 52.2L118.27 52.05L118.64 51.91L119.03 51.77L119.42 51.63L119.8 51.51L120.2 51.39L120.59 51.29L120.99 51.18L121.4 51.08L121.4 46.68L127.01 46.68L127.56 46.67L128.11 46.63L128.65 46.58L129.19 46.5L129.72 46.4L130.24 46.28L130.75 46.13L131.25 45.98L131.75 45.8L132.24 45.6L132.71 45.38L133.17 45.14L133.63 44.89L134.07 44.62L134.5 44.33L134.93 44.03L135.33 43.71L135.72 43.37L136.1 43.02L136.46 42.66L136.82 42.27L137.16 41.88L137.47 41.48L137.77 41.06L138.06 40.63L138.34 40.18L138.59 39.73L138.83 39.27L139.05 38.79L139.25 38.3L139.42 37.8L139.59 37.31L139.73 36.79L139.85 36.27L139.95 35.74L140.03 35.21L140.09 34.67L140.12 34.11L140.14 33.56L140.12 33.01L140.09 32.46L140.03 31.92L139.95 31.38L139.85 30.85L139.73 30.34L139.59 29.82L139.43 29.32L139.25 28.82L139.05 28.33L138.83 27.86L138.59 27.39L138.34 26.95L138.06 26.5L137.78 26.06L137.47 25.65L137.16 25.24L136.82 24.85L136.47 24.47L136.11 24.11L135.72 23.76L135.33 23.42L134.93 23.1L134.5 22.79L134.07 22.5L133.63 22.23L133.17 21.98L132.71 21.74L132.24 21.53L131.75 21.33L131.25 21.15L130.75 20.99L130.24 20.85L129.72 20.72L129.19 20.63L128.66 20.55L128.11 20.49L127.56 20.46L127.01 20.44L121.4 20.44L121.4 16.05L120.59 15.84L119.8 15.62L119.42 15.49L119.03 15.35L118.64 15.22L118.27 15.08L117.88 14.93L117.52 14.77L117.14 14.61L116.41 14.28L116.05 14.1L115.69 13.91L115.33 13.71L114.98 13.53L114.63 13.32L114.29 13.12L113.95 12.9L113.61 12.68L112.95 12.23L112.63 12L111.99 11.51L111.68 11.27L111.37 11.01L111.06 10.75L110.77 10.49L110.47 10.22L110.18 9.95L109.89 9.67L109.61 9.39L109.07 8.81L108.79 8.51L108.53 8.21L108.28 7.91L107.75 8.51L107.48 8.81Z" id="c6RU9PSBgF"></path></defs><g><g><use xlink:href="#a2AnQJQW82" opacity="1" fill="#ebe7e7" fill-opacity="1"></use><g><use xlink:href="#a2AnQJQW82" opacity="1" fill-opacity="0" stroke="#000000" stroke-width="1" stroke-opacity="0"></use></g></g><g><use xlink:href="#c6RU9PSBgF" opacity="1" fill="#ebe7e7" fill-opacity="1"></use><g><use xlink:href="#c6RU9PSBgF" opacity="1" fill-opacity="0" stroke="#000000" stroke-width="1" stroke-opacity="0"></use></g></g></g></svg>