<?xml version="1.0" encoding="UTF-8" standalone="no"?>
<!DOCTYPE svg PUBLIC "-//W3C//DTD SVG 1.1//EN" "http://www.w3.org/Graphics/SVG/1.1/DTD/svg11.dtd">
<svg version="1.1" xmlns="http://www.w3.org/2000/svg" xmlns:xlink="http://www.w3.org/1999/xlink" preserveAspectRatio="xMidYMid meet" viewBox="38.52209534851255 1778.0164822875988 27.993055555554747 21.322186270110933" width="23.99" height="17.32"><defs><path d="M44.92 1779.22L45.54 1779.46L46.1 1779.78L46.58 1780.18L46.97 1780.65L47.27 1781.19L47.46 1781.78L47.52 1782.42L47.58 1781.78L47.77 1781.19L48.07 1780.65L48.46 1780.18L48.94 1779.78L49.5 1779.46L50.12 1779.22L50.8 1779.07L51.52 1779.02L52.24 1779.07L52.91 1779.24L53.54 1779.51L53.57 1779.53L54.1 1779.83L54.58 1780.24L54.97 1780.71L55.27 1781.24L55.45 1781.83L55.52 1782.47L55.58 1781.83L55.77 1781.24L56.06 1780.71L56.46 1780.24L56.94 1779.83L57.5 1779.51L58.12 1779.27L58.8 1779.12L59.52 1779.07L60.24 1779.13L60.91 1779.3L61.53 1779.56L62.09 1779.92L62.57 1780.35L62.97 1780.85L63.27 1781.42L63.45 1782.02L63.52 1782.67L63.24 1784.4L62.51 1785.93L61.44 1787.26L60.18 1788.39L58.96 1789.24L58.96 1796.34L44.07 1796.34L44.07 1789.18L42.86 1788.33L41.6 1787.21L40.53 1785.88L39.8 1784.35L39.52 1782.62L39.59 1781.97L39.77 1781.36L40.07 1780.8L40.46 1780.3L40.94 1779.86L41.5 1779.51L42.13 1779.24L42.8 1779.07L43.52 1779.02L44.24 1779.07L44.92 1779.22Z" id="f20JEcl0e"></path></defs><g><g><g><use xlink:href="#f20JEcl0e" opacity="1" fill-opacity="0" stroke="#a7a7a7" stroke-width="1" stroke-opacity="1"></use></g></g></g></svg>