<?xml version="1.0" encoding="UTF-8" standalone="no"?>
<!DOCTYPE svg PUBLIC "-//W3C//DTD SVG 1.1//EN" "http://www.w3.org/Graphics/SVG/1.1/DTD/svg11.dtd">
<svg version="1.1" xmlns="http://www.w3.org/2000/svg" xmlns:xlink="http://www.w3.org/1999/xlink" preserveAspectRatio="xMidYMid meet" viewBox="844.7192022110023 4375.991136401746 19.668799434569337 35.4265722172604" width="15.67" height="31.43"><defs><path d="M849.11 4387.4C848.88 4387.4 847.75 4387.4 845.72 4387.4L845.72 4392.7L849.11 4392.7L849.11 4408.42L856.06 4408.42L856.06 4392.7C858.86 4392.7 860.42 4392.7 860.73 4392.7C860.73 4392.7 861.17 4390.16 861.38 4387.38C860.77 4387.38 856.09 4387.38 856.09 4387.38C856.09 4387.38 856.09 4384.31 856.09 4383.77C856.09 4383.23 856.85 4382.5 857.6 4382.5C858.35 4382.5 859.93 4382.5 861.39 4382.5C861.39 4381.78 861.39 4379.29 861.39 4376.99C859.44 4376.99 857.21 4376.99 856.23 4376.99C848.93 4376.99 849.11 4382.29 849.11 4383.08C849.11 4383.87 849.11 4386.54 849.11 4387.4Z" id="b2dsa0syuS"></path></defs><g><g><g><use xlink:href="#b2dsa0syuS" opacity="1" fill-opacity="0" stroke="#4a4a4a" stroke-width="2" stroke-opacity="1"></use></g></g></g></svg>