<?xml version="1.0" encoding="UTF-8" standalone="no"?>
<!DOCTYPE svg PUBLIC "-//W3C//DTD SVG 1.1//EN" "http://www.w3.org/Graphics/SVG/1.1/DTD/svg11.dtd">
<svg version="1.1" xmlns="http://www.w3.org/2000/svg" xmlns:xlink="http://www.w3.org/1999/xlink" preserveAspectRatio="xMidYMid meet" viewBox="260.4900654400928 3619.116636119663 106.95195095730662 122.67387171268774" width="100.95" height="116.67"><defs><path d="M280.43 3622.16L280.73 3622.19L281.03 3622.24L281.32 3622.3L281.6 3622.37L281.88 3622.44L282.14 3622.52L282.39 3622.6L282.64 3622.69L282.86 3622.78L283.08 3622.87L283.28 3622.95L283.47 3623.04L283.64 3623.12L283.8 3623.2L283.93 3623.27L284.05 3623.33L284.15 3623.39L284.23 3623.43L284.29 3623.46L284.32 3623.49L284.33 3623.49L302.76 3644.69L303.09 3645.13L303.39 3645.57L303.65 3646.01L303.87 3646.44L304.07 3646.87L304.24 3647.29L304.38 3647.71L304.49 3648.13L304.58 3648.53L304.64 3648.94L304.68 3649.33L304.7 3649.72L304.7 3650.1L304.68 3650.46L304.65 3650.83L304.6 3651.18L304.54 3651.52L304.47 3651.84L304.38 3652.16L304.29 3652.47L304.19 3652.76L304.09 3653.04L303.98 3653.3L303.86 3653.55L303.75 3653.79L303.64 3654.01L303.53 3654.21L303.42 3654.4L303.32 3654.57L303.22 3654.72L303.13 3654.85L303.05 3654.97L302.99 3655.06L302.93 3655.14L302.89 3655.19L302.86 3655.23L302.85 3655.24L291.63 3668.22L291.74 3668.76L291.91 3669.33L292.13 3669.93L292.39 3670.57L292.69 3671.23L293.03 3671.92L293.41 3672.64L293.81 3673.37L294.25 3674.12L294.71 3674.88L295.19 3675.66L295.7 3676.44L296.22 3677.23L296.75 3678.02L297.3 3678.81L297.85 3679.6L298.41 3680.38L298.97 3681.15L299.53 3681.91L300.09 3682.65L300.64 3683.37L301.18 3684.08L301.7 3684.76L302.21 3685.41L302.71 3686.03L303.17 3686.62L303.62 3687.17L304.03 3687.69L304.42 3688.16L304.77 3688.59L305.08 3688.97L305.36 3689.3L305.59 3689.58L305.77 3689.8L305.91 3689.96L305.99 3690.06L306.02 3690.09L305.98 3690.14L306.14 3690.32L306.39 3690.6L306.69 3690.94L307.04 3691.32L307.43 3691.74L307.86 3692.21L308.32 3692.71L308.82 3693.25L309.36 3693.81L309.92 3694.4L310.51 3695.02L311.12 3695.65L311.75 3696.29L312.41 3696.95L313.07 3697.61L313.75 3698.27L314.44 3698.94L315.14 3699.59L315.84 3700.24L316.54 3700.88L317.24 3701.5L317.94 3702.11L318.63 3702.68L319.32 3703.24L319.99 3703.76L320.64 3704.24L321.28 3704.69L321.89 3705.09L322.49 3705.45L323.06 3705.75L323.6 3706.01L324.1 3706.2L324.58 3706.33L335.81 3693.35L335.82 3693.34L335.85 3693.31L335.89 3693.25L335.96 3693.19L336.05 3693.11L336.15 3693.01L336.28 3692.9L336.41 3692.79L336.57 3692.66L336.74 3692.53L336.92 3692.4L337.12 3692.27L337.34 3692.13L337.57 3692L337.81 3691.87L338.06 3691.75L338.32 3691.64L338.6 3691.53L338.89 3691.44L339.19 3691.36L339.49 3691.29L339.81 3691.25L340.13 3691.22L340.47 3691.21L340.81 3691.23L341.16 3691.27L341.51 3691.33L341.88 3691.43L342.24 3691.56L342.61 3691.72L342.99 3691.91L343.37 3692.14L343.75 3692.41L344.14 3692.72L344.53 3693.07L344.92 3693.46L363.25 3714.66L363.26 3714.67L363.28 3714.72L363.31 3714.79L363.35 3714.88L363.4 3715L363.46 3715.15L363.52 3715.31L363.59 3715.5L363.66 3715.71L363.74 3715.94L363.82 3716.18L363.89 3716.44L363.97 3716.72L364.05 3717.01L364.12 3717.32L364.19 3717.64L364.25 3717.97L364.31 3718.31L364.36 3718.66L364.39 3719.01L364.42 3719.38L364.44 3719.75L364.44 3720.12L364.43 3720.5L364.41 3720.88L364.36 3721.26L364.3 3721.64L364.23 3722.02L364.13 3722.39L364.01 3722.77L363.86 3723.13L363.7 3723.5L363.51 3723.85L363.29 3724.2L363.05 3724.54L362.77 3724.87L353.85 3735.19L353.81 3735.22L353.7 3735.29L353.52 3735.41L353.27 3735.57L352.95 3735.76L352.56 3735.97L352.11 3736.21L351.58 3736.46L350.99 3736.72L350.34 3736.99L349.62 3737.26L348.83 3737.52L347.98 3737.78L347.07 3738.01L346.1 3738.23L345.07 3738.42L343.97 3738.57L342.82 3738.69L341.61 3738.76L340.34 3738.79L339.02 3738.76L337.64 3738.68L336.2 3738.52L334.71 3738.3L333.17 3738L331.57 3737.63L329.92 3737.16L328.22 3736.6L326.47 3735.95L324.67 3735.19L322.82 3734.33L320.92 3733.35L318.98 3732.26L316.99 3731.04L314.95 3729.69L312.87 3728.2L312.84 3728.18L312.76 3728.13L312.63 3728.05L312.45 3727.94L312.21 3727.79L311.94 3727.61L311.61 3727.39L311.25 3727.15L310.84 3726.87L310.39 3726.56L309.9 3726.22L309.38 3725.85L308.81 3725.45L308.22 3725.01L307.59 3724.55L306.94 3724.05L306.25 3723.53L305.54 3722.97L304.8 3722.38L304.04 3721.77L303.25 3721.12L302.45 3720.45L301.63 3719.74L300.78 3719.01L299.93 3718.25L299.06 3717.45L298.17 3716.63L297.28 3715.79L296.38 3714.91L295.46 3714.01L294.55 3713.07L293.63 3712.11L292.7 3711.13L291.78 3710.11L290.85 3709.07L289.93 3708L289.98 3707.95L289.38 3707.26L288.49 3706.22L287.63 3705.18L286.79 3704.14L285.97 3703.1L285.18 3702.07L284.41 3701.04L283.66 3700.02L282.94 3699.01L282.24 3698.02L281.56 3697.03L280.91 3696.06L280.28 3695.11L279.67 3694.17L279.09 3693.26L278.54 3692.37L278.01 3691.5L277.5 3690.65L277.02 3689.84L276.56 3689.05L276.13 3688.29L275.72 3687.57L275.34 3686.88L274.98 3686.22L274.65 3685.6L274.34 3685.03L274.06 3684.49L273.81 3684L273.58 3683.55L273.38 3683.14L273.21 3682.79L273.06 3682.48L272.94 3682.23L272.84 3682.03L272.77 3681.88L272.73 3681.8L272.72 3681.77L271.46 3679.42L270.31 3677.13L269.27 3674.89L268.34 3672.69L267.5 3670.55L266.75 3668.46L266.09 3666.43L265.52 3664.44L265.03 3662.52L264.61 3660.65L264.27 3658.83L264 3657.08L263.79 3655.38L263.63 3653.74L263.54 3652.16L263.49 3650.64L263.49 3649.19L263.53 3647.79L263.61 3646.46L263.72 3645.2L263.87 3644L264.03 3642.86L264.22 3641.8L264.42 3640.8L264.64 3639.87L264.86 3639.01L265.09 3638.22L265.31 3637.5L265.53 3636.85L265.74 3636.28L265.94 3635.78L266.12 3635.35L266.27 3635L266.4 3634.73L266.5 3634.53L266.56 3634.41L266.58 3634.37L275.5 3624.05L275.78 3623.74L276.07 3623.46L276.36 3623.22L276.66 3623L276.96 3622.81L277.27 3622.64L277.58 3622.5L277.9 3622.39L278.22 3622.3L278.54 3622.22L278.86 3622.17L279.18 3622.14L279.5 3622.12L279.81 3622.12L280.12 3622.13L280.43 3622.16Z" id="h1pNJ7Xrv"></path></defs><g><g><use xlink:href="#h1pNJ7Xrv" opacity="1" fill="#000000" fill-opacity="0"></use><g><use xlink:href="#h1pNJ7Xrv" opacity="1" fill-opacity="0" stroke="#000000" stroke-width="6" stroke-opacity="1"></use></g></g></g></svg>