<?xml version="1.0" encoding="UTF-8" standalone="no"?>
<!DOCTYPE svg PUBLIC "-//W3C//DTD SVG 1.1//EN" "http://www.w3.org/Graphics/SVG/1.1/DTD/svg11.dtd">
<svg version="1.1" xmlns="http://www.w3.org/2000/svg" xmlns:xlink="http://www.w3.org/1999/xlink" preserveAspectRatio="xMidYMid meet" viewBox="813.7496878369666 4092.381367647073 81.6078281826409 80.45443564843617" width="77.61" height="76.45"><defs><path d="M847.34 4093.38L847.37 4093.38L847.39 4093.38L847.42 4093.38L847.45 4093.38L847.49 4093.38L847.52 4093.38L847.56 4093.39L847.6 4093.39L847.64 4093.39L847.68 4093.39L847.71 4093.39L847.75 4093.39L847.78 4093.4L847.81 4093.4L847.85 4093.4L847.88 4093.4L847.91 4093.4L847.94 4093.41L847.97 4093.41L848 4093.41L848.03 4093.42L848.06 4093.42L848.09 4093.43L848.12 4093.43L848.15 4093.43L848.18 4093.44L848.21 4093.45L848.24 4093.45L848.27 4093.46L848.31 4093.47L848.34 4093.47L848.38 4093.48L848.42 4093.49L848.46 4093.5L848.5 4093.51L848.54 4093.52L848.58 4093.53L848.63 4093.55L848.68 4093.56L848.73 4093.57L848.78 4093.59L848.84 4093.6L848.89 4093.62L848.95 4093.64L849.02 4093.65L849.08 4093.67L849.35 4093.75L849.62 4093.83L849.89 4093.91L850.16 4093.99L850.43 4094.08L850.7 4094.16L850.96 4094.25L851.23 4094.33L851.5 4094.42L851.76 4094.51L852.03 4094.6L852.29 4094.69L852.55 4094.78L852.82 4094.88L853.08 4094.97L853.34 4095.07L853.61 4095.17L853.87 4095.27L854.14 4095.37L854.4 4095.47L854.66 4095.58L854.93 4095.69L855.19 4095.79L855.46 4095.9L855.72 4096.01L855.99 4096.13L856.26 4096.24L856.52 4096.36L856.79 4096.47L857.06 4096.59L857.33 4096.72L857.6 4096.84L857.88 4096.96L858.15 4097.09L858.42 4097.22L858.7 4097.35L858.98 4097.49L859.26 4097.62L859.53 4097.76L859.82 4097.9L860.21 4098.09L860.6 4098.29L861 4098.49L861.38 4098.7L861.77 4098.9L862.16 4099.11L862.54 4099.32L862.92 4099.53L863.3 4099.74L863.68 4099.96L864.05 4100.18L864.42 4100.4L864.8 4100.62L865.16 4100.84L865.53 4101.06L865.9 4101.29L866.26 4101.52L866.62 4101.75L866.98 4101.98L867.33 4102.22L867.69 4102.45L868.04 4102.69L868.39 4102.93L868.74 4103.17L869.09 4103.42L869.43 4103.66L869.77 4103.91L870.11 4104.16L870.45 4104.41L870.78 4104.67L871.12 4104.92L871.45 4105.18L871.78 4105.44L872.11 4105.7L872.43 4105.96L872.75 4106.23L873.07 4106.49L873.39 4106.76L873.71 4107.03L874.02 4107.31L874.1 4107.38L874.19 4107.45L874.28 4107.53L874.37 4107.62L874.47 4107.71L874.57 4107.8L874.68 4107.9L874.78 4108L874.9 4108.11L875.01 4108.22L875.13 4108.33L875.25 4108.44L875.37 4108.56L875.49 4108.68L875.62 4108.8L875.74 4108.92L875.87 4109.05L876 4109.17L876.13 4109.3L876.25 4109.42L876.38 4109.55L876.51 4109.68L876.63 4109.8L876.76 4109.93L876.88 4110.05L877 4110.17L877.12 4110.29L877.24 4110.41L877.35 4110.53L877.46 4110.64L877.57 4110.76L877.67 4110.86L877.78 4110.97L877.87 4111.07L877.96 4111.17L878.05 4111.26L878.14 4111.35L878.21 4111.44L878.28 4111.52L878.35 4111.59L878.54 4111.81L878.73 4112.02L878.91 4112.24L879.1 4112.46L879.28 4112.67L879.47 4112.9L879.65 4113.12L879.83 4113.34L880.01 4113.57L880.2 4113.79L880.38 4114.02L880.55 4114.25L880.73 4114.48L880.91 4114.71L881.09 4114.95L881.26 4115.18L881.44 4115.42L881.61 4115.66L881.79 4115.9L881.96 4116.14L882.13 4116.38L882.31 4116.62L882.48 4116.87L882.65 4117.12L882.82 4117.36L882.98 4117.61L883.15 4117.86L883.32 4118.12L883.48 4118.37L883.65 4118.62L883.81 4118.88L883.98 4119.14L884.14 4119.4L884.3 4119.66L884.46 4119.92L884.62 4120.18L884.78 4120.45L884.94 4120.71L885.1 4120.98L885.26 4121.25L885.37 4121.44L885.48 4121.64L885.59 4121.83L885.71 4122.03L885.82 4122.23L885.93 4122.44L886.04 4122.64L886.16 4122.84L886.27 4123.05L886.38 4123.26L886.49 4123.47L886.61 4123.68L886.72 4123.89L886.83 4124.1L886.94 4124.32L887.05 4124.53L887.16 4124.75L887.27 4124.97L887.39 4125.19L887.5 4125.41L887.61 4125.63L887.72 4125.85L887.83 4126.07L887.94 4126.3L888.05 4126.52L888.15 4126.75L888.26 4126.98L888.37 4127.2L888.48 4127.43L888.59 4127.66L888.69 4127.89L888.8 4128.12L888.91 4128.35L889.01 4128.59L889.12 4128.82L889.22 4129.05L889.33 4129.29L889.43 4129.52L889.53 4129.75L889.63 4129.99L889.68 4130.1L889.74 4130.23L889.8 4130.37L889.86 4130.51L889.92 4130.67L889.99 4130.83L890.06 4131L890.14 4131.18L890.21 4131.36L890.29 4131.55L890.37 4131.74L890.45 4131.94L890.54 4132.13L890.62 4132.34L890.71 4132.54L890.79 4132.75L890.88 4132.95L890.96 4133.16L891.04 4133.36L891.13 4133.57L891.21 4133.77L891.29 4133.97L891.37 4134.17L891.45 4134.36L891.53 4134.54L891.6 4134.73L891.67 4134.9L891.74 4135.07L891.8 4135.23L891.86 4135.38L891.92 4135.53L891.97 4135.66L892.02 4135.79L892.07 4135.9L892.11 4136L892.14 4136.09L892.17 4136.17L892.2 4136.24L892.21 4136.29L892.23 4136.32L892.24 4136.36L892.25 4136.39L892.26 4136.43L892.27 4136.47L892.27 4136.51L892.28 4136.56L892.29 4136.6L892.3 4136.65L892.3 4136.69L892.31 4136.74L892.32 4136.79L892.32 4136.83L892.33 4136.88L892.33 4136.93L892.34 4136.98L892.34 4137.03L892.35 4137.09L892.35 4137.14L892.35 4137.19L892.35 4137.24L892.36 4137.29L892.36 4137.34L892.36 4137.4L892.36 4137.45L892.36 4137.5L892.36 4137.55L892.36 4137.6L892.35 4137.65L892.35 4137.7L892.35 4137.75L892.35 4137.79L892.34 4137.84L892.34 4137.89L892.33 4137.93L892.33 4137.97L892.32 4138.02L892.32 4138.06L892.31 4138.1L892.3 4138.13L892.29 4138.17L892.28 4138.24L892.26 4138.32L892.24 4138.39L892.21 4138.46L892.19 4138.53L892.16 4138.6L892.14 4138.66L892.11 4138.73L892.08 4138.8L892.04 4138.86L892.01 4138.93L891.97 4138.99L891.94 4139.06L891.9 4139.12L891.86 4139.18L891.81 4139.24L891.77 4139.3L891.72 4139.36L891.68 4139.42L891.63 4139.48L891.58 4139.53L891.53 4139.59L891.47 4139.64L891.42 4139.7L891.36 4139.75L891.3 4139.8L891.25 4139.86L891.18 4139.91L891.12 4139.96L891.06 4140L890.99 4140.05L890.92 4140.1L890.86 4140.14L890.79 4140.19L890.71 4140.23L890.64 4140.28L890.57 4140.32L890.49 4140.36L890.41 4140.4L890.33 4140.44L890.31 4140.45L890.28 4140.46L890.25 4140.48L890.2 4140.49L890.16 4140.51L890.1 4140.53L890.05 4140.55L889.98 4140.58L889.91 4140.6L889.83 4140.63L889.75 4140.66L889.67 4140.69L889.57 4140.73L889.48 4140.76L889.37 4140.8L889.27 4140.84L889.15 4140.88L889.04 4140.92L888.92 4140.96L888.79 4141L888.66 4141.05L888.52 4141.09L888.39 4141.14L888.24 4141.19L888.09 4141.24L887.94 4141.29L887.79 4141.35L887.63 4141.4L887.47 4141.46L887.3 4141.51L887.13 4141.57L886.96 4141.63L886.78 4141.69L886.6 4141.75L886.42 4141.81L886.24 4141.87L886.05 4141.94L885.86 4142L885.66 4142.06L885.47 4142.13L881.04 4143.61L849.11 4156.61L847.79 4157.14L846.5 4157.67L845.21 4158.2L843.94 4158.71L842.69 4159.22L841.45 4159.73L840.23 4160.23L839.03 4160.71L837.84 4161.2L836.68 4161.67L835.54 4162.13L834.43 4162.58L833.34 4163.03L832.27 4163.46L831.23 4163.89L830.22 4164.3L829.23 4164.7L828.28 4165.09L827.36 4165.46L826.46 4165.83L825.6 4166.18L824.78 4166.51L823.98 4166.83L823.23 4167.14L822.51 4167.43L821.83 4167.71L821.19 4167.97L820.58 4168.22L820.02 4168.44L819.5 4168.65L819.03 4168.85L818.6 4169.02L818.21 4169.18L817.87 4169.32L817.58 4169.44L817.33 4169.53L817.14 4169.61L816.99 4169.67L816.9 4169.71L816.86 4169.72L816.8 4169.74L816.75 4169.76L816.69 4169.78L816.63 4169.79L816.57 4169.81L816.51 4169.82L816.45 4169.82L816.39 4169.83L816.34 4169.83L816.28 4169.84L816.22 4169.84L816.16 4169.83L816.11 4169.83L816.05 4169.82L815.99 4169.81L815.94 4169.8L815.88 4169.79L815.83 4169.78L815.78 4169.76L815.72 4169.74L815.67 4169.72L815.62 4169.7L815.57 4169.68L815.52 4169.65L815.47 4169.63L815.43 4169.6L815.38 4169.57L815.34 4169.53L815.29 4169.5L815.25 4169.46L815.21 4169.43L815.17 4169.39L815.13 4169.35L815.09 4169.3L815.06 4169.26L815.02 4169.21L814.99 4169.17L814.96 4169.12L814.93 4169.07L814.9 4169.02L814.89 4169L814.88 4168.98L814.87 4168.96L814.86 4168.94L814.86 4168.92L814.85 4168.91L814.84 4168.89L814.83 4168.88L814.83 4168.86L814.82 4168.84L814.82 4168.83L814.81 4168.81L814.81 4168.8L814.8 4168.79L814.8 4168.77L814.79 4168.76L814.79 4168.74L814.78 4168.73L814.78 4168.71L814.78 4168.7L814.77 4168.68L814.77 4168.67L814.77 4168.65L814.77 4168.64L814.76 4168.62L814.76 4168.6L814.76 4168.59L814.76 4168.57L814.76 4168.55L814.75 4168.53L814.75 4168.51L814.75 4168.49L814.75 4168.47L814.75 4168.45L814.75 4168.43L814.75 4168.41L814.75 4168.38L814.75 4168.36L814.75 4168.33L814.75 4168.31L814.75 4167.89L818.73 4158.48L818.9 4158.08L819.08 4157.66L819.26 4157.22L819.46 4156.75L819.66 4156.27L819.87 4155.78L820.09 4155.26L820.32 4154.73L820.55 4154.18L820.79 4153.61L821.03 4153.04L821.28 4152.45L821.53 4151.84L821.79 4151.23L822.06 4150.6L822.33 4149.96L822.6 4149.32L822.87 4148.66L823.15 4148L823.43 4147.33L823.72 4146.66L824.01 4145.98L824.29 4145.29L824.58 4144.61L824.88 4143.92L825.17 4143.22L825.46 4142.53L825.75 4141.84L826.04 4141.14L826.34 4140.45L826.63 4139.76L826.92 4139.07L827.2 4138.39L827.49 4137.71L827.77 4137.03L828.06 4136.36L828.33 4135.7L828.61 4135.05L828.88 4134.4L829.15 4133.77L829.41 4133.14L829.67 4132.52L829.93 4131.9L830.19 4131.3L830.44 4130.69L830.69 4130.1L830.94 4129.52L831.18 4128.94L831.42 4128.37L831.66 4127.82L831.89 4127.27L832.11 4126.73L832.33 4126.21L832.55 4125.7L832.76 4125.2L832.96 4124.71L833.16 4124.24L833.36 4123.78L833.54 4123.34L833.72 4122.91L833.9 4122.49L834.07 4122.1L834.23 4121.72L834.38 4121.35L834.53 4121L834.67 4120.68L834.8 4120.37L834.92 4120.08L835.03 4119.8L835.14 4119.55L835.24 4119.32L835.33 4119.11L835.4 4118.93L835.47 4118.76L835.53 4118.62L835.59 4118.5L835.63 4118.4L835.66 4118.33L835.68 4118.28L835.69 4118.26L835.69 4118.25L835.7 4118.22L835.72 4118.18L835.74 4118.14L835.77 4118.08L835.8 4118.01L835.83 4117.93L835.87 4117.84L835.91 4117.74L835.96 4117.63L836.01 4117.51L836.06 4117.38L836.12 4117.24L836.18 4117.1L836.25 4116.94L836.31 4116.78L836.39 4116.61L836.46 4116.43L836.54 4116.25L836.62 4116.06L836.7 4115.86L836.79 4115.65L836.88 4115.44L836.97 4115.22L837.06 4115L837.16 4114.77L837.26 4114.53L837.36 4114.29L837.46 4114.04L837.57 4113.79L837.68 4113.53L837.79 4113.27L837.9 4113.01L838.01 4112.74L838.12 4112.47L838.24 4112.19L838.36 4111.92L838.47 4111.63L838.59 4111.35L838.71 4111.06L838.89 4110.65L839.05 4110.25L839.21 4109.87L839.37 4109.5L839.52 4109.14L839.66 4108.8L839.8 4108.47L839.93 4108.15L840.06 4107.84L840.18 4107.55L840.29 4107.27L840.41 4107L840.51 4106.74L840.62 4106.49L840.72 4106.25L840.81 4106.02L840.9 4105.81L840.98 4105.6L841.07 4105.4L841.14 4105.21L841.22 4105.02L841.29 4104.85L841.35 4104.68L841.42 4104.53L841.48 4104.37L841.54 4104.23L841.59 4104.09L841.64 4103.96L841.69 4103.83L841.74 4103.71L841.78 4103.6L841.82 4103.49L841.86 4103.39L841.9 4103.28L841.94 4103.19L841.97 4103.1L842 4103.01L842.03 4102.92L842.06 4102.84L842.09 4102.76L842.19 4102.46L842.29 4102.17L842.39 4101.88L842.48 4101.6L842.58 4101.32L842.67 4101.04L842.77 4100.77L842.86 4100.51L842.95 4100.24L843.04 4099.99L843.13 4099.73L843.21 4099.49L843.3 4099.25L843.38 4099.01L843.46 4098.78L843.54 4098.55L843.62 4098.33L843.7 4098.12L843.77 4097.91L843.84 4097.71L843.91 4097.52L843.98 4097.33L844.04 4097.15L844.11 4096.97L844.17 4096.8L844.23 4096.64L844.29 4096.48L844.34 4096.34L844.39 4096.2L844.44 4096.06L844.49 4095.94L844.54 4095.82L844.58 4095.71L844.62 4095.61L844.66 4095.51L844.69 4095.43L844.72 4095.35L844.75 4095.28L844.78 4095.22L844.8 4095.17L844.83 4095.1L844.87 4095.03L844.9 4094.97L844.94 4094.9L844.97 4094.84L845.01 4094.78L845.05 4094.72L845.08 4094.66L845.12 4094.6L845.16 4094.54L845.2 4094.48L845.24 4094.43L845.28 4094.38L845.32 4094.32L845.37 4094.27L845.41 4094.22L845.45 4094.18L845.5 4094.13L845.55 4094.08L845.59 4094.04L845.64 4094L845.69 4093.96L845.73 4093.92L845.78 4093.88L845.83 4093.84L845.88 4093.8L845.94 4093.77L845.99 4093.73L846.04 4093.7L846.09 4093.67L846.15 4093.64L846.2 4093.61L846.26 4093.59L846.32 4093.56L846.37 4093.54L846.43 4093.51L846.49 4093.49L846.55 4093.47L846.61 4093.45L846.67 4093.43L846.68 4093.43L846.7 4093.43L846.71 4093.42L846.72 4093.42L846.74 4093.42L846.75 4093.41L846.76 4093.41L846.78 4093.41L846.8 4093.41L846.81 4093.41L846.83 4093.4L846.84 4093.4L846.86 4093.4L846.88 4093.4L846.9 4093.4L846.92 4093.39L846.94 4093.39L846.96 4093.39L846.98 4093.39L847 4093.39L847.02 4093.39L847.04 4093.39L847.06 4093.39L847.08 4093.38L847.11 4093.38L847.13 4093.38L847.15 4093.38L847.18 4093.38L847.2 4093.38L847.23 4093.38L847.26 4093.38L847.28 4093.38L847.31 4093.38L847.34 4093.38ZM843.28 4108.31L843.28 4108.32L843.27 4108.35L843.25 4108.38L843.24 4108.41L843.22 4108.45L843.2 4108.5L843.18 4108.55L843.15 4108.61L843.13 4108.68L843.1 4108.75L843.07 4108.82L843.03 4108.9L843 4108.99L842.96 4109.08L842.92 4109.17L842.88 4109.27L842.83 4109.37L842.79 4109.48L842.74 4109.59L842.69 4109.71L842.64 4109.83L842.59 4109.96L842.54 4110.08L842.48 4110.21L842.43 4110.35L842.37 4110.49L842.25 4110.77L842.12 4111.07L842.06 4111.22L841.93 4111.53L841.86 4111.69L841.73 4112.01L841.66 4112.18L841.59 4112.34L841.48 4112.6L841.38 4112.84L841.29 4113.07L841.19 4113.29L841.1 4113.5L841.02 4113.71L840.94 4113.9L840.86 4114.08L840.79 4114.26L840.72 4114.43L840.66 4114.58L840.6 4114.73L840.54 4114.87L840.48 4115.01L840.43 4115.13L840.38 4115.25L840.34 4115.36L840.3 4115.47L840.26 4115.56L840.22 4115.65L840.19 4115.74L840.16 4115.81L840.13 4115.88L840.11 4115.95L840.08 4116.01L840.06 4116.06L840.05 4116.11L840.03 4116.16L840.02 4116.2L840.01 4116.23L840 4116.26L839.99 4116.29L839.99 4116.31L839.99 4116.33L839.98 4116.34L839.98 4116.35L839.99 4116.36L839.99 4116.36L839.99 4116.37L840 4116.37L840 4116.36L840.01 4116.36L840.02 4116.36L840.03 4116.36L840.04 4116.36L840.05 4116.36L840.06 4116.35L840.07 4116.35L840.08 4116.35L840.1 4116.35L840.11 4116.35L840.13 4116.35L840.14 4116.35L840.16 4116.34L840.18 4116.34L840.2 4116.34L840.22 4116.34L840.24 4116.34L840.26 4116.34L840.28 4116.33L840.31 4116.33L840.33 4116.33L840.35 4116.33L840.38 4116.33L840.4 4116.33L840.43 4116.32L840.48 4116.32L840.53 4116.32L840.56 4116.32L840.59 4116.31L840.61 4116.31L840.67 4116.31L840.73 4116.31L840.76 4116.31L840.79 4116.3L840.82 4116.3L841.14 4116.3L841.46 4116.3L841.79 4116.31L842.1 4116.34L842.42 4116.38L842.74 4116.43L843.05 4116.49L843.35 4116.56L843.66 4116.64L843.96 4116.72L844.26 4116.82L844.55 4116.93L844.84 4117.05L845.13 4117.18L845.41 4117.32L845.68 4117.46L845.95 4117.62L846.22 4117.78L846.48 4117.95L846.73 4118.14L846.98 4118.32L847.22 4118.52L847.45 4118.73L847.68 4118.94L847.9 4119.16L848.11 4119.38L848.32 4119.62L848.51 4119.86L848.7 4120.11L848.88 4120.36L849.06 4120.62L849.22 4120.89L849.37 4121.16L849.52 4121.44L849.65 4121.72L849.78 4122.01L849.9 4122.31L850 4122.61L850.1 4122.91L850.18 4123.22L850.2 4123.29L850.21 4123.35L850.23 4123.41L850.24 4123.47L850.26 4123.53L850.27 4123.59L850.28 4123.65L850.3 4123.71L850.31 4123.77L850.32 4123.83L850.33 4123.89L850.34 4123.95L850.35 4124L850.36 4124.06L850.37 4124.12L850.37 4124.18L850.38 4124.24L850.39 4124.29L850.4 4124.35L850.4 4124.41L850.41 4124.47L850.41 4124.53L850.42 4124.59L850.42 4124.65L850.43 4124.71L850.43 4124.77L850.43 4124.83L850.44 4124.89L850.44 4124.96L850.44 4125.02L850.44 4125.09L850.44 4125.15L850.44 4125.22L850.44 4125.29L850.44 4125.36L850.44 4125.43L850.44 4125.5L850.44 4125.58L850.44 4125.65L850.44 4125.73L850.43 4125.81L850.43 4125.89L850.43 4125.97L850.43 4126.04L850.42 4126.12L850.42 4126.19L850.42 4126.26L850.41 4126.33L850.41 4126.4L850.4 4126.47L850.4 4126.53L850.39 4126.6L850.38 4126.66L850.38 4126.72L850.37 4126.79L850.36 4126.85L850.35 4126.91L850.34 4126.97L850.33 4127.03L850.32 4127.09L850.31 4127.15L850.3 4127.21L850.29 4127.27L850.28 4127.33L850.26 4127.39L850.25 4127.45L850.24 4127.51L850.22 4127.57L850.21 4127.63L850.19 4127.69L850.17 4127.75L850.15 4127.82L850.14 4127.88L850.12 4127.95L850.1 4128.01L850.07 4128.08L850.05 4128.15L850.03 4128.22L850.01 4128.29L849.98 4128.37L849.9 4128.6L849.81 4128.83L849.72 4129.06L849.61 4129.28L849.51 4129.5L849.4 4129.72L849.28 4129.93L849.15 4130.14L849.03 4130.35L848.89 4130.55L848.75 4130.75L848.61 4130.95L848.46 4131.14L848.31 4131.33L848.15 4131.51L847.98 4131.69L847.81 4131.86L847.64 4132.03L847.46 4132.2L847.28 4132.36L847.1 4132.52L846.91 4132.67L846.71 4132.81L846.51 4132.96L846.31 4133.09L846.11 4133.22L845.9 4133.35L845.69 4133.47L845.47 4133.59L845.25 4133.7L845.03 4133.81L844.8 4133.91L844.57 4134L844.34 4134.09L844.1 4134.17L843.87 4134.25L843.63 4134.32L843.38 4134.38L843.14 4134.44L842.89 4134.49L842.83 4134.5L842.77 4134.51L842.71 4134.52L842.64 4134.53L842.58 4134.54L842.51 4134.55L842.44 4134.56L842.36 4134.57L842.29 4134.58L842.21 4134.58L842.14 4134.59L842.06 4134.59L841.98 4134.6L841.9 4134.61L841.82 4134.61L841.73 4134.62L841.65 4134.62L841.57 4134.62L841.48 4134.63L841.4 4134.63L841.32 4134.63L841.23 4134.63L841.15 4134.63L841.07 4134.63L840.98 4134.63L840.9 4134.63L840.82 4134.63L840.74 4134.63L840.66 4134.63L840.58 4134.62L840.5 4134.62L840.43 4134.62L840.35 4134.61L840.28 4134.61L840.21 4134.6L840.14 4134.6L840.07 4134.59L840.01 4134.58L839.95 4134.58L839.89 4134.57L839.76 4134.55L839.63 4134.53L839.5 4134.51L839.38 4134.48L839.25 4134.46L839.13 4134.43L839 4134.4L838.88 4134.37L838.75 4134.34L838.63 4134.3L838.51 4134.27L838.38 4134.23L838.26 4134.19L838.14 4134.15L838.02 4134.11L837.9 4134.07L837.78 4134.02L837.67 4133.98L837.55 4133.93L837.43 4133.88L837.32 4133.83L837.2 4133.77L837.09 4133.72L836.97 4133.66L836.86 4133.61L836.75 4133.55L836.64 4133.49L836.52 4133.43L836.42 4133.36L836.31 4133.3L836.2 4133.23L836.09 4133.16L835.98 4133.09L835.88 4133.02L835.77 4132.95L835.67 4132.88L835.57 4132.8L835.47 4132.72L835.37 4132.65L835.27 4132.57L835.24 4132.54L835.21 4132.52L835.18 4132.49L835.15 4132.47L835.12 4132.44L835.08 4132.41L835.05 4132.38L835.01 4132.34L834.98 4132.31L834.94 4132.28L834.9 4132.24L834.86 4132.21L834.82 4132.17L834.78 4132.13L834.75 4132.09L834.71 4132.05L834.66 4132.02L834.62 4131.98L834.58 4131.94L834.54 4131.9L834.5 4131.86L834.46 4131.82L834.42 4131.78L834.39 4131.74L834.35 4131.7L834.31 4131.66L834.27 4131.62L834.23 4131.58L834.2 4131.55L834.16 4131.51L834.13 4131.47L834.1 4131.44L834.07 4131.41L834.03 4131.37L834.01 4131.34L833.98 4131.31L833.95 4131.28L833.93 4131.25L833.9 4131.22L833.88 4131.2L833.88 4131.19L833.86 4131.17L833.85 4131.16L833.84 4131.14L833.83 4131.14L833.82 4131.12L833.82 4131.12L833.8 4131.11L833.79 4131.09L833.79 4131.09L833.78 4131.08L833.77 4131.07L833.76 4131.06L833.76 4131.06L833.75 4131.05L833.74 4131.04L833.74 4131.04L833.73 4131.03L833.73 4131.03L833.72 4131.03L833.72 4131.03L833.72 4131.03L833.72 4131.03L833.71 4131.03L833.71 4131.03L833.71 4131.03L833.7 4131.05L833.67 4131.13L833.62 4131.24L833.55 4131.39L833.47 4131.58L833.38 4131.81L833.27 4132.07L833.14 4132.36L833.01 4132.68L832.86 4133.03L832.71 4133.4L832.54 4133.79L832.37 4134.2L832.19 4134.63L832 4135.07L831.81 4135.52L831.62 4135.99L831.42 4136.46L831.22 4136.93L831.02 4137.41L830.82 4137.88L830.62 4138.36L830.42 4138.83L830.23 4139.29L830.04 4139.74L829.85 4140.19L829.67 4140.61L829.5 4141.02L829.34 4141.41L829.18 4141.78L829.04 4142.13L828.9 4142.45L828.78 4142.74L828.67 4143L828.57 4143.23L828.49 4143.42L828.43 4143.58L828.38 4143.69L828.36 4143.76L828.35 4143.79L828.35 4143.79L828.35 4143.79L828.35 4143.79L828.35 4143.79L828.36 4143.79L828.37 4143.79L828.37 4143.79L828.39 4143.8L828.4 4143.8L828.4 4143.8L828.41 4143.8L828.42 4143.8L828.45 4143.8L828.46 4143.8L828.47 4143.8L828.5 4143.81L828.51 4143.81L828.53 4143.81L828.56 4143.81L828.58 4143.81L828.59 4143.81L828.63 4143.81L828.65 4143.81L828.67 4143.81L828.69 4143.81L828.71 4143.81L828.73 4143.81L828.75 4143.81L828.77 4143.81L828.79 4143.81L828.81 4143.81L828.83 4143.81L828.85 4143.81L828.87 4143.81L828.99 4143.82L829.1 4143.82L829.22 4143.83L829.33 4143.84L829.44 4143.85L829.56 4143.86L829.67 4143.88L829.78 4143.9L829.89 4143.91L830 4143.94L830.11 4143.96L830.22 4143.99L830.33 4144.01L830.44 4144.04L830.55 4144.08L830.66 4144.11L830.76 4144.15L830.87 4144.18L830.98 4144.22L831.08 4144.27L831.19 4144.31L831.29 4144.36L831.39 4144.4L831.49 4144.45L831.6 4144.51L831.7 4144.56L831.8 4144.62L831.9 4144.68L831.99 4144.73L832.09 4144.8L832.19 4144.86L832.28 4144.93L832.38 4144.99L832.47 4145.06L832.56 4145.13L832.65 4145.21L832.75 4145.28L832.84 4145.36L832.92 4145.44L833.01 4145.52L833.08 4145.59L833.15 4145.65L833.21 4145.72L833.28 4145.79L833.34 4145.86L833.41 4145.93L833.47 4146L833.53 4146.07L833.59 4146.14L833.65 4146.22L833.7 4146.29L833.76 4146.37L833.81 4146.44L833.87 4146.52L833.92 4146.59L833.97 4146.67L834.02 4146.75L834.07 4146.83L834.12 4146.91L834.16 4146.99L834.21 4147.07L834.25 4147.15L834.3 4147.24L834.34 4147.32L834.38 4147.4L834.42 4147.49L834.45 4147.57L834.49 4147.66L834.53 4147.75L834.56 4147.84L834.59 4147.92L834.62 4148.01L834.65 4148.1L834.68 4148.19L834.71 4148.28L834.74 4148.37L834.76 4148.47L834.79 4148.56L834.81 4148.65L834.83 4148.75L834.83 4148.77L834.84 4148.79L834.84 4148.81L834.85 4148.84L834.85 4148.86L834.86 4148.88L834.86 4148.91L834.86 4148.93L834.87 4148.95L834.87 4148.98L834.87 4149L834.88 4149.03L834.88 4149.05L834.88 4149.08L834.89 4149.1L834.89 4149.13L834.89 4149.16L834.89 4149.18L834.9 4149.21L834.9 4149.24L834.9 4149.26L834.9 4149.29L834.9 4149.32L834.91 4149.35L834.91 4149.38L834.91 4149.41L834.91 4149.45L834.91 4149.48L834.91 4149.51L834.91 4149.54L834.91 4149.58L834.92 4149.61L834.92 4149.65L834.92 4149.69L834.92 4149.72L834.92 4149.76L834.92 4149.8L834.92 4149.84L834.92 4149.88L834.92 4149.93L834.92 4149.99L834.92 4150.05L834.92 4150.11L834.92 4150.16L834.92 4150.22L834.91 4150.27L834.91 4150.32L834.91 4150.37L834.91 4150.42L834.91 4150.47L834.9 4150.52L834.9 4150.56L834.9 4150.61L834.89 4150.65L834.89 4150.7L834.89 4150.74L834.88 4150.78L834.88 4150.82L834.87 4150.86L834.87 4150.9L834.86 4150.94L834.85 4150.98L834.85 4151.02L834.84 4151.07L834.83 4151.11L834.82 4151.15L834.81 4151.19L834.8 4151.23L834.79 4151.27L834.78 4151.31L834.77 4151.35L834.76 4151.4L834.75 4151.44L834.73 4151.49L834.72 4151.53L834.71 4151.58L834.69 4151.63L834.68 4151.68L834.66 4151.73L834.64 4151.78L834.62 4151.85L834.6 4151.92L834.57 4151.99L834.55 4152.06L834.52 4152.13L834.49 4152.19L834.47 4152.26L834.44 4152.33L834.41 4152.39L834.38 4152.46L834.35 4152.52L834.32 4152.59L834.29 4152.65L834.25 4152.71L834.22 4152.78L834.19 4152.84L834.15 4152.9L834.12 4152.96L834.08 4153.02L834.04 4153.08L834 4153.14L833.96 4153.2L833.92 4153.26L833.88 4153.32L833.84 4153.38L833.8 4153.44L833.75 4153.5L833.71 4153.56L833.66 4153.61L833.62 4153.67L833.57 4153.73L833.52 4153.79L833.47 4153.84L833.42 4153.9L833.37 4153.96L833.32 4154.01L833.26 4154.07L833.21 4154.13L833.15 4154.18L833.09 4154.24L833.03 4154.31L832.96 4154.37L832.89 4154.44L832.82 4154.5L832.74 4154.56L832.67 4154.63L832.6 4154.69L832.53 4154.74L832.45 4154.8L832.38 4154.86L832.3 4154.91L832.23 4154.97L832.15 4155.02L832.08 4155.07L832 4155.12L831.92 4155.17L831.84 4155.21L831.77 4155.26L831.69 4155.3L831.61 4155.35L831.53 4155.39L831.44 4155.43L831.36 4155.47L831.28 4155.51L831.2 4155.55L831.11 4155.58L831.03 4155.62L830.94 4155.65L830.86 4155.68L830.77 4155.71L830.69 4155.74L830.6 4155.77L830.51 4155.8L830.42 4155.82L830.33 4155.85L830.24 4155.87L830.15 4155.9L830.06 4155.92L829.97 4155.94L829.88 4155.96L829.84 4155.96L829.79 4155.97L829.75 4155.98L829.7 4155.98L829.66 4155.99L829.6 4155.99L829.55 4156L829.5 4156L829.44 4156.01L829.39 4156.01L829.33 4156.02L829.27 4156.02L829.21 4156.02L829.15 4156.03L829.09 4156.03L829.03 4156.03L828.97 4156.03L828.9 4156.03L828.84 4156.03L828.78 4156.04L828.72 4156.04L828.65 4156.04L828.59 4156.04L828.53 4156.04L828.47 4156.03L828.41 4156.03L828.35 4156.03L828.29 4156.03L828.23 4156.03L828.18 4156.02L828.12 4156.02L828.07 4156.02L828.02 4156.01L827.97 4156.01L827.92 4156L827.87 4156L827.83 4155.99L827.79 4155.99L827.75 4155.98L827.71 4155.97L827.62 4155.96L827.53 4155.94L827.44 4155.92L827.35 4155.9L827.26 4155.87L827.17 4155.85L827.08 4155.83L826.99 4155.8L826.91 4155.77L826.82 4155.74L826.73 4155.71L826.65 4155.68L826.56 4155.65L826.48 4155.62L826.39 4155.58L826.31 4155.55L826.23 4155.51L826.14 4155.47L826.06 4155.43L825.98 4155.39L825.9 4155.35L825.82 4155.31L825.74 4155.26L825.66 4155.22L825.58 4155.17L825.5 4155.12L825.43 4155.08L825.35 4155.03L825.27 4154.97L825.2 4154.92L825.12 4154.87L825.05 4154.82L824.98 4154.76L824.9 4154.7L824.83 4154.65L824.76 4154.59L824.69 4154.53L824.62 4154.47L824.55 4154.41L824.48 4154.34L824.47 4154.33L824.45 4154.31L824.43 4154.29L824.42 4154.28L824.4 4154.26L824.38 4154.25L824.37 4154.23L824.35 4154.22L824.34 4154.2L824.31 4154.18L824.29 4154.16L824.28 4154.15L824.25 4154.13L824.24 4154.11L824.22 4154.1L824.21 4154.09L824.2 4154.08L824.19 4154.07L824.18 4154.06L824.17 4154.05L824.15 4154.03L824.13 4154.01L824.11 4154L824.1 4153.99L824.1 4153.99L824.09 4153.98L824.08 4153.97L824.07 4153.97L824.07 4153.97L824.06 4153.97L824.06 4153.96L824.06 4153.96L824.06 4153.96L824.05 4153.99L824.02 4154.05L823.97 4154.15L823.91 4154.29L823.84 4154.46L823.76 4154.66L823.66 4154.9L823.55 4155.16L823.43 4155.44L823.29 4155.75L823.16 4156.08L823.01 4156.43L822.85 4156.8L822.69 4157.18L822.53 4157.58L822.36 4157.98L822.18 4158.39L822.01 4158.81L821.83 4159.24L821.65 4159.66L821.47 4160.09L821.29 4160.51L821.12 4160.93L820.94 4161.35L820.77 4161.75L820.61 4162.14L820.45 4162.52L820.29 4162.89L820.15 4163.24L820.01 4163.57L819.88 4163.88L819.76 4164.16L819.65 4164.42L819.56 4164.66L819.47 4164.86L819.4 4165.03L819.35 4165.17L819.31 4165.27L819.28 4165.33L819.27 4165.35L819.28 4165.35L819.32 4165.34L819.37 4165.32L819.44 4165.29L819.53 4165.25L819.63 4165.21L819.76 4165.16L819.91 4165.1L820.07 4165.04L820.25 4164.96L820.44 4164.88L820.65 4164.8L820.88 4164.71L821.12 4164.61L821.38 4164.5L821.66 4164.39L821.94 4164.28L822.24 4164.16L822.56 4164.03L822.89 4163.9L823.23 4163.76L823.58 4163.62L823.94 4163.47L824.32 4163.31L824.71 4163.16L825.1 4163L825.51 4162.83L825.93 4162.66L826.35 4162.49L826.79 4162.31L827.23 4162.13L827.69 4161.95L828.15 4161.76L828.62 4161.57L829.09 4161.38L829.57 4161.18L830.06 4160.98L830.55 4160.78L831.05 4160.58L831.55 4160.37L832.06 4160.17L832.56 4159.96L833.54 4159.56L834.5 4159.17L837.19 4158.08L837.61 4157.91L838.02 4157.74L838.81 4157.42L839.19 4157.27L839.56 4157.12L839.91 4156.97L840.25 4156.83L840.59 4156.7L840.9 4156.57L841.21 4156.45L841.5 4156.33L841.77 4156.21L842.04 4156.11L842.28 4156.01L842.51 4155.91L842.73 4155.83L842.93 4155.75L843.11 4155.67L843.28 4155.6L843.42 4155.54L843.56 4155.49L843.67 4155.44L843.76 4155.41L843.84 4155.38L843.89 4155.35L843.93 4155.34L843.94 4155.33L843.95 4155.33L843.96 4155.33L843.96 4155.33L843.97 4155.32L843.98 4155.32L843.98 4155.32L843.99 4155.31L843.99 4155.31L843.99 4155.31L844 4155.3L844 4155.3L844 4155.3L844 4155.29L844 4155.29L844 4155.29L843.99 4155.28L843.99 4155.28L843.99 4155.27L843.98 4155.27L843.98 4155.26L843.97 4155.25L843.96 4155.25L843.95 4155.24L843.94 4155.23L843.93 4155.23L843.92 4155.22L843.9 4155.21L843.89 4155.2L843.87 4155.19L843.86 4155.18L843.84 4155.17L843.82 4155.16L843.8 4155.15L843.78 4155.13L843.75 4155.12L843.73 4155.11L843.7 4155.09L843.67 4155.08L843.64 4155.06L843.61 4155.05L843.48 4154.97L843.34 4154.89L843.2 4154.8L843.07 4154.72L842.94 4154.63L842.81 4154.54L842.68 4154.45L842.56 4154.35L842.44 4154.25L842.31 4154.15L842.2 4154.05L842.08 4153.95L841.96 4153.84L841.85 4153.73L841.74 4153.62L841.63 4153.51L841.53 4153.39L841.43 4153.28L841.33 4153.16L841.23 4153.04L841.13 4152.92L841.04 4152.79L840.95 4152.67L840.86 4152.54L840.78 4152.41L840.69 4152.28L840.61 4152.15L840.54 4152.02L840.46 4151.88L840.39 4151.75L840.32 4151.61L840.26 4151.47L840.2 4151.33L840.14 4151.19L840.08 4151.05L840.03 4150.91L839.98 4150.76L839.93 4150.62L839.88 4150.47L839.84 4150.33L839.83 4150.27L839.81 4150.22L839.8 4150.17L839.79 4150.12L839.78 4150.07L839.76 4150.02L839.75 4149.97L839.74 4149.92L839.73 4149.88L839.72 4149.83L839.71 4149.78L839.7 4149.74L839.69 4149.69L839.69 4149.65L839.68 4149.6L839.67 4149.56L839.66 4149.51L839.66 4149.47L839.65 4149.42L839.65 4149.38L839.64 4149.33L839.63 4149.29L839.63 4149.24L839.63 4149.19L839.62 4149.15L839.62 4149.1L839.61 4149.05L839.61 4149L839.61 4148.96L839.61 4148.91L839.6 4148.86L839.6 4148.81L839.6 4148.75L839.6 4148.7L839.6 4148.65L839.6 4148.59L839.59 4148.54L839.59 4148.48L839.59 4148.42L839.59 4148.36L839.6 4148.09L839.61 4147.82L839.64 4147.56L839.67 4147.3L839.71 4147.03L839.76 4146.78L839.82 4146.52L839.89 4146.27L839.97 4146.02L840.05 4145.78L840.15 4145.54L840.25 4145.3L840.36 4145.07L840.48 4144.84L840.6 4144.62L840.74 4144.4L840.88 4144.18L841.03 4143.97L841.18 4143.76L841.34 4143.56L841.51 4143.37L841.69 4143.18L841.87 4143L842.06 4142.82L842.25 4142.65L842.46 4142.48L842.66 4142.32L842.88 4142.17L843.1 4142.02L843.32 4141.88L843.55 4141.75L843.79 4141.62L844.03 4141.5L844.28 4141.39L844.53 4141.29L844.78 4141.19L845.04 4141.11L845.31 4141.03L845.58 4140.95L845.85 4140.89L845.89 4140.88L845.92 4140.88L845.95 4140.87L845.98 4140.87L846.01 4140.86L846.04 4140.85L846.07 4140.85L846.1 4140.84L846.12 4140.84L846.15 4140.83L846.18 4140.83L846.21 4140.83L846.24 4140.82L846.27 4140.82L846.3 4140.81L846.33 4140.81L846.36 4140.81L846.39 4140.81L846.42 4140.8L846.45 4140.8L846.48 4140.8L846.52 4140.8L846.55 4140.79L846.59 4140.79L846.62 4140.79L846.66 4140.79L846.7 4140.79L846.74 4140.79L846.78 4140.79L846.82 4140.78L846.87 4140.78L846.91 4140.78L846.96 4140.78L847.01 4140.78L847.06 4140.78L847.11 4140.78L847.17 4140.78L847.22 4140.78L847.28 4140.78L847.35 4140.78L847.41 4140.78L847.47 4140.78L847.52 4140.78L847.58 4140.78L847.63 4140.78L847.68 4140.78L847.73 4140.78L847.78 4140.78L847.83 4140.78L847.87 4140.78L847.91 4140.78L847.96 4140.78L848 4140.79L848.03 4140.79L848.07 4140.79L848.11 4140.79L848.14 4140.79L848.18 4140.79L848.21 4140.8L848.24 4140.8L848.28 4140.8L848.31 4140.8L848.34 4140.81L848.37 4140.81L848.4 4140.81L848.43 4140.82L848.46 4140.82L848.49 4140.82L848.52 4140.83L848.54 4140.83L848.57 4140.84L848.6 4140.84L848.63 4140.85L848.66 4140.85L848.69 4140.86L848.73 4140.87L848.76 4140.87L848.79 4140.88L848.82 4140.88L848.86 4140.89L849.06 4140.94L849.27 4140.99L849.47 4141.05L849.67 4141.11L849.87 4141.17L850.07 4141.24L850.26 4141.32L850.45 4141.4L850.64 4141.48L850.83 4141.57L851.01 4141.66L851.19 4141.76L851.36 4141.86L851.54 4141.97L851.71 4142.08L851.87 4142.19L852.04 4142.31L852.2 4142.43L852.35 4142.56L852.51 4142.69L852.66 4142.82L852.8 4142.96L852.94 4143.1L853.08 4143.24L853.22 4143.39L853.35 4143.54L853.47 4143.7L853.6 4143.86L853.71 4144.02L853.83 4144.19L853.94 4144.35L854.04 4144.53L854.15 4144.7L854.24 4144.88L854.33 4145.06L854.42 4145.24L854.51 4145.43L854.58 4145.62L854.66 4145.81L854.73 4146.01L854.76 4146.12L854.8 4146.24L854.83 4146.35L854.87 4146.47L854.9 4146.59L854.93 4146.7L854.95 4146.82L854.98 4146.93L855 4147.05L855.02 4147.16L855.04 4147.27L855.06 4147.39L855.07 4147.5L855.09 4147.62L855.1 4147.73L855.11 4147.85L855.11 4147.96L855.12 4148.07L855.12 4148.19L855.12 4148.3L855.12 4148.41L855.12 4148.53L855.12 4148.64L855.11 4148.75L855.1 4148.87L855.09 4148.98L855.08 4149.09L855.07 4149.21L855.05 4149.32L855.04 4149.43L855.02 4149.55L855 4149.66L854.97 4149.77L854.95 4149.89L854.92 4150L854.89 4150.11L854.86 4150.23L854.83 4150.34L854.79 4150.45L854.75 4150.57L854.75 4150.58L854.74 4150.62L854.73 4150.65L854.72 4150.67L854.71 4150.71L854.69 4150.76L854.68 4150.8L854.67 4150.83L854.66 4150.87L854.65 4150.9L854.65 4150.92L854.64 4150.93L854.64 4150.95L854.63 4150.96L854.63 4150.97L854.63 4150.98L854.63 4150.99L854.63 4150.99L854.67 4150.97L854.79 4150.93L854.99 4150.85L855.26 4150.74L855.6 4150.6L856 4150.44L856.47 4150.25L856.98 4150.04L857.55 4149.81L858.17 4149.56L858.82 4149.29L859.52 4149.01L860.25 4148.71L861.01 4148.4L861.79 4148.08L862.6 4147.75L863.42 4147.42L864.25 4147.08L865.1 4146.73L865.94 4146.39L866.79 4146.04L867.64 4145.7L868.47 4145.36L869.29 4145.02L870.1 4144.69L870.88 4144.37L871.64 4144.06L872.37 4143.76L873.07 4143.48L873.73 4143.21L874.34 4142.96L874.91 4142.73L875.43 4142.51L875.89 4142.33L876.29 4142.16L876.63 4142.02L876.91 4141.91L877.11 4141.82L877.23 4141.77L877.28 4141.75L877.28 4141.75L877.28 4141.75L877.28 4141.74L877.27 4141.73L877.27 4141.72L877.27 4141.71L877.26 4141.7L877.26 4141.69L877.26 4141.67L877.25 4141.65L877.24 4141.63L877.24 4141.61L877.23 4141.59L877.22 4141.56L877.21 4141.54L877.2 4141.51L877.19 4141.48L877.18 4141.45L877.17 4141.42L877.16 4141.39L877.15 4141.36L877.13 4141.32L877.12 4141.29L877.11 4141.25L877.09 4141.21L877.08 4141.18L877.06 4141.14L877.05 4141.1L877.03 4141.05L877.02 4141.01L877 4140.97L876.98 4140.93L876.96 4140.88L876.95 4140.84L876.93 4140.79L876.91 4140.74L876.89 4140.7L876.87 4140.65L876.85 4140.6L876.84 4140.55L876.71 4140.25L876.58 4139.94L876.45 4139.63L876.32 4139.32L876.19 4139.01L876.06 4138.71L875.92 4138.4L875.78 4138.1L875.64 4137.79L875.5 4137.49L875.36 4137.18L875.22 4136.88L875.07 4136.58L874.92 4136.28L874.77 4135.98L874.62 4135.68L874.47 4135.38L874.32 4135.08L874.16 4134.78L874 4134.49L873.84 4134.19L873.68 4133.9L873.52 4133.6L873.36 4133.31L873.2 4133.02L873.03 4132.73L872.86 4132.44L872.69 4132.16L872.52 4131.87L872.35 4131.59L872.18 4131.3L872 4131.02L871.83 4130.74L871.65 4130.46L871.47 4130.18L871.3 4129.91L871.11 4129.63L870.93 4129.36L870.75 4129.09L870.57 4128.82L870.28 4128.4L869.99 4127.99L869.7 4127.59L869.41 4127.19L869.11 4126.79L868.81 4126.4L868.51 4126.01L868.21 4125.63L867.9 4125.25L867.6 4124.87L867.29 4124.5L866.97 4124.13L866.66 4123.77L866.34 4123.41L866.02 4123.05L865.69 4122.7L865.37 4122.35L865.04 4122.01L864.7 4121.67L864.36 4121.33L864.02 4120.99L863.68 4120.66L863.33 4120.33L862.98 4120.01L862.62 4119.68L862.27 4119.36L861.9 4119.05L861.54 4118.73L861.17 4118.42L860.79 4118.12L860.41 4117.81L860.03 4117.51L859.64 4117.21L859.25 4116.91L858.86 4116.61L858.46 4116.32L858.05 4116.02L857.64 4115.73L857.23 4115.45L856.81 4115.16L856.52 4114.97L856.22 4114.77L855.93 4114.58L855.63 4114.38L855.33 4114.19L855.02 4114L854.72 4113.81L854.41 4113.62L854.1 4113.44L853.78 4113.25L853.47 4113.07L853.15 4112.88L852.84 4112.7L852.52 4112.52L852.2 4112.35L851.87 4112.17L851.55 4111.99L851.23 4111.82L850.9 4111.65L850.57 4111.48L850.24 4111.31L849.92 4111.15L849.59 4110.98L849.25 4110.82L848.92 4110.66L848.59 4110.5L848.26 4110.35L847.93 4110.19L847.59 4110.04L847.26 4109.89L846.92 4109.75L846.59 4109.6L846.26 4109.46L845.92 4109.32L845.59 4109.18L845.26 4109.04L844.92 4108.91L844.59 4108.78L844.26 4108.65L843.93 4108.53L843.9 4108.52L843.88 4108.51L843.85 4108.5L843.8 4108.48L843.75 4108.46L843.73 4108.46L843.68 4108.44L843.64 4108.42L843.62 4108.41L843.56 4108.39L843.5 4108.37L843.45 4108.35L843.4 4108.33L843.37 4108.32L843.33 4108.31L843.32 4108.3L843.31 4108.3L843.3 4108.3L843.29 4108.29L843.29 4108.3L843.28 4108.31ZM827.79 4147.04L827.27 4147.26L826.95 4147.44L826.73 4147.68L826.5 4148.11L826.17 4148.89L825.95 4149.43L825.79 4149.85L825.69 4150.14L825.66 4150.29L825.66 4150.39L825.68 4150.51L825.72 4150.66L825.76 4150.8L826.01 4151.38L826.36 4151.89L826.8 4152.32L827.32 4152.64L827.7 4152.8L828.03 4152.89L828.38 4152.94L828.79 4152.96L829.07 4152.95L829.28 4152.93L829.48 4152.88L829.71 4152.81L830.37 4152.5L830.92 4152.07L831.36 4151.52L831.66 4150.89L831.72 4150.67L831.76 4150.47L831.78 4150.24L831.79 4149.93L831.78 4149.61L831.77 4149.39L831.73 4149.2L831.66 4148.99L831.52 4148.63L831.36 4148.33L831.16 4148.06L830.89 4147.78L830.69 4147.59L830.51 4147.45L830.33 4147.33L830.11 4147.21L829.93 4147.14L829.74 4147.06L829.57 4147.01L829.45 4146.97L828.87 4146.9L828.32 4146.92L827.79 4147.04ZM846.51 4143.9L845.51 4144.2L844.63 4144.7L843.89 4145.36L843.3 4146.18L842.89 4147.14L842.83 4147.35L842.79 4147.53L842.77 4147.74L842.76 4148L842.75 4148.38L842.76 4148.87L842.8 4149.27L842.86 4149.61L842.97 4149.94L843.13 4150.31L843.56 4151.03L844.09 4151.66L844.73 4152.18L845.45 4152.58L846.24 4152.84L847.77 4152.95L849.19 4152.6L850.41 4151.84L851.34 4150.74L851.89 4149.35L851.94 4149.03L851.97 4148.64L851.98 4148.24L851.96 4147.87L851.92 4147.57L851.6 4146.55L851.07 4145.66L850.37 4144.92L849.51 4144.35L848.5 4143.97L848.15 4143.91L847.73 4143.87L847.28 4143.85L846.86 4143.86L846.51 4143.9ZM847.67 4096.51L847.65 4096.54L847.63 4096.58L847.61 4096.63L847.58 4096.69L847.55 4096.76L847.51 4096.86L847.47 4096.96L847.43 4097.09L847.37 4097.23L847.31 4097.39L847.25 4097.57L847.18 4097.77L847.1 4097.99L847.01 4098.23L846.92 4098.49L846.81 4098.78L846.7 4099.09L846.58 4099.43L846.46 4099.79L846.32 4100.18L846.17 4100.6L846.02 4101.05L845.85 4101.53L845.67 4102.03L845.57 4102.32L845.48 4102.6L845.39 4102.85L845.3 4103.1L845.22 4103.33L845.15 4103.54L845.08 4103.74L845.02 4103.93L844.96 4104.1L844.9 4104.26L844.85 4104.41L844.81 4104.55L844.77 4104.67L844.73 4104.79L844.7 4104.89L844.67 4104.98L844.64 4105.06L844.62 4105.14L844.6 4105.2L844.59 4105.25L844.58 4105.3L844.57 4105.34L844.57 4105.37L844.57 4105.39L844.57 4105.41L844.57 4105.41L844.58 4105.42L844.59 4105.42L844.6 4105.43L844.62 4105.44L844.64 4105.45L844.67 4105.46L844.7 4105.47L844.74 4105.49L844.78 4105.51L844.82 4105.52L844.87 4105.54L844.92 4105.56L844.97 4105.59L845.03 4105.61L845.09 4105.63L845.15 4105.66L845.21 4105.68L845.28 4105.71L845.35 4105.74L845.42 4105.77L845.49 4105.8L845.57 4105.83L845.64 4105.86L845.72 4105.89L845.8 4105.92L845.88 4105.95L846.79 4106.32L847.7 4106.7L848.59 4107.09L849.48 4107.49L850.36 4107.91L851.23 4108.33L852.09 4108.77L852.95 4109.22L853.79 4109.67L854.62 4110.14L855.44 4110.62L856.26 4111.11L857.06 4111.62L857.85 4112.13L858.63 4112.65L859.4 4113.18L860.15 4113.72L860.9 4114.27L861.63 4114.83L862.35 4115.4L863.06 4115.98L863.76 4116.57L864.44 4117.17L865.11 4117.77L865.77 4118.39L866.41 4119.01L866.98 4119.58L867.55 4120.16L868.11 4120.76L868.66 4121.36L869.2 4121.98L869.74 4122.6L870.27 4123.24L870.79 4123.89L871.3 4124.54L871.81 4125.21L872.31 4125.88L872.8 4126.57L873.28 4127.26L873.75 4127.96L874.22 4128.67L874.68 4129.39L875.12 4130.12L875.56 4130.85L875.99 4131.6L876.41 4132.35L876.82 4133.11L877.23 4133.87L877.62 4134.64L878 4135.42L878.37 4136.2L878.73 4137L878.79 4137.12L878.85 4137.25L878.91 4137.4L878.98 4137.55L879.04 4137.7L879.11 4137.86L879.18 4138.03L879.25 4138.19L879.32 4138.36L879.39 4138.53L879.46 4138.7L879.53 4138.87L879.6 4139.03L879.67 4139.19L879.73 4139.35L879.79 4139.5L879.85 4139.65L879.9 4139.78L879.96 4139.91L880 4140.03L880.04 4140.14L880.08 4140.23L880.11 4140.31L880.13 4140.38L880.15 4140.44L880.16 4140.47L880.16 4140.48L880.17 4140.49L880.17 4140.5L880.17 4140.51L880.17 4140.51L880.18 4140.52L880.18 4140.53L880.18 4140.54L880.19 4140.54L880.19 4140.55L880.19 4140.56L880.19 4140.56L880.2 4140.57L880.2 4140.57L880.2 4140.58L880.21 4140.58L880.21 4140.59L880.21 4140.59L880.22 4140.6L880.22 4140.6L880.22 4140.6L880.22 4140.6L880.23 4140.61L880.23 4140.61L880.23 4140.61L880.23 4140.61L880.25 4140.6L880.3 4140.59L880.36 4140.57L880.45 4140.54L880.57 4140.5L880.7 4140.46L880.86 4140.41L881.04 4140.35L881.24 4140.28L881.45 4140.21L881.68 4140.14L881.93 4140.05L882.2 4139.96L882.48 4139.87L882.78 4139.77L883.08 4139.67L883.41 4139.56L883.74 4139.45L884.09 4139.33L884.44 4139.21L884.8 4139.09L885.18 4138.97L885.56 4138.84L885.95 4138.71L886.34 4138.58L886.74 4138.44L887.01 4138.35L887.26 4138.26L887.5 4138.18L887.71 4138.11L887.91 4138.04L888.09 4137.98L888.26 4137.92L888.41 4137.87L888.54 4137.82L888.66 4137.77L888.77 4137.73L888.86 4137.69L888.94 4137.66L889.02 4137.62L889.08 4137.59L889.13 4137.56L889.17 4137.53L889.2 4137.51L889.23 4137.48L889.25 4137.46L889.26 4137.43L889.27 4137.41L889.27 4137.38L889.27 4137.36L889.27 4137.33L889.26 4137.3L889.26 4137.28L889.24 4137.25L889.23 4137.2L889.2 4137.14L889.18 4137.07L889.14 4136.99L889.11 4136.9L889.06 4136.79L889.01 4136.67L888.96 4136.54L888.91 4136.4L888.84 4136.25L888.78 4136.09L888.71 4135.91L888.63 4135.73L888.55 4135.53L888.47 4135.33L888.38 4135.11L888.28 4134.89L888.19 4134.65L888.09 4134.41L887.98 4134.16L887.87 4133.89L887.76 4133.62L887.64 4133.34L887.52 4133.05L887.19 4132.26L886.86 4131.49L886.53 4130.73L886.2 4129.99L885.87 4129.26L885.53 4128.54L885.2 4127.84L884.86 4127.15L884.53 4126.47L884.19 4125.81L883.85 4125.16L883.51 4124.52L883.16 4123.88L882.82 4123.26L882.47 4122.66L882.12 4122.06L881.76 4121.47L881.4 4120.89L881.04 4120.31L880.68 4119.75L880.31 4119.19L879.93 4118.65L879.56 4118.11L879.17 4117.57L878.79 4117.05L878.4 4116.53L878.1 4116.15L877.81 4115.77L877.51 4115.4L877.21 4115.03L876.91 4114.67L876.61 4114.31L876.3 4113.96L875.99 4113.61L875.68 4113.26L875.36 4112.92L875.05 4112.58L874.72 4112.25L874.4 4111.91L874.07 4111.58L873.74 4111.26L873.4 4110.93L873.06 4110.61L872.71 4110.29L872.36 4109.97L872.01 4109.65L871.65 4109.34L871.28 4109.03L870.91 4108.72L870.54 4108.41L870.16 4108.1L869.77 4107.79L869.07 4107.25L868.36 4106.71L867.62 4106.18L866.87 4105.65L866.11 4105.13L865.33 4104.62L864.54 4104.12L863.73 4103.62L862.92 4103.13L862.1 4102.65L861.27 4102.18L860.44 4101.72L859.6 4101.28L858.75 4100.84L857.91 4100.42L857.06 4100.01L856.21 4099.62L855.36 4099.24L854.52 4098.87L853.68 4098.52L852.84 4098.19L852.01 4097.88L851.19 4097.58L850.38 4097.3L849.58 4097.04L848.78 4096.8L848.72 4096.78L848.65 4096.77L848.58 4096.75L848.52 4096.73L848.46 4096.71L848.4 4096.69L848.34 4096.68L848.28 4096.66L848.22 4096.64L848.17 4096.63L848.12 4096.61L848.07 4096.6L848.02 4096.59L847.98 4096.57L847.94 4096.56L847.9 4096.55L847.86 4096.54L847.83 4096.53L847.8 4096.52L847.77 4096.52L847.75 4096.51L847.73 4096.5L847.71 4096.5L847.7 4096.5L847.7 4096.5L847.69 4096.5L847.68 4096.5L847.67 4096.51ZM840.06 4119.47L839.57 4119.58L839.09 4119.72L838.64 4119.9L838.34 4120.03L836.81 4123.64L836.45 4124.46L836.13 4125.23L835.85 4125.92L835.61 4126.49L835.43 4126.94L835.31 4127.24L835.27 4127.36L835.29 4127.48L835.36 4127.66L835.45 4127.89L835.57 4128.13L835.7 4128.39L835.84 4128.63L835.97 4128.84L836.51 4129.53L837.13 4130.13L837.82 4130.63L838.58 4131.02L839.39 4131.31L840.24 4131.49L841.13 4131.55L841.84 4131.52L842.52 4131.41L843.17 4131.24L843.79 4130.99L844.38 4130.68L844.94 4130.29L845.47 4129.83L845.95 4129.31L846.37 4128.75L846.71 4128.16L846.98 4127.53L847.17 4126.87L847.28 4126.18L847.32 4125.46L847.31 4125.03L847.27 4124.63L847.2 4124.23L847.11 4123.85L846.99 4123.47L846.84 4123.09L846.66 4122.71L846.23 4121.99L845.71 4121.34L845.1 4120.77L844.43 4120.29L843.7 4119.91L842.91 4119.62L842.08 4119.45L841.58 4119.39L841.06 4119.38L840.56 4119.41L840.06 4119.47Z" id="m2oKE9JOP"></path></defs><g><g><use xlink:href="#m2oKE9JOP" opacity="1" fill="#000000" fill-opacity="1"></use><g><use xlink:href="#m2oKE9JOP" opacity="1" fill-opacity="0" stroke="#000000" stroke-width="1" stroke-opacity="0"></use></g></g></g></svg>